<?xml version="1.0" encoding="UTF-8"?><svg id="a" xmlns="http://www.w3.org/2000/svg" viewBox="0 0 757 294"><defs><style>.h{letter-spacing:.19em;}.i{letter-spacing:.19em;}.j{font-family:Poppins-Regular, Poppins;}.j,.k,.l{fill:#fff;font-size:10.56px;}.k{font-family:Poppins-SemiBold, Poppins;}.m{fill:#3f6b71;}.n{fill:none;stroke:#869fb2;stroke-miterlimit:10;stroke-width:3px;}.o{letter-spacing:0em;}.p{fill:#506d8f;}.l{font-family:Poppins-Bold, Poppins;}.q{fill:#869fb2;}.r{letter-spacing:1.17em;}.s{letter-spacing:1.17em;}</style></defs><g><rect class="m" x="5.91" y="138.2" width="217.97" height="40.73"/><text class="l" transform="translate(28.04 160.11)"><tspan x="0" y="0">PROBLEMAS E DEMANDAS SOCIAIS</tspan></text></g><path id="b" class="q" d="M242.12,59.96l-5.51-5.51c-.4-.4-.41-1.05,0-1.46h0c.41-.41,1.07-.41,1.48,0l6.24,6.24c.39,.39,.41,1.02,.03,1.43l-6.27,6.29c-.4,.41-1.06,.41-1.47,0-.41-.4-.41-1.06,0-1.47h0l5.51-5.52h0Z"/><path id="c" class="q" d="M117.6,204.47l5.51,5.51c.4,.4,1.05,.41,1.46,0h0c.41-.42,.41-1.08,0-1.49l-6.24-6.24c-.39-.39-1.02-.41-1.43-.03l-6.29,6.27c-.41,.4-.41,1.06,0,1.47,.4,.41,1.06,.41,1.47,0h0l5.51-5.51h0Z"/><path id="d" class="q" d="M511.41,57.93l-5.51-5.51c-.4-.4-.41-1.05,0-1.46h0c.41-.41,1.07-.41,1.48,0l6.24,6.24c.39,.39,.41,1.02,.03,1.43l-6.27,6.29c-.4,.41-1.06,.41-1.47,0-.41-.4-.41-1.06,0-1.47h0l5.51-5.52h0Z"/><path id="e" class="q" d="M508.11,247.96l5.51-5.51c.4-.4,.41-1.05,0-1.46h0c-.41-.41-1.07-.41-1.48,0l-6.24,6.24c-.39,.39-.41,1.02-.03,1.43l6.27,6.29c.4,.41,1.06,.41,1.47,0,.41-.4,.41-1.06,0-1.47h0l-5.51-5.52h0Z"/><path id="f" class="q" d="M635.33,106.87l5.51-5.51c.4-.4,1.05-.41,1.46,0h0c.41,.42,.41,1.08,0,1.49l-6.24,6.24c-.39,.39-1.02,.41-1.43,.03l-6.29-6.27c-.41-.4-.41-1.06,0-1.47,.4-.41,1.06-.41,1.47,0h0l5.51,5.51h0Z"/><path id="g" class="q" d="M635.33,202.04l5.51-5.51c.4-.4,1.05-.41,1.46,0h0c.41,.42,.41,1.08,0,1.49l-6.24,6.24c-.39,.39-1.02,.41-1.43,.03l-6.29-6.27c-.41-.4-.41-1.06,0-1.47,.4-.41,1.06-.41,1.47,0h0l5.51,5.51h0Z"/><polyline class="n" points="226.58 59.93 117.59 59.93 117.59 124.84"/><polyline class="n" points="226.58 249.83 117.59 249.83 117.59 212.86"/><g><g><rect class="p" x="267.46" y="21.91" width="217.97" height="76.18"/><text class="j" transform="translate(297.06 59.98)"><tspan x="0" y="0">Reconhecimento</tspan><tspan class="r" x="89.99" y="0"> </tspan><tspan x="105.15" y="0">de</tspan><tspan class="s" x="118.83" y="0"> </tspan><tspan x="134" y="0">uma </tspan><tspan x="0" y="12.67">questão</tspan><tspan class="i" x="43.69" y="12.67"> </tspan><tspan x="48.51" y="12.67">que</tspan><tspan class="h" x="68.96" y="12.67"> </tspan><tspan class="o" x="73.77" y="12.67">demanda</tspan><tspan class="i" x="126.51" y="12.67"> </tspan><tspan x="131.32" y="12.67">ação </tspan><tspan x="0" y="25.34">prioritária.</tspan></text></g><text class="k" transform="translate(320.29 41.85)"><tspan x="0" y="0">Definição da agenda</tspan></text></g><g><rect class="p" x="267.46" y="227.6" width="217.97" height="40.73"/><text class="k" transform="translate(346.31 241.32)"><tspan x="0" y="0">Avaliação</tspan></text><text class="j" transform="translate(290.01 257.56)"><tspan x="0" y="0">Análise dos resultados e impactos</tspan></text></g><g><rect class="p" x="526.34" y="37.27" width="217.97" height="40.73"/><text class="k" transform="translate(602.83 50.99)"><tspan x="0" y="0">Formulação</tspan></text><text class="j" transform="translate(533.17 67.22)"><tspan x="0" y="0">Diagnóstico e desenho da intervenção</tspan></text></g><g><rect class="p" x="519.56" y="132.44" width="231.53" height="40.73"/><text class="k" transform="translate(581.77 146.15)"><tspan x="0" y="0">Tomada de Decisão</tspan></text><text class="j" transform="translate(525.89 162.39)"><tspan x="0" y="0">Decisão por alguma alternativa proposta</tspan></text></g><g><rect class="p" x="526.34" y="227.6" width="217.97" height="40.73"/><text class="k" transform="translate(591.98 241.32)"><tspan x="0" y="0">Implementação</tspan></text><text class="j" transform="translate(528.47 257.56)"><tspan x="0" y="0">Execução das atividades e das entregas</tspan></text></g></svg>