<?xml version="1.0" encoding="UTF-8"?><svg id="a" xmlns="http://www.w3.org/2000/svg" xmlns:xlink="http://www.w3.org/1999/xlink" viewBox="0 0 329.66 314.62"><defs><style>.q{opacity:.75;}.q,.r,.s{fill:#dbdbdb;isolation:isolate;}.t{clip-path:url(#h);}.u{fill:#29696d;}.v{fill:#108141;}.w{clip-path:url(#n);}.x{fill:#e6e6e6;}.r{opacity:.6;}.y{fill:#6dafcc;}.a`{clip-path:url(#b);}.aa{clip-path:url(#e);}.ab{fill:#f4bb2a;}.ac{fill:none;}.s{opacity:.5;}.ad{fill:#1b8992;}.ae{fill:#cdcdcd;}.af{font-size:12px;}.af,.ag{fill:#fff;font-family:Poppins-Bold, Poppins;}.ah{clip-path:url(#k);}.ag{font-size:11.95px;}</style><clipPath id="b"><rect class="ac" x="58.7" y="75.5" width="66.8" height="42.3"/></clipPath><clipPath id="e"><rect class="ac" x="171.3" y="55.5" width="86.7" height="54.9"/></clipPath><clipPath id="h"><rect class="ac" x="144.56" y="210.9" width="86.7" height="54.9"/></clipPath><clipPath id="k"><rect class="ac" x="200.55" y="133.2" width="100.9" height="54.9"/></clipPath><clipPath id="n"><rect class="ac" x="35.96" y="155.9" width="100.9" height="54.9"/></clipPath></defs><circle class="s" cx="165.5" cy="156.8" r="155"/><circle class="r" cx="165.5" cy="156.8" r="126.5"/><circle class="q" cx="165.5" cy="156.8" r="98"/><g><g class="a`"><path id="c" class="x" d="M116.2,117.8h-48.2c-5.1,0-9.3-4.2-9.3-9.3h0v-23.7c0-5.1,4.2-9.3,9.3-9.3h48.2c5.1,0,9.3,4.1,9.3,9.3h0v23.8c0,5-4.2,9.2-9.3,9.2h0"/></g><path id="d" class="ad" d="M115.2,116.4h-48.2c-5.1,0-9.3-4.2-9.3-9.3h0v-23.8c0-5.1,4.2-9.3,9.3-9.3h48.2c5.1,0,9.3,4.1,9.3,9.3h0v23.8c0,5.1-4.1,9.3-9.3,9.3h0"/></g><g><g class="aa"><path id="f" class="ae" d="M248.8,110.4h-68.2c-5.1,0-9.3-4.2-9.3-9.3v-36.3c0-5.1,4.1-9.3,9.3-9.3h68.2c5.1,0,9.3,4.2,9.3,9.3v36.4c0,5.1-4.2,9.2-9.3,9.2"/></g><path id="g" class="y" d="M246.6,108.3h-68.2c-5.1,0-9.3-4.2-9.3-9.3V62.7c0-5.1,4.1-9.3,9.3-9.3h68.2c5.1,0,9.3,4.2,9.3,9.3v36.4c-.1,5.1-4.2,9.3-9.3,9.2"/></g><g><g class="t"><path id="i" class="ae" d="M222.06,265.8h-68.2c-5.1,0-9.3-4.1-9.3-9.3v-36.4c0-5.1,4.1-9.3,9.3-9.3h68.2c5.1,0,9.3,4.1,9.3,9.3v36.4c0,5.2-4.2,9.3-9.3,9.3"/></g><path id="j" class="ab" d="M219.86,263.8h-68.2c-5.1,0-9.3-4.1-9.3-9.3v-36.4c0-5.1,4.1-9.3,9.3-9.3h68.2c5.1,0,9.3,4.1,9.3,9.3v36.4c0,5.1-4.2,9.3-9.3,9.3"/></g><g><g class="ah"><path id="l" class="ae" d="M290.75,188.1h-79.4c-6,0-10.8-4.1-10.8-9.3v-36.4c0-5.1,4.8-9.3,10.8-9.3h79.4c6,0,10.8,4.1,10.8,9.3v36.4c0,5.2-4.8,9.3-10.8,9.3"/></g><path id="m" class="u" d="M288.55,186.1h-79.4c-6,0-10.8-4.1-10.8-9.3v-36.4c0-5.1,4.8-9.3,10.8-9.3h79.4c6,0,10.8,4.1,10.8,9.3v36.4c0,5.1-4.9,9.3-10.8,9.3"/></g><g><g class="w"><path id="o" class="ae" d="M126.16,210.8H46.76c-6,0-10.8-4.1-10.8-9.3v-36.4c0-5.1,4.8-9.3,10.8-9.3H126.16c6,0,10.8,4.1,10.8,9.3v36.4c0,5.2-4.8,9.3-10.8,9.3"/></g><path id="p" class="v" d="M123.96,208.8H44.56c-6,0-10.8-4.1-10.8-9.3v-36.4c0-5.1,4.8-9.3,10.8-9.3H123.96c6,0,10.8,4.1,10.8,9.3v36.4c0,5.1-4.9,9.3-10.8,9.3"/></g><text class="ag" transform="translate(63.1 100.13)"><tspan x="0" y="0">INSUMOS</tspan></text><text class="af" transform="translate(154.84 238.77)"><tspan x="0" y="0">IMPACTOS</tspan></text><text class="af" transform="translate(49.34 183.77)"><tspan x="0" y="0">ATIVIDADES</tspan></text><text class="af" transform="translate(216.99 161.08)"><tspan x="0" y="0">PRODUTOS</tspan></text><text class="af" transform="translate(173.34 85.77)"><tspan x="0" y="0">RESULTADOS</tspan></text></svg>