<?xml version="1.0" encoding="UTF-8"?><svg id="Camada_1" xmlns="http://www.w3.org/2000/svg" viewBox="0 0 298 242"><defs><style>.cls-1{fill:#fff;}.cls-2{fill:#29696d;}.cls-3{fill:none;stroke:#29696d;stroke-miterlimit:10;stroke-width:2px;}</style></defs><g><path d="M31.49,85.79c-2.75,0-4.9-2.06-4.9-4.99s2.16-4.99,4.9-4.99,4.9,2.06,4.9,4.99-2.14,4.99-4.9,4.99Zm0-1.11c2.06,0,3.6-1.5,3.6-3.88s-1.54-3.88-3.6-3.88-3.6,1.48-3.6,3.88,1.54,3.88,3.6,3.88Z"/><path d="M45.95,77.89c2.06,0,3.64,1.54,3.64,3.94s-1.58,3.99-3.64,3.99c-1.4,0-2.4-.76-2.87-1.54v5.06h-1.27v-11.32h1.27v1.42c.46-.81,1.47-1.54,2.87-1.54Zm-.27,1.11c-1.39,0-2.61,1.06-2.61,2.84s1.22,2.86,2.61,2.86,2.61-1.06,2.61-2.87-1.19-2.83-2.61-2.83Z"/><path d="M52.54,85.69h-1.27v-7.68h1.27v1.25c.43-.85,1.26-1.39,2.48-1.39v1.32h-.34c-1.22,0-2.14,.55-2.14,2.33v4.17Z"/><path d="M56.28,75.9c0-.49,.38-.87,.87-.87,.46,0,.84,.38,.84,.87s-.38,.87-.84,.87c-.49,0-.87-.38-.87-.87Zm.21,2.12h1.27v7.68h-1.27v-7.68Z"/><path d="M71.01,81.35c0-1.57-.84-2.37-2.1-2.37s-2.17,.83-2.17,2.48v4.23h-1.26v-4.34c0-1.57-.84-2.37-2.1-2.37s-2.17,.83-2.17,2.48v4.23h-1.27v-7.68h1.27v1.11c.5-.81,1.41-1.25,2.42-1.25,1.26,0,2.31,.56,2.82,1.71,.45-1.11,1.54-1.71,2.72-1.71,1.75,0,3.11,1.09,3.11,3.29v4.52h-1.26v-4.34Z"/><path d="M77.67,85.82c-2.19,0-3.8-1.54-3.8-3.98s1.55-3.95,3.8-3.95,3.68,1.57,3.68,3.67c0,.28-.01,.5-.04,.77h-6.14c.1,1.55,1.19,2.41,2.49,2.41,1.15,0,1.88-.59,2.16-1.41h1.37c-.39,1.4-1.62,2.49-3.53,2.49Zm-2.48-4.52h4.85c.01-1.5-1.11-2.33-2.42-2.33-1.25,0-2.28,.83-2.42,2.33Z"/><path d="M82.82,75.9c0-.49,.38-.87,.87-.87,.46,0,.84,.38,.84,.87s-.38,.87-.84,.87c-.49,0-.87-.38-.87-.87Zm.21,2.12h1.27v7.68h-1.27v-7.68Z"/><path d="M87.75,85.69h-1.27v-7.68h1.27v1.25c.43-.85,1.26-1.39,2.48-1.39v1.32h-.34c-1.22,0-2.14,.55-2.14,2.33v4.17Z"/><path d="M95.04,85.82c-2.17,0-3.82-1.54-3.82-3.98s1.71-3.95,3.88-3.95,3.88,1.53,3.88,3.95-1.75,3.98-3.94,3.98Zm0-1.12c1.33,0,2.63-.91,2.63-2.86s-1.27-2.84-2.59-2.84-2.56,.91-2.56,2.84,1.19,2.86,2.52,2.86Z"/><path d="M104.18,75.9c0-.49,.38-.87,.87-.87,.46,0,.84,.38,.84,.87s-.38,.87-.84,.87c-.49,0-.87-.38-.87-.87Zm.21,2.12h1.27v7.68h-1.27v-7.68Z"/><path d="M113.45,81.35c0-1.57-.85-2.37-2.14-2.37s-2.2,.81-2.2,2.47v4.24h-1.27v-7.68h1.27v1.09c.5-.8,1.43-1.23,2.47-1.23,1.78,0,3.14,1.09,3.14,3.29v4.52h-1.26v-4.34Z"/><path d="M119.98,77.89c1.2,0,2.31,.62,2.84,1.5v-4.06h1.29v10.37h-1.29v-1.44c-.46,.85-1.46,1.57-2.86,1.57-2.06,0-3.64-1.61-3.64-3.99s1.58-3.94,3.66-3.94Zm.24,1.11c-1.4,0-2.59,1.02-2.59,2.83s1.19,2.87,2.59,2.87,2.61-1.05,2.61-2.86-1.21-2.84-2.61-2.84Z"/><path d="M126.05,75.9c0-.49,.38-.87,.87-.87,.46,0,.84,.38,.84,.87s-.38,.87-.84,.87c-.49,0-.87-.38-.87-.87Zm.21,2.12h1.28v7.68h-1.28v-7.68Z"/><path d="M132.97,77.89c1.9,0,3.15,.98,3.54,2.59h-1.37c-.27-.92-1.04-1.51-2.17-1.51-1.4,0-2.44,.99-2.44,2.87s1.04,2.9,2.44,2.9c1.13,0,1.89-.55,2.17-1.51h1.37c-.39,1.53-1.64,2.59-3.54,2.59-2.19,0-3.74-1.54-3.74-3.98s1.55-3.95,3.74-3.95Z"/><path d="M141.37,77.89c1.43,0,2.41,.73,2.86,1.53v-1.4h1.29v7.68h-1.29v-1.43c-.46,.83-1.46,1.55-2.87,1.55-2.04,0-3.63-1.61-3.63-3.99s1.58-3.94,3.64-3.94Zm.25,1.11c-1.4,0-2.59,1.02-2.59,2.83s1.19,2.87,2.59,2.87,2.61-1.05,2.61-2.86-1.2-2.84-2.61-2.84Z"/><path d="M154.75,85.82c-2.17,0-3.82-1.54-3.82-3.98s1.71-3.95,3.88-3.95,3.88,1.53,3.88,3.95-1.75,3.98-3.94,3.98Zm0-1.12c1.33,0,2.63-.91,2.63-2.86s-1.27-2.84-2.59-2.84-2.56,.91-2.56,2.84,1.19,2.86,2.52,2.86Z"/><path d="M169.72,81.35c0-1.57-.85-2.37-2.14-2.37s-2.2,.81-2.2,2.47v4.24h-1.28v-7.68h1.28v1.09c.5-.8,1.43-1.23,2.46-1.23,1.78,0,3.14,1.09,3.14,3.29v4.52h-1.26v-4.34Z"/><path d="M179.87,85.69h-1.28v-1.13c-.49,.8-1.43,1.25-2.45,1.25-1.76,0-3.15-1.09-3.15-3.29v-4.5h1.26v4.33c0,1.55,.85,2.35,2.14,2.35s2.2-.81,2.2-2.47v-4.22h1.28v7.68Zm-2.03-10.95v1.11l-2.98,1.6v-.95l2.98-1.75Z"/><path d="M193.1,81.35c0-1.57-.84-2.37-2.1-2.37s-2.17,.83-2.17,2.48v4.23h-1.26v-4.34c0-1.57-.84-2.37-2.1-2.37s-2.17,.83-2.17,2.48v4.23h-1.28v-7.68h1.28v1.11c.5-.81,1.41-1.25,2.42-1.25,1.26,0,2.31,.56,2.82,1.71,.45-1.11,1.54-1.71,2.72-1.71,1.75,0,3.11,1.09,3.11,3.29v4.52h-1.26v-4.34Z"/><path d="M199.76,85.82c-2.19,0-3.8-1.54-3.8-3.98s1.55-3.95,3.8-3.95,3.68,1.57,3.68,3.67c0,.28-.01,.5-.04,.77h-6.13c.1,1.55,1.19,2.41,2.49,2.41,1.15,0,1.88-.59,2.16-1.41h1.37c-.39,1.4-1.62,2.49-3.53,2.49Zm-2.48-4.52h4.85c.01-1.5-1.11-2.33-2.42-2.33-1.25,0-2.28,.83-2.42,2.33Z"/><path d="M206.4,85.69h-1.28v-7.68h1.28v1.25c.43-.85,1.26-1.39,2.48-1.39v1.32h-.34c-1.22,0-2.14,.55-2.14,2.33v4.17Z"/><path d="M213.69,85.82c-2.17,0-3.82-1.54-3.82-3.98s1.71-3.95,3.88-3.95,3.88,1.53,3.88,3.95-1.75,3.98-3.94,3.98Zm0-1.12c1.33,0,2.63-.91,2.63-2.86s-1.27-2.84-2.59-2.84-2.56,.91-2.56,2.84,1.19,2.86,2.52,2.86Z"/><path d="M226.22,77.89c1.2,0,2.31,.62,2.84,1.5v-4.06h1.29v10.37h-1.29v-1.44c-.46,.85-1.46,1.57-2.86,1.57-2.06,0-3.64-1.61-3.64-3.99s1.58-3.94,3.66-3.94Zm.24,1.11c-1.4,0-2.59,1.02-2.59,2.83s1.19,2.87,2.59,2.87,2.61-1.05,2.61-2.86-1.2-2.84-2.61-2.84Z"/><path d="M235.83,85.82c-2.19,0-3.8-1.54-3.8-3.98s1.55-3.95,3.8-3.95,3.68,1.57,3.68,3.67c0,.28-.01,.5-.04,.77h-6.13c.1,1.55,1.19,2.41,2.49,2.41,1.15,0,1.88-.59,2.16-1.41h1.37c-.39,1.4-1.62,2.49-3.53,2.49Zm-2.48-4.52h4.85c.01-1.5-1.11-2.33-2.42-2.33-1.25,0-2.28,.83-2.42,2.33Z"/><path d="M30.41,102.62c-2.17,0-3.82-1.54-3.82-3.98s1.71-3.95,3.88-3.95,3.88,1.53,3.88,3.95-1.75,3.98-3.94,3.98Zm0-1.12c1.33,0,2.63-.91,2.63-2.86s-1.27-2.84-2.59-2.84-2.56,.91-2.56,2.84,1.19,2.86,2.52,2.86Zm1.43-10.06v1.11l-2.98,1.6v-.95l2.98-1.75Z"/><path d="M40.17,94.69c2.07,0,3.64,1.54,3.64,3.94s-1.58,3.99-3.64,3.99c-1.4,0-2.4-.7-2.87-1.54v1.41h-1.27v-10.37h1.27v4.12c.49-.85,1.51-1.55,2.87-1.55Zm-.27,1.11c-1.39,0-2.6,1.06-2.6,2.84s1.22,2.86,2.6,2.86,2.61-1.06,2.61-2.87-1.19-2.83-2.61-2.83Z"/><path d="M45.27,92.7c0-.49,.38-.87,.87-.87,.46,0,.84,.38,.84,.87s-.38,.87-.84,.87c-.49,0-.87-.38-.87-.87Zm.21,2.12h1.27v7.68h-1.27v-7.68Z"/><path d="M49.21,95.87h-.99v-1.05h.99v-1.93h1.27v1.93h2v1.05h-2v4.52c0,.76,.28,1.02,1.06,1.02h.94v1.08h-1.15c-1.36,0-2.13-.56-2.13-2.1v-4.52Z"/><path d="M57.37,102.62c-2.17,0-3.82-1.54-3.82-3.98s1.71-3.95,3.88-3.95,3.88,1.53,3.88,3.95-1.75,3.98-3.94,3.98Zm0-1.12c1.33,0,2.63-.91,2.63-2.86s-1.27-2.84-2.59-2.84-2.56,.91-2.56,2.84,1.19,2.86,2.52,2.86Z"/><path d="M65.7,102.62c-1.79,0-3.05-.98-3.14-2.38h1.32c.07,.74,.73,1.3,1.81,1.3,1.01,0,1.57-.5,1.57-1.13,0-1.71-4.54-.71-4.54-3.57,0-1.18,1.11-2.14,2.82-2.14s2.82,.91,2.9,2.41h-1.27c-.06-.77-.64-1.33-1.67-1.33-.94,0-1.5,.45-1.5,1.06,0,1.82,4.45,.83,4.51,3.57,0,1.26-1.11,2.21-2.8,2.21Z"/><path d="M77.21,94.69c1.2,0,2.31,.62,2.84,1.5v-4.06h1.29v10.37h-1.29v-1.44c-.46,.85-1.46,1.57-2.86,1.57-2.06,0-3.64-1.61-3.64-3.99s1.58-3.94,3.66-3.94Zm.24,1.11c-1.4,0-2.59,1.02-2.59,2.83s1.19,2.87,2.59,2.87,2.61-1.05,2.61-2.86-1.21-2.84-2.61-2.84Z"/><path d="M86.81,102.62c-2.19,0-3.8-1.54-3.8-3.98s1.55-3.95,3.8-3.95,3.68,1.57,3.68,3.67c0,.28-.01,.5-.04,.77h-6.14c.1,1.55,1.19,2.41,2.49,2.41,1.15,0,1.88-.59,2.16-1.41h1.37c-.39,1.4-1.62,2.49-3.53,2.49Zm-2.48-4.52h4.85c.01-1.5-1.11-2.33-2.42-2.33-1.25,0-2.28,.83-2.42,2.33Z"/><path d="M99.17,94.69c1.91,0,3.15,.98,3.54,2.59h-1.37c-.27-.92-1.04-1.51-2.17-1.51-1.4,0-2.44,.99-2.44,2.87s1.04,2.9,2.44,2.9c1.13,0,1.89-.55,2.17-1.51h1.37c-.39,1.53-1.64,2.59-3.54,2.59-2.19,0-3.74-1.54-3.74-3.98s1.55-3.95,3.74-3.95Z"/><path d="M105.68,102.49h-1.27v-7.68h1.27v1.25c.43-.85,1.26-1.39,2.48-1.39v1.32h-.34c-1.22,0-2.14,.55-2.14,2.33v4.17Z"/><path d="M109.42,92.7c0-.49,.38-.87,.87-.87,.46,0,.84,.38,.84,.87s-.38,.87-.84,.87c-.49,0-.87-.38-.87-.87Zm.21,2.12h1.27v7.68h-1.27v-7.68Z"/><path d="M116.24,94.69c1.43,0,2.41,.73,2.86,1.53v-1.4h1.29v7.68h-1.29v-1.43c-.46,.83-1.46,1.55-2.87,1.55-2.05,0-3.63-1.61-3.63-3.99s1.58-3.94,3.64-3.94Zm.25,1.11c-1.4,0-2.59,1.02-2.59,2.83s1.19,2.87,2.59,2.87,2.61-1.05,2.61-2.86-1.21-2.84-2.61-2.84Z"/><path d="M128.16,98.15c0-1.57-.85-2.37-2.14-2.37s-2.2,.81-2.2,2.47v4.24h-1.27v-7.68h1.27v1.09c.5-.8,1.43-1.23,2.46-1.23,1.78,0,3.14,1.09,3.14,3.29v4.52h-1.26v-4.34Z"/><path d="M134.76,94.69c1.9,0,3.15,.98,3.54,2.59h-1.37c-.27-.92-1.04-1.51-2.17-1.51-1.4,0-2.44,.99-2.44,2.87s1.04,2.9,2.44,2.9c1.13,0,1.89-.55,2.17-1.51h1.37c-.36,1.41-1.47,2.44-3.15,2.58v.7c1.08-.01,1.81,.46,1.81,1.39s-.71,1.44-1.71,1.44h-1.61v-.83h1.36c.6,0,.9-.17,.9-.62s-.29-.6-.9-.6h-.7v-1.5c-1.93-.2-3.28-1.69-3.28-3.95,0-2.41,1.55-3.95,3.74-3.95Z"/><path d="M143.16,94.69c1.43,0,2.41,.73,2.86,1.53v-1.4h1.29v7.68h-1.29v-1.43c-.46,.83-1.46,1.55-2.87,1.55-2.04,0-3.63-1.61-3.63-3.99s1.58-3.94,3.64-3.94Zm.25,1.11c-1.4,0-2.59,1.02-2.59,2.83s1.19,2.87,2.59,2.87,2.61-1.05,2.61-2.86-1.2-2.84-2.61-2.84Z"/><path d="M152.18,102.62c-1.79,0-3.05-.98-3.14-2.38h1.32c.07,.74,.73,1.3,1.81,1.3,1.01,0,1.57-.5,1.57-1.13,0-1.71-4.54-.71-4.54-3.57,0-1.18,1.11-2.14,2.82-2.14s2.82,.91,2.9,2.41h-1.27c-.06-.77-.64-1.33-1.67-1.33-.94,0-1.5,.45-1.5,1.06,0,1.82,4.46,.83,4.51,3.57,0,1.26-1.11,2.21-2.8,2.21Z"/><path d="M163.67,94.69c1.43,0,2.41,.73,2.86,1.53v-1.4h1.29v7.68h-1.29v-1.43c-.46,.83-1.46,1.55-2.87,1.55-2.04,0-3.63-1.61-3.63-3.99s1.58-3.94,3.64-3.94Zm.25,1.11c-1.4,0-2.59,1.02-2.59,2.83s1.19,2.87,2.59,2.87,2.61-1.05,2.61-2.86-1.2-2.84-2.61-2.84Z"/><path d="M175.59,98.15c0-1.57-.85-2.37-2.14-2.37s-2.2,.81-2.2,2.47v4.24h-1.28v-7.68h1.28v1.09c.5-.8,1.43-1.23,2.46-1.23,1.78,0,3.14,1.09,3.14,3.29v4.52h-1.26v-4.34Z"/><path d="M179.21,95.87h-.99v-1.05h.99v-1.93h1.28v1.93h2v1.05h-2v4.52c0,.76,.28,1.02,1.06,1.02h.94v1.08h-1.15c-1.36,0-2.13-.56-2.13-2.1v-4.52Z"/><path d="M187.35,102.62c-2.19,0-3.8-1.54-3.8-3.98s1.55-3.95,3.8-3.95,3.68,1.57,3.68,3.67c0,.28-.01,.5-.04,.77h-6.13c.1,1.55,1.19,2.41,2.49,2.41,1.15,0,1.88-.59,2.16-1.41h1.37c-.39,1.4-1.62,2.49-3.53,2.49Zm-2.48-4.52h4.85c.01-1.5-1.11-2.33-2.42-2.33-1.25,0-2.28,.83-2.42,2.33Z"/><path d="M195.42,102.62c-1.79,0-3.05-.98-3.14-2.38h1.32c.07,.74,.73,1.3,1.81,1.3,1.01,0,1.57-.5,1.57-1.13,0-1.71-4.54-.71-4.54-3.57,0-1.18,1.11-2.14,2.82-2.14s2.82,.91,2.9,2.41h-1.27c-.06-.77-.64-1.33-1.67-1.33-.94,0-1.5,.45-1.5,1.06,0,1.82,4.46,.83,4.51,3.57,0,1.26-1.11,2.21-2.8,2.21Z"/><path d="M206.93,94.69c1.21,0,2.31,.62,2.84,1.5v-4.06h1.29v10.37h-1.29v-1.44c-.46,.85-1.46,1.57-2.86,1.57-2.06,0-3.64-1.61-3.64-3.99s1.58-3.94,3.66-3.94Zm.24,1.11c-1.4,0-2.59,1.02-2.59,2.83s1.19,2.87,2.59,2.87,2.61-1.05,2.61-2.86-1.2-2.84-2.61-2.84Z"/><path d="M216.54,102.62c-2.19,0-3.8-1.54-3.8-3.98s1.55-3.95,3.8-3.95,3.68,1.57,3.68,3.67c0,.28-.01,.5-.04,.77h-6.13c.1,1.55,1.19,2.41,2.49,2.41,1.15,0,1.88-.59,2.16-1.41h1.37c-.39,1.4-1.62,2.49-3.53,2.49Zm-2.48-4.52h4.85c.01-1.5-1.11-2.33-2.42-2.33-1.25,0-2.28,.83-2.42,2.33Z"/><path d="M30.32,111.49c1.91,0,3.15,.98,3.54,2.59h-1.37c-.27-.92-1.04-1.51-2.17-1.51-1.4,0-2.44,.99-2.44,2.87s1.04,2.9,2.44,2.9c1.13,0,1.89-.55,2.17-1.51h1.37c-.39,1.53-1.64,2.59-3.54,2.59-2.19,0-3.74-1.54-3.74-3.98s1.55-3.95,3.74-3.95Z"/><path d="M38.91,119.42c-2.17,0-3.82-1.54-3.82-3.98s1.71-3.95,3.88-3.95,3.88,1.53,3.88,3.95-1.75,3.98-3.94,3.98Zm0-1.12c1.33,0,2.63-.91,2.63-2.86s-1.27-2.84-2.59-2.84-2.56,.91-2.56,2.84,1.19,2.86,2.52,2.86Z"/><path d="M55.6,114.95c0-1.57-.84-2.37-2.1-2.37s-2.17,.83-2.17,2.48v4.23h-1.26v-4.34c0-1.57-.84-2.37-2.1-2.37s-2.17,.83-2.17,2.48v4.23h-1.27v-7.68h1.27v1.11c.5-.81,1.41-1.25,2.42-1.25,1.26,0,2.31,.56,2.82,1.71,.45-1.11,1.54-1.71,2.72-1.71,1.75,0,3.11,1.09,3.11,3.29v4.52h-1.26v-4.34Z"/><path d="M63.08,111.49c2.06,0,3.64,1.54,3.64,3.94s-1.58,3.99-3.64,3.99c-1.4,0-2.4-.76-2.87-1.54v5.06h-1.27v-11.32h1.27v1.42c.46-.81,1.47-1.54,2.87-1.54Zm-.27,1.11c-1.39,0-2.6,1.06-2.6,2.84s1.22,2.86,2.6,2.86,2.61-1.06,2.61-2.87-1.19-2.83-2.61-2.83Z"/><path d="M68.4,108.93h1.27v10.37h-1.27v-10.37Z"/><path d="M75.17,119.42c-2.19,0-3.8-1.54-3.8-3.98s1.55-3.95,3.8-3.95,3.68,1.57,3.68,3.67c0,.28-.01,.5-.04,.77h-6.14c.1,1.55,1.19,2.41,2.49,2.41,1.15,0,1.88-.59,2.16-1.41h1.37c-.39,1.4-1.62,2.49-3.53,2.49Zm-2.48-4.52h4.85c.01-1.5-1.11-2.33-2.42-2.33-1.25,0-2.28,.83-2.42,2.33Z"/><path d="M80.81,112.67h-.99v-1.05h.99v-1.93h1.27v1.93h2v1.05h-2v4.52c0,.76,.28,1.02,1.06,1.02h.94v1.08h-1.15c-1.36,0-2.13-.56-2.13-2.1v-4.52Z"/><path d="M88.79,111.49c1.43,0,2.41,.73,2.86,1.53v-1.4h1.29v7.68h-1.29v-1.43c-.46,.83-1.46,1.55-2.87,1.55-2.05,0-3.63-1.61-3.63-3.99s1.58-3.94,3.64-3.94Zm.25,1.11c-1.4,0-2.59,1.02-2.59,2.83s1.19,2.87,2.59,2.87,2.61-1.05,2.61-2.86-1.21-2.84-2.61-2.84Z"/><path d="M96.36,119.29h-1.27v-7.68h1.27v1.25c.43-.85,1.26-1.39,2.48-1.39v1.32h-.34c-1.22,0-2.14,.55-2.14,2.33v4.17Z"/><path d="M104.84,110.33h-1.34v-1.16h2.63v10.13h-1.29v-8.96Z"/><path d="M115.43,111.49c1.43,0,2.41,.73,2.86,1.53v-1.4h1.29v7.68h-1.29v-1.43c-.46,.83-1.46,1.55-2.87,1.55-2.05,0-3.63-1.61-3.63-3.99s1.58-3.94,3.64-3.94Zm.25,1.11c-1.4,0-2.59,1.02-2.59,2.83s1.19,2.87,2.59,2.87,2.61-1.05,2.61-2.86-1.21-2.84-2.61-2.84Z"/><path d="M127.34,114.95c0-1.57-.85-2.37-2.14-2.37s-2.2,.81-2.2,2.47v4.24h-1.27v-7.68h1.27v1.09c.5-.8,1.43-1.23,2.46-1.23,1.78,0,3.14,1.09,3.14,3.29v4.52h-1.26v-4.34Z"/><path d="M134.04,119.42c-2.17,0-3.82-1.54-3.82-3.98s1.71-3.95,3.88-3.95,3.88,1.53,3.88,3.95-1.75,3.98-3.94,3.98Zm0-1.12c1.33,0,2.63-.91,2.63-2.86s-1.27-2.84-2.59-2.84-2.56,.91-2.56,2.84,1.19,2.86,2.52,2.86Z"/><path d="M146.57,111.49c1.2,0,2.31,.62,2.84,1.5v-4.06h1.29v10.37h-1.29v-1.44c-.46,.85-1.46,1.57-2.86,1.57-2.06,0-3.64-1.61-3.64-3.99s1.58-3.94,3.66-3.94Zm.24,1.11c-1.4,0-2.59,1.02-2.59,2.83s1.19,2.87,2.59,2.87,2.61-1.05,2.61-2.86-1.2-2.84-2.61-2.84Z"/><path d="M156.17,119.42c-2.19,0-3.8-1.54-3.8-3.98s1.55-3.95,3.8-3.95,3.68,1.57,3.68,3.67c0,.28-.01,.5-.04,.77h-6.13c.1,1.55,1.19,2.41,2.49,2.41,1.15,0,1.88-.59,2.16-1.41h1.37c-.39,1.4-1.62,2.49-3.53,2.49Zm-2.48-4.52h4.85c.01-1.5-1.11-2.33-2.42-2.33-1.25,0-2.28,.83-2.42,2.33Z"/><path d="M165.06,109.5c0-.49,.38-.87,.87-.87,.46,0,.84,.38,.84,.87s-.38,.87-.84,.87c-.49,0-.87-.38-.87-.87Zm.21,2.12h1.28v7.68h-1.28v-7.68Z"/><path d="M171.89,111.49c1.21,0,2.31,.62,2.84,1.5v-4.06h1.29v10.37h-1.29v-1.44c-.46,.85-1.46,1.57-2.86,1.57-2.06,0-3.64-1.61-3.64-3.99s1.58-3.94,3.66-3.94Zm.24,1.11c-1.4,0-2.59,1.02-2.59,2.83s1.19,2.87,2.59,2.87,2.61-1.05,2.61-2.86-1.2-2.84-2.61-2.84Z"/><path d="M181.34,111.49c1.43,0,2.41,.73,2.86,1.53v-1.4h1.29v7.68h-1.29v-1.43c-.46,.83-1.46,1.55-2.87,1.55-2.04,0-3.63-1.61-3.63-3.99s1.58-3.94,3.64-3.94Zm.25,1.11c-1.4,0-2.59,1.02-2.59,2.83s1.19,2.87,2.59,2.87,2.61-1.05,2.61-2.86-1.2-2.84-2.61-2.84Z"/><path d="M190.82,111.49c1.21,0,2.31,.62,2.84,1.5v-4.06h1.29v10.37h-1.29v-1.44c-.46,.85-1.46,1.57-2.86,1.57-2.06,0-3.64-1.61-3.64-3.99s1.58-3.94,3.66-3.94Zm.24,1.11c-1.4,0-2.59,1.02-2.59,2.83s1.19,2.87,2.59,2.87,2.61-1.05,2.61-2.86-1.2-2.84-2.61-2.84Z"/><path d="M200.42,119.42c-2.19,0-3.8-1.54-3.8-3.98s1.55-3.95,3.8-3.95,3.68,1.57,3.68,3.67c0,.28-.01,.5-.04,.77h-6.13c.1,1.55,1.19,2.41,2.49,2.41,1.15,0,1.88-.59,2.16-1.41h1.37c-.39,1.4-1.62,2.49-3.53,2.49Zm-2.48-4.52h4.85c.01-1.5-1.11-2.33-2.42-2.33-1.25,0-2.28,.83-2.42,2.33Z"/><path d="M212.69,111.49c1.43,0,2.41,.73,2.86,1.53v-1.4h1.29v7.68h-1.29v-1.43c-.46,.83-1.46,1.55-2.87,1.55-2.04,0-3.63-1.61-3.63-3.99s1.58-3.94,3.64-3.94Zm.25,1.11c-1.4,0-2.59,1.02-2.59,2.83s1.19,2.87,2.59,2.87,2.61-1.05,2.61-2.86-1.2-2.84-2.61-2.84Z"/><path d="M225.99,111.49c1.9,0,3.15,.98,3.54,2.59h-1.37c-.27-.92-1.04-1.51-2.17-1.51-1.4,0-2.44,.99-2.44,2.87s1.04,2.9,2.44,2.9c1.13,0,1.89-.55,2.17-1.51h1.37c-.39,1.53-1.64,2.59-3.54,2.59-2.19,0-3.74-1.54-3.74-3.98s1.55-3.95,3.74-3.95Z"/><path d="M234.39,111.49c1.43,0,2.41,.73,2.86,1.53v-1.4h1.29v7.68h-1.29v-1.43c-.46,.83-1.46,1.55-2.87,1.55-2.04,0-3.63-1.61-3.63-3.99s1.58-3.94,3.64-3.94Zm.25,1.11c-1.4,0-2.59,1.02-2.59,2.83s1.19,2.87,2.59,2.87,2.61-1.05,2.61-2.86-1.2-2.84-2.61-2.84Z"/><path d="M243.86,111.49c1.2,0,2.31,.62,2.84,1.5v-4.06h1.29v10.37h-1.29v-1.44c-.46,.85-1.46,1.57-2.86,1.57-2.06,0-3.64-1.61-3.64-3.99s1.58-3.94,3.66-3.94Zm.24,1.11c-1.4,0-2.59,1.02-2.59,2.83s1.19,2.87,2.59,2.87,2.61-1.05,2.61-2.86-1.2-2.84-2.61-2.84Z"/><path d="M253.31,111.49c1.43,0,2.41,.73,2.86,1.53v-1.4h1.29v7.68h-1.29v-1.43c-.46,.83-1.46,1.55-2.87,1.55-2.04,0-3.63-1.61-3.63-3.99s1.58-3.94,3.64-3.94Zm.25,1.11c-1.4,0-2.59,1.02-2.59,2.83s1.19,2.87,2.59,2.87,2.61-1.05,2.61-2.86-1.2-2.84-2.61-2.84Z"/><path d="M27.86,127.13h-1.34v-1.16h2.63v10.13h-1.29v-8.96Z"/><path d="M34.86,125.81c2.79,0,3.52,2.21,3.52,5.11s-.73,5.17-3.52,5.17-3.53-2.23-3.53-5.17,.73-5.11,3.53-5.11Zm0,1.16c-2,0-2.27,1.85-2.27,3.95s.27,4.01,2.27,4.01,2.26-1.82,2.26-4.01-.27-3.95-2.26-3.95Z"/><path d="M43.65,125.81c2.79,0,3.52,2.21,3.52,5.11s-.73,5.17-3.52,5.17-3.53-2.23-3.53-5.17,.73-5.11,3.53-5.11Zm0,1.16c-2,0-2.27,1.85-2.27,3.95s.27,4.01,2.27,4.01,2.26-1.82,2.26-4.01-.27-3.95-2.26-3.95Z"/><path d="M63.94,131.75c0-1.57-.84-2.37-2.1-2.37s-2.17,.83-2.17,2.48v4.23h-1.26v-4.34c0-1.57-.84-2.37-2.1-2.37s-2.17,.83-2.17,2.48v4.23h-1.27v-7.68h1.27v1.11c.5-.81,1.41-1.25,2.42-1.25,1.26,0,2.31,.56,2.82,1.71,.45-1.11,1.54-1.71,2.72-1.71,1.75,0,3.11,1.09,3.11,3.29v4.52h-1.26v-4.34Z"/><path d="M67.07,126.3c0-.49,.38-.87,.87-.87,.46,0,.84,.38,.84,.87s-.38,.87-.84,.87c-.49,0-.87-.38-.87-.87Zm.21,2.12h1.27v7.68h-1.27v-7.68Z"/><path d="M70.73,125.73h1.27v10.37h-1.27v-10.37Z"/><path d="M83.52,131.75c0-1.57-.85-2.37-2.14-2.37s-2.2,.81-2.2,2.46v4.24h-1.27v-7.68h1.27v1.09c.5-.8,1.43-1.23,2.47-1.23,1.78,0,3.14,1.09,3.14,3.29v4.52h-1.26v-4.34Z"/><path d="M90.03,128.29c1.43,0,2.41,.73,2.86,1.53v-1.4h1.29v7.68h-1.29v-1.43c-.46,.83-1.46,1.55-2.87,1.55-2.05,0-3.63-1.61-3.63-3.99s1.58-3.94,3.64-3.94Zm.25,1.11c-1.4,0-2.59,1.02-2.59,2.83s1.19,2.87,2.59,2.87,2.61-1.05,2.61-2.86-1.21-2.84-2.61-2.84Z"/><path d="M99.05,136.22c-1.79,0-3.05-.98-3.14-2.38h1.32c.07,.74,.73,1.3,1.81,1.3,1.01,0,1.57-.5,1.57-1.13,0-1.71-4.54-.71-4.54-3.57,0-1.18,1.11-2.14,2.82-2.14s2.82,.91,2.9,2.41h-1.27c-.06-.77-.64-1.33-1.67-1.33-.94,0-1.5,.45-1.5,1.06,0,1.82,4.45,.83,4.51,3.57,0,1.26-1.11,2.21-2.8,2.21Z"/><path d="M106.9,128.29c1.91,0,3.15,.98,3.54,2.59h-1.37c-.27-.92-1.04-1.51-2.17-1.51-1.4,0-2.44,1-2.44,2.87s1.04,2.9,2.44,2.9c1.13,0,1.89-.55,2.17-1.51h1.37c-.39,1.53-1.64,2.59-3.54,2.59-2.19,0-3.74-1.54-3.74-3.98s1.55-3.95,3.74-3.95Z"/><path d="M111.93,126.3c0-.49,.38-.87,.87-.87,.46,0,.84,.38,.84,.87s-.38,.87-.84,.87c-.49,0-.87-.38-.87-.87Zm.21,2.12h1.27v7.68h-1.27v-7.68Z"/><path d="M118.76,128.29c1.2,0,2.31,.62,2.84,1.5v-4.06h1.29v10.37h-1.29v-1.44c-.46,.85-1.46,1.57-2.86,1.57-2.06,0-3.64-1.61-3.64-3.99s1.58-3.94,3.66-3.94Zm.24,1.11c-1.4,0-2.59,1.02-2.59,2.83s1.19,2.87,2.59,2.87,2.61-1.05,2.61-2.86-1.21-2.84-2.61-2.84Z"/><path d="M128.21,128.29c1.43,0,2.41,.73,2.86,1.53v-1.4h1.29v7.68h-1.29v-1.43c-.46,.83-1.46,1.55-2.87,1.55-2.04,0-3.63-1.61-3.63-3.99s1.58-3.94,3.64-3.94Zm.25,1.11c-1.4,0-2.59,1.02-2.59,2.83s1.19,2.87,2.59,2.87,2.61-1.05,2.61-2.86-1.2-2.84-2.61-2.84Z"/><path d="M137.23,136.22c-1.79,0-3.05-.98-3.14-2.38h1.32c.07,.74,.73,1.3,1.81,1.3,1.01,0,1.57-.5,1.57-1.13,0-1.71-4.54-.71-4.54-3.57,0-1.18,1.11-2.14,2.82-2.14s2.82,.91,2.9,2.41h-1.27c-.06-.77-.64-1.33-1.67-1.33-.94,0-1.5,.45-1.5,1.06,0,1.82,4.46,.83,4.51,3.57,0,1.26-1.11,2.21-2.8,2.21Z"/><path d="M146.02,128.42l2.4,6.5,2.38-6.5h1.36l-3.01,7.68h-1.48l-3.01-7.68h1.37Z"/><path d="M153.2,126.3c0-.49,.38-.87,.87-.87,.46,0,.84,.38,.84,.87s-.38,.87-.84,.87c-.49,0-.87-.38-.87-.87Zm.21,2.12h1.28v7.68h-1.28v-7.68Z"/><path d="M157.31,128.42l2.4,6.5,2.38-6.5h1.36l-3.01,7.68h-1.48l-3.01-7.68h1.37Z"/><path d="M167.87,128.29c1.43,0,2.41,.73,2.86,1.53v-1.4h1.29v7.68h-1.29v-1.43c-.46,.83-1.46,1.55-2.87,1.55-2.04,0-3.63-1.61-3.63-3.99s1.58-3.94,3.64-3.94Zm.25,1.11c-1.4,0-2.59,1.02-2.59,2.83s1.19,2.87,2.59,2.87,2.61-1.05,2.61-2.86-1.2-2.84-2.61-2.84Z"/><path d="M176.89,136.22c-1.79,0-3.05-.98-3.14-2.38h1.32c.07,.74,.73,1.3,1.81,1.3,1.01,0,1.57-.5,1.57-1.13,0-1.71-4.54-.71-4.54-3.57,0-1.18,1.11-2.14,2.82-2.14s2.82,.91,2.9,2.41h-1.27c-.06-.77-.64-1.33-1.67-1.33-.94,0-1.5,.45-1.5,1.06,0,1.82,4.46,.83,4.51,3.57,0,1.26-1.11,2.21-2.8,2.21Z"/><path d="M181.88,136.18c-.49,0-.87-.38-.87-.87s.38-.87,.87-.87c.46,0,.84,.38,.84,.87s-.38,.87-.84,.87Z"/><path d="M192.58,136.19c-2.75,0-4.9-2.06-4.9-4.99s2.16-4.99,4.9-4.99,4.9,2.06,4.9,4.99-2.14,4.99-4.9,4.99Zm0-1.11c2.06,0,3.6-1.5,3.6-3.88s-1.54-3.88-3.6-3.88-3.6,1.48-3.6,3.88,1.54,3.88,3.6,3.88Z"/><path d="M205.61,136.22c-1.79,0-3.05-.98-3.14-2.38h1.32c.07,.74,.73,1.3,1.81,1.3,1.01,0,1.57-.5,1.57-1.13,0-1.71-4.54-.71-4.54-3.57,0-1.18,1.11-2.14,2.82-2.14s2.82,.91,2.9,2.41h-1.27c-.06-.77-.64-1.33-1.67-1.33-.94,0-1.5,.45-1.5,1.06,0,1.82,4.46,.83,4.51,3.57,0,1.26-1.11,2.21-2.8,2.21Z"/><path d="M213.52,136.22c-2.19,0-3.8-1.54-3.8-3.98s1.55-3.95,3.8-3.95,3.68,1.57,3.68,3.67c0,.28-.01,.5-.04,.77h-6.13c.1,1.55,1.19,2.41,2.49,2.41,1.15,0,1.88-.59,2.16-1.42h1.37c-.39,1.4-1.62,2.49-3.53,2.49Zm-2.48-4.52h4.85c.01-1.5-1.11-2.33-2.42-2.33-1.25,0-2.28,.83-2.42,2.33Z"/><path d="M222.05,128.29c1.4,0,2.41,.7,2.86,1.53v-1.4h1.29v7.84c0,2.12-1.42,3.61-3.67,3.61-2.02,0-3.46-1.02-3.71-2.66h1.26c.28,.92,1.19,1.55,2.45,1.55,1.36,0,2.38-.87,2.38-2.51v-1.61c-.46,.83-1.46,1.57-2.86,1.57-2.06,0-3.64-1.61-3.64-3.99s1.58-3.94,3.64-3.94Zm.25,1.11c-1.4,0-2.59,1.02-2.59,2.83s1.19,2.87,2.59,2.87,2.61-1.05,2.61-2.86-1.2-2.84-2.61-2.84Z"/><path d="M235.16,136.09h-1.28v-1.13c-.49,.8-1.43,1.25-2.45,1.25-1.76,0-3.15-1.09-3.15-3.29v-4.5h1.26v4.33c0,1.55,.85,2.35,2.14,2.35s2.2-.81,2.2-2.47v-4.22h1.28v7.68Z"/><path d="M242.92,131.75c0-1.57-.85-2.37-2.14-2.37s-2.2,.81-2.2,2.46v4.24h-1.28v-7.68h1.28v1.09c.5-.8,1.43-1.23,2.46-1.23,1.78,0,3.14,1.09,3.14,3.29v4.52h-1.26v-4.34Z"/><path d="M249.45,128.29c1.21,0,2.31,.62,2.84,1.5v-4.06h1.29v10.37h-1.29v-1.44c-.46,.85-1.46,1.57-2.86,1.57-2.06,0-3.64-1.61-3.64-3.99s1.58-3.94,3.66-3.94Zm.24,1.11c-1.4,0-2.59,1.02-2.59,2.83s1.19,2.87,2.59,2.87,2.61-1.05,2.61-2.86-1.2-2.84-2.61-2.84Z"/><path d="M259.08,136.22c-2.17,0-3.82-1.54-3.82-3.98s1.71-3.95,3.88-3.95,3.88,1.53,3.88,3.95-1.75,3.98-3.94,3.98Zm0-1.12c1.33,0,2.63-.91,2.63-2.86s-1.27-2.84-2.59-2.84-2.56,.91-2.56,2.84,1.19,2.86,2.52,2.86Z"/><path d="M26.85,143.1c0-.49,.38-.87,.87-.87,.46,0,.84,.38,.84,.87s-.38,.87-.84,.87c-.49,0-.87-.38-.87-.87Zm.21,2.12h1.27v7.68h-1.27v-7.68Z"/><path d="M36.12,148.55c0-1.57-.85-2.37-2.14-2.37s-2.2,.81-2.2,2.47v4.24h-1.27v-7.68h1.27v1.09c.5-.8,1.43-1.23,2.47-1.23,1.78,0,3.14,1.09,3.14,3.29v4.52h-1.26v-4.34Z"/><path d="M42.64,145.09c1.2,0,2.31,.62,2.84,1.5v-4.06h1.29v10.37h-1.29v-1.44c-.46,.85-1.46,1.57-2.86,1.57-2.06,0-3.64-1.61-3.64-3.99s1.58-3.94,3.66-3.94Zm.24,1.11c-1.4,0-2.59,1.02-2.59,2.83s1.19,2.87,2.59,2.87,2.61-1.05,2.61-2.86-1.21-2.84-2.61-2.84Z"/><path d="M48.72,143.1c0-.49,.38-.87,.87-.87,.46,0,.84,.38,.84,.87s-.38,.87-.84,.87c-.49,0-.87-.38-.87-.87Zm.21,2.12h1.27v7.68h-1.27v-7.68Z"/><path d="M55.64,145.09c1.91,0,3.15,.98,3.54,2.59h-1.37c-.27-.92-1.04-1.51-2.17-1.51-1.4,0-2.44,.99-2.44,2.87s1.04,2.9,2.44,2.9c1.13,0,1.89-.55,2.17-1.51h1.37c-.39,1.53-1.64,2.59-3.54,2.59-2.19,0-3.74-1.54-3.74-3.98s1.55-3.95,3.74-3.95Z"/><path d="M64.04,145.09c1.43,0,2.41,.73,2.86,1.53v-1.4h1.29v7.68h-1.29v-1.43c-.46,.83-1.46,1.55-2.87,1.55-2.05,0-3.63-1.61-3.63-3.99s1.58-3.94,3.64-3.94Zm.25,1.11c-1.4,0-2.59,1.02-2.59,2.83s1.19,2.87,2.59,2.87,2.61-1.05,2.61-2.86-1.21-2.84-2.61-2.84Z"/><path d="M77.42,153.02c-2.17,0-3.82-1.54-3.82-3.98s1.71-3.95,3.88-3.95,3.88,1.53,3.88,3.95-1.75,3.98-3.94,3.98Zm0-1.12c1.33,0,2.63-.91,2.63-2.86s-1.27-2.84-2.59-2.84-2.56,.91-2.56,2.84,1.19,2.86,2.52,2.86Z"/><path d="M92.39,148.55c0-1.57-.85-2.37-2.14-2.37s-2.2,.81-2.2,2.47v4.24h-1.27v-7.68h1.27v1.09c.5-.8,1.43-1.23,2.46-1.23,1.78,0,3.14,1.09,3.14,3.29v4.52h-1.26v-4.34Z"/><path d="M102.54,152.89h-1.27v-1.13c-.49,.8-1.43,1.25-2.45,1.25-1.76,0-3.15-1.09-3.15-3.29v-4.5h1.26v4.33c0,1.55,.85,2.35,2.14,2.35s2.2-.81,2.2-2.46v-4.22h1.27v7.68Zm-2.03-10.95v1.11l-2.98,1.6v-.95l2.98-1.75Z"/><path d="M115.77,148.55c0-1.57-.84-2.37-2.1-2.37s-2.17,.83-2.17,2.48v4.23h-1.26v-4.34c0-1.57-.84-2.37-2.1-2.37s-2.17,.83-2.17,2.48v4.23h-1.27v-7.68h1.27v1.11c.5-.81,1.41-1.25,2.42-1.25,1.26,0,2.31,.56,2.82,1.71,.45-1.11,1.54-1.71,2.72-1.71,1.75,0,3.11,1.09,3.11,3.29v4.52h-1.26v-4.34Z"/><path d="M122.43,153.02c-2.19,0-3.8-1.54-3.8-3.98s1.55-3.95,3.8-3.95,3.68,1.57,3.68,3.67c0,.28-.01,.5-.04,.77h-6.13c.1,1.55,1.19,2.41,2.49,2.41,1.15,0,1.88-.59,2.16-1.41h1.37c-.39,1.4-1.62,2.49-3.53,2.49Zm-2.48-4.52h4.85c.01-1.5-1.11-2.33-2.42-2.33-1.25,0-2.28,.83-2.42,2.33Z"/><path d="M129.06,152.89h-1.28v-7.68h1.28v1.25c.43-.85,1.26-1.39,2.48-1.39v1.32h-.34c-1.22,0-2.14,.55-2.14,2.33v4.17Z"/><path d="M136.36,153.02c-2.17,0-3.82-1.54-3.82-3.98s1.71-3.95,3.88-3.95,3.88,1.53,3.88,3.95-1.75,3.98-3.94,3.98Zm0-1.12c1.33,0,2.63-.91,2.63-2.86s-1.27-2.84-2.59-2.84-2.56,.91-2.56,2.84,1.19,2.86,2.52,2.86Z"/><path d="M148.89,145.09c1.21,0,2.31,.62,2.84,1.5v-4.06h1.29v10.37h-1.29v-1.44c-.46,.85-1.46,1.57-2.86,1.57-2.06,0-3.64-1.61-3.64-3.99s1.58-3.94,3.66-3.94Zm.24,1.11c-1.4,0-2.59,1.02-2.59,2.83s1.19,2.87,2.59,2.87,2.61-1.05,2.61-2.86-1.2-2.84-2.61-2.84Z"/><path d="M158.49,153.02c-2.19,0-3.8-1.54-3.8-3.98s1.55-3.95,3.8-3.95,3.68,1.57,3.68,3.67c0,.28-.01,.5-.04,.77h-6.13c.1,1.55,1.19,2.41,2.49,2.41,1.15,0,1.88-.59,2.16-1.41h1.37c-.39,1.4-1.62,2.49-3.53,2.49Zm-2.48-4.52h4.85c.01-1.5-1.11-2.33-2.42-2.33-1.25,0-2.28,.83-2.42,2.33Z"/><path d="M170.85,145.09c1.9,0,3.15,.98,3.54,2.59h-1.37c-.27-.92-1.04-1.51-2.17-1.51-1.4,0-2.44,.99-2.44,2.87s1.04,2.9,2.44,2.9c1.13,0,1.89-.55,2.17-1.51h1.37c-.39,1.53-1.64,2.59-3.54,2.59-2.19,0-3.74-1.54-3.74-3.98s1.55-3.95,3.74-3.95Z"/><path d="M179.44,153.02c-2.17,0-3.82-1.54-3.82-3.98s1.71-3.95,3.88-3.95,3.88,1.53,3.88,3.95-1.75,3.98-3.94,3.98Zm0-1.12c1.33,0,2.63-.91,2.63-2.86s-1.27-2.84-2.59-2.84-2.56,.91-2.56,2.84,1.19,2.86,2.52,2.86Z"/><path d="M190.67,148.55c0-1.57-.85-2.37-2.14-2.37s-2.2,.81-2.2,2.47v4.24h-1.28v-7.68h1.28v1.09c.5-.8,1.43-1.23,2.46-1.23,1.78,0,3.14,1.09,3.14,3.29v4.52h-1.26v-4.34Z"/><path d="M196.73,153.02c-1.79,0-3.05-.98-3.14-2.38h1.32c.07,.74,.73,1.3,1.81,1.3,1.01,0,1.57-.5,1.57-1.13,0-1.71-4.54-.71-4.54-3.57,0-1.18,1.11-2.14,2.82-2.14s2.82,.91,2.9,2.41h-1.27c-.06-.77-.64-1.33-1.67-1.33-.94,0-1.5,.45-1.5,1.06,0,1.82,4.46,.83,4.51,3.57,0,1.26-1.11,2.21-2.8,2.21Z"/><path d="M208.12,152.89h-1.28v-1.13c-.49,.8-1.43,1.25-2.45,1.25-1.76,0-3.15-1.09-3.15-3.29v-4.5h1.26v4.33c0,1.55,.85,2.35,2.14,2.35s2.2-.81,2.2-2.46v-4.22h1.28v7.68Z"/><path d="M210.28,142.53h1.28v10.37h-1.28v-10.37Z"/><path d="M214,146.27h-.99v-1.05h.99v-1.93h1.28v1.93h2v1.05h-2v4.52c0,.76,.28,1.02,1.06,1.02h.94v1.08h-1.15c-1.36,0-2.13-.56-2.13-2.1v-4.52Z"/><path d="M221.98,145.09c1.43,0,2.41,.73,2.86,1.53v-1.4h1.29v7.68h-1.29v-1.43c-.46,.83-1.46,1.55-2.87,1.55-2.04,0-3.63-1.61-3.63-3.99s1.58-3.94,3.64-3.94Zm.25,1.11c-1.4,0-2.59,1.02-2.59,2.83s1.19,2.87,2.59,2.87,2.61-1.05,2.61-2.86-1.2-2.84-2.61-2.84Z"/><path d="M231,153.02c-1.79,0-3.05-.98-3.14-2.38h1.32c.07,.74,.73,1.3,1.81,1.3,1.01,0,1.57-.5,1.57-1.13,0-1.71-4.54-.71-4.54-3.57,0-1.18,1.11-2.14,2.82-2.14s2.82,.91,2.9,2.41h-1.27c-.06-.77-.64-1.33-1.67-1.33-.94,0-1.5,.45-1.5,1.06,0,1.82,4.46,.83,4.51,3.57,0,1.26-1.11,2.21-2.8,2.21Z"/><path d="M242.51,145.09c1.2,0,2.31,.62,2.84,1.5v-4.06h1.29v10.37h-1.29v-1.44c-.46,.85-1.46,1.57-2.86,1.57-2.06,0-3.64-1.61-3.64-3.99s1.58-3.94,3.66-3.94Zm.24,1.11c-1.4,0-2.59,1.02-2.59,2.83s1.19,2.87,2.59,2.87,2.61-1.05,2.61-2.86-1.2-2.84-2.61-2.84Z"/><path d="M252.11,153.02c-2.19,0-3.8-1.54-3.8-3.98s1.55-3.95,3.8-3.95,3.68,1.57,3.68,3.67c0,.28-.01,.5-.04,.77h-6.13c.1,1.55,1.19,2.41,2.49,2.41,1.15,0,1.88-.59,2.16-1.41h1.37c-.39,1.4-1.62,2.49-3.53,2.49Zm-2.48-4.52h4.85c.01-1.5-1.11-2.33-2.42-2.33-1.25,0-2.28,.83-2.42,2.33Z"/><path d="M31.21,161.89c2.06,0,3.64,1.54,3.64,3.94s-1.58,3.99-3.64,3.99c-1.4,0-2.4-.76-2.87-1.54v5.06h-1.27v-11.32h1.27v1.42c.46-.81,1.47-1.54,2.87-1.54Zm-.27,1.11c-1.39,0-2.6,1.07-2.6,2.84s1.22,2.86,2.6,2.86,2.61-1.06,2.61-2.87-1.19-2.83-2.61-2.83Z"/><path d="M37.8,169.69h-1.27v-7.68h1.27v1.25c.43-.85,1.26-1.39,2.48-1.39v1.32h-.34c-1.22,0-2.14,.55-2.14,2.33v4.17Z"/><path d="M45.07,169.82c-2.19,0-3.8-1.54-3.8-3.98s1.55-3.95,3.8-3.95,3.68,1.57,3.68,3.67c0,.28-.01,.5-.04,.77h-6.14c.1,1.55,1.19,2.41,2.49,2.41,1.15,0,1.88-.59,2.16-1.41h1.37c-.39,1.4-1.62,2.49-3.53,2.49Zm-2.48-4.52h4.85c.01-1.5-1.11-2.33-2.42-2.33-1.25,0-2.28,.83-2.42,2.33Zm3.8-6.56v1.11l-2.98,1.6v-.95l2.98-1.75Z"/><path d="M50.16,164.02h5.59v1.08h-5.59v-1.08Z"/><path d="M63.76,165.35c0-1.57-.85-2.37-2.14-2.37s-2.2,.81-2.2,2.47v4.24h-1.27v-7.68h1.27v1.09c.5-.8,1.43-1.23,2.46-1.23,1.78,0,3.14,1.09,3.14,3.29v4.52h-1.26v-4.34Z"/><path d="M70.26,161.89c1.43,0,2.41,.73,2.86,1.53v-1.4h1.29v7.68h-1.29v-1.43c-.46,.83-1.46,1.55-2.87,1.55-2.05,0-3.63-1.61-3.63-3.99s1.58-3.94,3.64-3.94Zm.25,1.11c-1.4,0-2.59,1.02-2.59,2.83s1.19,2.87,2.59,2.87,2.61-1.05,2.61-2.86-1.21-2.84-2.61-2.84Z"/><path d="M76.84,163.07h-.99v-1.05h.99v-1.93h1.27v1.93h2v1.05h-2v4.52c0,.76,.28,1.02,1.06,1.02h.94v1.08h-1.15c-1.36,0-2.13-.56-2.13-2.1v-4.52Z"/><path d="M84.82,161.89c1.43,0,2.41,.73,2.86,1.53v-1.4h1.29v7.68h-1.29v-1.43c-.46,.83-1.46,1.55-2.87,1.55-2.05,0-3.63-1.61-3.63-3.99s1.58-3.94,3.64-3.94Zm.25,1.11c-1.4,0-2.59,1.02-2.59,2.83s1.19,2.87,2.59,2.87,2.61-1.05,2.61-2.86-1.21-2.84-2.61-2.84Z"/><path d="M91.12,159.33h1.27v10.37h-1.27v-10.37Z"/><path d="M99.58,169.69h-1.27v-7.68h1.27v1.25c.43-.85,1.26-1.39,2.48-1.39v1.32h-.34c-1.22,0-2.14,.55-2.14,2.33v4.17Z"/><path d="M106.85,169.82c-2.19,0-3.8-1.54-3.8-3.98s1.55-3.95,3.8-3.95,3.68,1.57,3.68,3.67c0,.28-.01,.5-.04,.77h-6.14c.1,1.55,1.19,2.41,2.49,2.41,1.15,0,1.88-.59,2.16-1.41h1.37c-.39,1.4-1.62,2.49-3.53,2.49Zm-2.48-4.52h4.85c.01-1.5-1.11-2.33-2.42-2.33-1.25,0-2.28,.83-2.42,2.33Z"/><path d="M115.37,161.89c1.43,0,2.41,.73,2.86,1.53v-1.4h1.29v7.68h-1.29v-1.43c-.46,.83-1.46,1.55-2.87,1.55-2.05,0-3.63-1.61-3.63-3.99s1.58-3.94,3.64-3.94Zm.25,1.11c-1.4,0-2.59,1.02-2.59,2.83s1.19,2.87,2.59,2.87,2.61-1.05,2.61-2.86-1.21-2.84-2.61-2.84Z"/><path d="M121.67,159.33h1.27v10.37h-1.27v-10.37Z"/><path d="M124.9,159.9c0-.49,.38-.87,.87-.87,.46,0,.84,.38,.84,.87s-.38,.87-.84,.87c-.49,0-.87-.38-.87-.87Zm.21,2.12h1.28v7.68h-1.28v-7.68Z"/><path d="M133.25,163.05l-3.74,5.59h3.77v1.05h-5.22v-1.05l3.73-5.59h-3.7v-1.04h5.17v1.04Z"/><path d="M138.09,161.89c1.43,0,2.41,.73,2.86,1.53v-1.4h1.29v7.68h-1.29v-1.43c-.46,.83-1.46,1.55-2.87,1.55-2.04,0-3.63-1.61-3.63-3.99s1.58-3.94,3.64-3.94Zm.25,1.11c-1.4,0-2.59,1.02-2.59,2.83s1.19,2.87,2.59,2.87,2.61-1.05,2.61-2.86-1.2-2.84-2.61-2.84Z"/><path d="M147.57,161.89c1.2,0,2.31,.62,2.84,1.5v-4.06h1.29v10.37h-1.29v-1.44c-.46,.85-1.46,1.57-2.86,1.57-2.06,0-3.64-1.61-3.64-3.99s1.58-3.94,3.66-3.94Zm.24,1.11c-1.4,0-2.59,1.02-2.59,2.83s1.19,2.87,2.59,2.87,2.61-1.05,2.61-2.86-1.2-2.84-2.61-2.84Z"/><path d="M157.02,161.89c1.43,0,2.41,.73,2.86,1.53v-1.4h1.29v7.68h-1.29v-1.43c-.46,.83-1.46,1.55-2.87,1.55-2.04,0-3.63-1.61-3.63-3.99s1.58-3.94,3.64-3.94Zm.25,1.11c-1.4,0-2.59,1.02-2.59,2.83s1.19,2.87,2.59,2.87,2.61-1.05,2.61-2.86-1.2-2.84-2.61-2.84Z"/><path d="M166.04,169.82c-1.79,0-3.05-.98-3.14-2.38h1.32c.07,.74,.73,1.3,1.81,1.3,1.01,0,1.57-.5,1.57-1.13,0-1.71-4.54-.71-4.54-3.57,0-1.18,1.11-2.14,2.82-2.14s2.82,.91,2.9,2.41h-1.27c-.06-.77-.64-1.33-1.67-1.33-.94,0-1.5,.45-1.5,1.06,0,1.82,4.46,.83,4.51,3.57,0,1.26-1.11,2.21-2.8,2.21Z"/><path d="M178.51,161.89c2.06,0,3.64,1.54,3.64,3.94s-1.58,3.99-3.64,3.99c-1.4,0-2.4-.76-2.87-1.54v5.06h-1.28v-11.32h1.28v1.42c.46-.81,1.47-1.54,2.87-1.54Zm-.27,1.11c-1.39,0-2.61,1.07-2.61,2.84s1.22,2.86,2.61,2.86,2.61-1.06,2.61-2.87-1.19-2.83-2.61-2.83Z"/><path d="M187.18,169.82c-2.17,0-3.82-1.54-3.82-3.98s1.71-3.95,3.88-3.95,3.88,1.53,3.88,3.95-1.75,3.98-3.94,3.98Zm0-1.12c1.33,0,2.63-.91,2.63-2.86s-1.27-2.84-2.59-2.84-2.56,.91-2.56,2.84,1.19,2.86,2.52,2.86Z"/><path d="M194.06,169.69h-1.28v-7.68h1.28v1.25c.43-.85,1.26-1.39,2.48-1.39v1.32h-.34c-1.22,0-2.14,.55-2.14,2.33v4.17Z"/><path d="M205.01,161.89c1.9,0,3.15,.98,3.54,2.59h-1.37c-.27-.92-1.04-1.51-2.17-1.51-1.4,0-2.44,.99-2.44,2.87s1.04,2.9,2.44,2.9c1.13,0,1.89-.55,2.17-1.51h1.37c-.39,1.53-1.64,2.59-3.54,2.59-2.19,0-3.74-1.54-3.74-3.98s1.55-3.95,3.74-3.95Z"/><path d="M213.41,161.89c1.43,0,2.41,.73,2.86,1.53v-1.4h1.29v7.68h-1.29v-1.43c-.46,.83-1.46,1.55-2.87,1.55-2.04,0-3.63-1.61-3.63-3.99s1.58-3.94,3.64-3.94Zm.25,1.11c-1.4,0-2.59,1.02-2.59,2.83s1.19,2.87,2.59,2.87,2.61-1.05,2.61-2.86-1.2-2.84-2.61-2.84Z"/><path d="M222.89,161.89c1.21,0,2.31,.62,2.84,1.5v-4.06h1.29v10.37h-1.29v-1.44c-.46,.85-1.46,1.57-2.86,1.57-2.06,0-3.64-1.61-3.64-3.99s1.58-3.94,3.66-3.94Zm.24,1.11c-1.4,0-2.59,1.02-2.59,2.83s1.19,2.87,2.59,2.87,2.61-1.05,2.61-2.86-1.2-2.84-2.61-2.84Z"/><path d="M232.34,161.89c1.43,0,2.41,.73,2.86,1.53v-1.4h1.29v7.68h-1.29v-1.43c-.46,.83-1.46,1.55-2.87,1.55-2.04,0-3.63-1.61-3.63-3.99s1.58-3.94,3.64-3.94Zm.25,1.11c-1.4,0-2.59,1.02-2.59,2.83s1.19,2.87,2.59,2.87,2.61-1.05,2.61-2.86-1.2-2.84-2.61-2.84Z"/><path d="M30.23,178.69c1.4,0,2.41,.7,2.86,1.53v-1.4h1.29v7.84c0,2.12-1.42,3.61-3.67,3.61-2.02,0-3.46-1.02-3.71-2.66h1.26c.28,.92,1.19,1.55,2.45,1.55,1.36,0,2.38-.87,2.38-2.51v-1.61c-.46,.83-1.46,1.57-2.86,1.57-2.06,0-3.64-1.61-3.64-3.99s1.58-3.94,3.64-3.94Zm.25,1.11c-1.4,0-2.59,1.02-2.59,2.83s1.19,2.87,2.59,2.87,2.61-1.05,2.61-2.86-1.21-2.84-2.61-2.84Z"/><path d="M39.84,186.62c-2.19,0-3.8-1.54-3.8-3.98s1.55-3.95,3.8-3.95,3.68,1.57,3.68,3.67c0,.28-.01,.5-.04,.77h-6.14c.1,1.55,1.19,2.41,2.49,2.41,1.15,0,1.88-.59,2.16-1.41h1.37c-.39,1.4-1.62,2.49-3.53,2.49Zm-2.48-4.52h4.85c.01-1.5-1.11-2.33-2.42-2.33-1.25,0-2.28,.83-2.42,2.33Z"/><path d="M47.92,186.62c-1.79,0-3.05-.98-3.14-2.38h1.32c.07,.74,.73,1.3,1.81,1.3,1.01,0,1.57-.5,1.57-1.13,0-1.71-4.54-.71-4.54-3.57,0-1.18,1.11-2.14,2.82-2.14s2.82,.91,2.9,2.41h-1.27c-.06-.77-.64-1.33-1.67-1.33-.94,0-1.5,.45-1.5,1.06,0,1.82,4.45,.83,4.51,3.57,0,1.26-1.11,2.21-2.8,2.21Z"/><path d="M52.79,179.87h-.99v-1.05h.99v-1.93h1.27v1.93h2v1.05h-2v4.52c0,.76,.28,1.02,1.06,1.02h.94v1.08h-1.15c-1.36,0-2.13-.56-2.13-2.1v-4.52Z"/><path d="M60.77,178.69c1.43,0,2.41,.73,2.86,1.53v-1.4h1.29v7.68h-1.29v-1.43c-.46,.83-1.46,1.55-2.87,1.55-2.05,0-3.63-1.61-3.63-3.99s1.58-3.94,3.64-3.94Zm.25,1.11c-1.4,0-2.59,1.02-2.59,2.83s1.19,2.87,2.59,2.87,2.61-1.05,2.61-2.86-1.21-2.84-2.61-2.84Z"/><path d="M72.69,182.15c0-1.57-.85-2.37-2.14-2.37s-2.2,.81-2.2,2.47v4.24h-1.27v-7.68h1.27v1.09c.5-.8,1.43-1.23,2.47-1.23,1.78,0,3.14,1.09,3.14,3.29v4.52h-1.26v-4.34Z"/><path d="M76.31,179.87h-.99v-1.05h.99v-1.93h1.27v1.93h2v1.05h-2v4.52c0,.76,.28,1.02,1.06,1.02h.94v1.08h-1.15c-1.36,0-2.13-.56-2.13-2.1v-4.52Z"/><path d="M84.45,186.62c-2.19,0-3.8-1.54-3.8-3.98s1.55-3.95,3.8-3.95,3.68,1.57,3.68,3.67c0,.28-.01,.5-.04,.77h-6.14c.1,1.55,1.19,2.41,2.49,2.41,1.15,0,1.88-.59,2.16-1.41h1.37c-.39,1.4-1.62,2.49-3.53,2.49Zm-2.48-4.52h4.85c.01-1.5-1.11-2.33-2.42-2.33-1.25,0-2.28,.83-2.42,2.33Z"/><path d="M90.21,186.58c-.49,0-.87-.38-.87-.87s.38-.87,.87-.87c.46,0,.84,.38,.84,.87s-.38,.87-.84,.87Z"/></g><rect class="cls-2" x=".27" width="298" height="47"/><g><path class="cls-1" d="M26.39,16.11h-1.44v-2.58h4.31v10.24h-2.87v-7.66Z"/><path class="cls-1" d="M32.23,23.89c-.98,0-1.61-.62-1.61-1.42s.63-1.43,1.61-1.43,1.6,.63,1.6,1.43-.63,1.42-1.6,1.42Z"/><path class="cls-1" d="M42.52,23.87c-2.8,0-5.07-2.1-5.07-5.07s2.27-5.06,5.07-5.06,5.06,2.09,5.06,5.06-2.26,5.07-5.06,5.07Zm0-2.55c1.41,0,2.27-.99,2.27-2.52s-.85-2.54-2.27-2.54-2.27,.98-2.27,2.54,.84,2.52,2.27,2.52Z"/><path class="cls-1" d="M54.56,15.85c.92,0,1.62,.29,2.13,.87v-.8h2.75v11.61h-2.75v-4.68c-.53,.63-1.22,1.02-2.14,1.02-1.89,0-3.52-1.61-3.52-3.99s1.62-4.03,3.53-4.03Zm.7,2.38c-.64,0-1.43,.49-1.43,1.65s.78,1.6,1.43,1.6,1.43-.48,1.43-1.64-.8-1.61-1.43-1.61Z"/><path class="cls-1" d="M69.04,23.77h-2.76v-1.12c-.45,.67-1.27,1.19-2.38,1.19-1.82,0-2.96-1.29-2.96-3.36v-4.57h2.73v4.22c0,.91,.52,1.44,1.3,1.44s1.3-.53,1.3-1.44v-4.22h2.76v7.86Z"/><path class="cls-1" d="M74.15,23.87c-2.33,0-3.99-1.53-3.99-4.03s1.64-4.02,3.99-4.02,3.96,1.5,3.96,3.94c0,.21-.01,.43-.04,.64h-5.2c.06,.91,.55,1.27,1.16,1.27,.53,0,.83-.29,.98-.62h2.93c-.36,1.61-1.83,2.82-3.8,2.82Zm-1.26-4.8h2.42c0-.7-.55-1.08-1.18-1.08s-1.12,.36-1.25,1.08Z"/><path class="cls-1" d="M85.43,15.82c1.99,0,3.45,1.13,3.84,3.11h-2.91c-.15-.48-.46-.77-.98-.77-.67,0-1.12,.56-1.12,1.68s.45,1.69,1.12,1.69c.52,0,.83-.28,.98-.77h2.91c-.39,1.95-1.85,3.11-3.84,3.11-2.34,0-3.98-1.53-3.98-4.03s1.64-4.02,3.98-4.02Z"/><path class="cls-1" d="M93.3,15.82c1.12,0,1.9,.49,2.31,1.19v-1.09h2.75v7.86h-2.75v-1.09c-.41,.7-1.2,1.19-2.31,1.19-1.86,0-3.35-1.53-3.35-4.03s1.48-4.02,3.35-4.02Zm.88,2.4c-.78,0-1.43,.56-1.43,1.62s.64,1.64,1.43,1.64,1.43-.57,1.43-1.64-.66-1.62-1.43-1.62Z"/><path class="cls-1" d="M102.83,15.82c1.04,0,1.85,.46,2.28,1.18v-3.59h2.76v10.37h-2.76v-1.09c-.41,.7-1.19,1.19-2.3,1.19-1.86,0-3.35-1.53-3.35-4.03s1.48-4.02,3.36-4.02Zm.87,2.4c-.78,0-1.43,.56-1.43,1.62s.64,1.64,1.43,1.64,1.43-.57,1.43-1.64-.66-1.62-1.43-1.62Z"/><path class="cls-1" d="M112.34,15.82c1.12,0,1.9,.49,2.31,1.19v-1.09h2.75v7.86h-2.75v-1.09c-.41,.7-1.2,1.19-2.31,1.19-1.86,0-3.35-1.53-3.35-4.03s1.48-4.02,3.35-4.02Zm.88,2.4c-.78,0-1.43,.56-1.43,1.62s.64,1.64,1.43,1.64,1.43-.57,1.43-1.64-.66-1.62-1.43-1.62Z"/><path class="cls-1" d="M121.41,13.79c0-.8,.63-1.43,1.61-1.43s1.6,.63,1.6,1.43-.63,1.4-1.6,1.4-1.61-.62-1.61-1.4Zm.22,2.13h2.75v7.86h-2.75v-7.86Z"/><path class="cls-1" d="M131.3,19.56c0-.91-.5-1.44-1.29-1.44s-1.32,.53-1.32,1.44v4.22h-2.75v-7.86h2.75v1.12c.46-.67,1.29-1.19,2.4-1.19,1.82,0,2.96,1.29,2.96,3.35v4.58h-2.75v-4.22Z"/><path class="cls-1" d="M138.46,15.82c1.04,0,1.85,.46,2.28,1.18v-3.59h2.76v10.37h-2.76v-1.09c-.41,.7-1.19,1.19-2.3,1.19-1.86,0-3.35-1.53-3.35-4.03s1.48-4.02,3.36-4.02Zm.87,2.4c-.78,0-1.43,.56-1.43,1.62s.64,1.64,1.43,1.64,1.43-.57,1.43-1.64-.66-1.62-1.43-1.62Z"/><path class="cls-1" d="M144.85,13.79c0-.8,.63-1.43,1.61-1.43s1.6,.63,1.6,1.43-.63,1.4-1.6,1.4-1.61-.62-1.61-1.4Zm.22,2.13h2.75v7.86h-2.75v-7.86Z"/><path class="cls-1" d="M152.91,15.82c1.99,0,3.45,1.13,3.84,3.11h-2.91c-.15-.48-.46-.77-.98-.77-.67,0-1.12,.56-1.12,1.68s.45,1.69,1.12,1.69c.52,0,.83-.28,.98-.77h2.91c-.39,1.95-1.85,3.11-3.84,3.11-2.34,0-3.98-1.53-3.98-4.03s1.64-4.02,3.98-4.02Z"/><path class="cls-1" d="M160.78,15.82c1.12,0,1.91,.49,2.31,1.19v-1.09h2.75v7.86h-2.75v-1.09c-.41,.7-1.21,1.19-2.31,1.19-1.86,0-3.35-1.53-3.35-4.03s1.48-4.02,3.35-4.02Zm.88,2.4c-.78,0-1.43,.56-1.43,1.62s.64,1.64,1.43,1.64,1.43-.57,1.43-1.64-.66-1.62-1.43-1.62Z"/><path class="cls-1" d="M170.31,15.82c1.04,0,1.85,.46,2.28,1.18v-3.59h2.76v10.37h-2.76v-1.09c-.41,.7-1.19,1.19-2.3,1.19-1.86,0-3.35-1.53-3.35-4.03s1.49-4.02,3.36-4.02Zm.87,2.4c-.78,0-1.43,.56-1.43,1.62s.64,1.64,1.43,1.64,1.43-.57,1.43-1.64-.66-1.62-1.43-1.62Z"/><path class="cls-1" d="M180.58,23.87c-2.34,0-4.1-1.53-4.1-4.03s1.78-4.02,4.12-4.02,4.12,1.53,4.12,4.02-1.79,4.03-4.13,4.03Zm0-2.38c.7,0,1.34-.52,1.34-1.65s-.63-1.64-1.33-1.64-1.32,.52-1.32,1.64,.59,1.65,1.3,1.65Z"/><path class="cls-1" d="M188.57,23.77h-2.75v-7.86h2.75v1.39c.59-.85,1.48-1.46,2.54-1.46v2.93h-.77c-1.13,0-1.76,.36-1.76,1.57v3.43Z"/><path class="cls-1" d="M198.3,23.87c-2.33,0-3.99-1.53-3.99-4.03s1.64-4.02,3.99-4.02,3.96,1.5,3.96,3.94c0,.21-.01,.43-.04,.64h-5.2c.06,.91,.55,1.27,1.16,1.27,.53,0,.83-.29,.98-.62h2.93c-.36,1.61-1.83,2.82-3.8,2.82Zm-1.26-4.8h2.42c0-.7-.55-1.08-1.18-1.08s-1.12,.36-1.25,1.08Z"/><path class="cls-1" d="M206.87,21.8l-1.12,1.98h-3.01l2.62-4.08-2.73-3.78h3.08l1.41,1.98,1.13-1.98h3.01l-2.68,4.01,2.77,3.85h-3.08l-1.42-1.98Z"/><path class="cls-1" d="M217.21,15.82c1.88,0,3.35,1.51,3.35,4.02s-1.47,4.03-3.35,4.03c-1.11,0-1.88-.5-2.3-1.19v4.85h-2.75V15.92h2.75v1.09c.41-.7,1.2-1.19,2.3-1.19Zm-.87,2.4c-.77,0-1.43,.57-1.43,1.62s.66,1.64,1.43,1.64,1.43-.59,1.43-1.64-.66-1.62-1.43-1.62Z"/><path class="cls-1" d="M224.44,23.77h-2.75v-7.86h2.75v1.39c.59-.85,1.49-1.46,2.54-1.46v2.93h-.77c-1.13,0-1.76,.36-1.76,1.57v3.43Z"/><path class="cls-1" d="M231.49,23.87c-2.33,0-3.99-1.53-3.99-4.03s1.64-4.02,3.99-4.02,3.96,1.5,3.96,3.94c0,.21-.01,.43-.04,.64h-5.2c.06,.91,.55,1.27,1.16,1.27,.53,0,.83-.29,.98-.62h2.93c-.36,1.61-1.83,2.82-3.8,2.82Zm-1.26-4.8h2.42c0-.7-.55-1.08-1.18-1.08s-1.12,.36-1.25,1.08Z"/><path class="cls-1" d="M239.92,23.87c-2.18,0-3.64-1.18-3.75-2.75h2.66c.07,.52,.5,.8,1.08,.8,.46,0,.73-.22,.73-.5,0-1.15-4.17-.21-4.17-3.1,0-1.37,1.13-2.51,3.26-2.51s3.26,1.19,3.45,2.75h-2.48c-.08-.49-.43-.78-1.02-.78-.45,0-.69,.18-.69,.48,0,1.12,4.19,.22,4.2,3.21,0,1.37-1.23,2.41-3.26,2.41Z"/><path class="cls-1" d="M247.87,23.87c-2.18,0-3.64-1.18-3.75-2.75h2.66c.07,.52,.5,.8,1.08,.8,.46,0,.73-.22,.73-.5,0-1.15-4.17-.21-4.17-3.1,0-1.37,1.13-2.51,3.26-2.51s3.26,1.19,3.45,2.75h-2.48c-.08-.49-.43-.78-1.02-.78-.45,0-.69,.18-.69,.48,0,1.12,4.19,.22,4.2,3.21,0,1.37-1.23,2.41-3.26,2.41Z"/><path class="cls-1" d="M255.38,15.82c1.12,0,1.91,.49,2.31,1.19v-1.09h2.75v7.86h-2.75v-1.09c-.41,.7-1.2,1.19-2.31,1.19-1.86,0-3.35-1.53-3.35-4.03s1.49-4.02,3.35-4.02Zm.88,2.4c-.78,0-1.43,.56-1.43,1.62s.64,1.64,1.43,1.64,1.43-.57,1.43-1.64-.66-1.62-1.43-1.62Z"/><path class="cls-1" d="M264.99,13.17c1.96,0,3.38,1.02,3.38,3.03,0,1.74-1.28,2.76-3.08,2.79l-.07,1.02h-2.42l-.08-2.79h1.01c1.19,0,1.99-.22,1.96-1.04-.01-.49-.31-.77-.76-.77-.55,0-.8,.36-.8,.85h-2.59c-.06-1.68,1.09-3.1,3.46-3.1Zm-.97,10.72c-.98,0-1.61-.62-1.61-1.42s.63-1.43,1.61-1.43,1.6,.63,1.6,1.43-.63,1.42-1.6,1.42Z"/></g><rect class="cls-3" x=".27" y="-.14" width="298" height="242"/></svg>