<?xml version="1.0" encoding="UTF-8"?><svg id="Camada_1" xmlns="http://www.w3.org/2000/svg" viewBox="0 0 298 242"><defs><style>.cls-1{fill:#fff;}.cls-2{fill:none;stroke:#1b8992;stroke-miterlimit:10;}.cls-3{fill:#1b8992;}</style></defs><g><path d="M30.03,85.94c-1.96,0-3.35-1.09-3.38-2.7h1.36c.08,.81,.66,1.62,2.02,1.62,1.23,0,1.96-.7,1.96-1.62,0-2.63-5.28-.95-5.28-4.58,0-1.61,1.3-2.7,3.24-2.7s3.08,1.02,3.24,2.51h-1.4c-.08-.66-.7-1.4-1.89-1.42-1.05-.03-1.88,.52-1.88,1.57,0,2.52,5.27,.95,5.27,4.57,0,1.39-1.13,2.76-3.25,2.76Z"/><path d="M34.94,76.05c0-.49,.38-.87,.87-.87,.46,0,.84,.38,.84,.87s-.38,.87-.84,.87c-.49,0-.87-.38-.87-.87Zm.21,2.12h1.27v7.68h-1.27v-7.68Z"/><path d="M49.68,81.5c0-1.57-.84-2.37-2.1-2.37s-2.17,.83-2.17,2.48v4.23h-1.26v-4.34c0-1.57-.84-2.37-2.1-2.37s-2.17,.83-2.17,2.48v4.23h-1.27v-7.68h1.27v1.11c.5-.81,1.42-1.25,2.42-1.25,1.26,0,2.31,.56,2.82,1.71,.45-1.11,1.54-1.71,2.72-1.71,1.75,0,3.11,1.09,3.11,3.29v4.52h-1.26v-4.34Z"/><path d="M52.93,84.07h1.4l-1.57,3.77h-.86l1.02-3.77Z"/><path d="M62.24,85.96c-1.79,0-3.05-.98-3.14-2.38h1.32c.07,.74,.73,1.3,1.81,1.3,1.01,0,1.57-.5,1.57-1.13,0-1.71-4.54-.71-4.54-3.57,0-1.18,1.11-2.14,2.82-2.14s2.82,.91,2.9,2.41h-1.27c-.06-.77-.64-1.33-1.67-1.33-.94,0-1.5,.45-1.5,1.06,0,1.82,4.46,.83,4.51,3.57,0,1.26-1.11,2.21-2.8,2.21Z"/><path d="M70,78.04c1.43,0,2.41,.73,2.86,1.53v-1.4h1.29v7.68h-1.29v-1.43c-.46,.83-1.46,1.55-2.87,1.55-2.04,0-3.63-1.61-3.63-3.99s1.58-3.94,3.64-3.94Zm.25,1.11c-1.4,0-2.59,1.02-2.59,2.83s1.19,2.87,2.59,2.87,2.61-1.05,2.61-2.86-1.21-2.84-2.61-2.84Zm-.41-3.28c.74,0,1.02,.64,1.6,.64,.31,0,.56-.2,.62-.6h.73c-.11,.95-.67,1.46-1.4,1.46s-1.04-.64-1.6-.64c-.31,0-.55,.2-.6,.62h-.74c.14-.97,.67-1.47,1.4-1.47Z"/><path d="M79.65,85.96c-2.17,0-3.82-1.54-3.82-3.98s1.71-3.95,3.88-3.95,3.88,1.53,3.88,3.95-1.75,3.98-3.94,3.98Zm0-1.12c1.33,0,2.63-.91,2.63-2.86s-1.27-2.84-2.59-2.84-2.56,.91-2.56,2.84,1.19,2.86,2.52,2.86Z"/><path d="M88.79,76.05c0-.49,.38-.87,.87-.87,.46,0,.84,.38,.84,.87s-.38,.87-.84,.87c-.49,0-.87-.38-.87-.87Zm.21,2.12h1.28v7.68h-1.28v-7.68Z"/><path d="M98.06,81.5c0-1.57-.85-2.37-2.14-2.37s-2.2,.81-2.2,2.47v4.24h-1.28v-7.68h1.28v1.09c.5-.8,1.43-1.23,2.46-1.23,1.78,0,3.14,1.09,3.14,3.29v4.52h-1.26v-4.34Z"/><path d="M104.58,78.04c1.2,0,2.31,.62,2.84,1.5v-4.06h1.29v10.37h-1.29v-1.44c-.46,.85-1.46,1.57-2.86,1.57-2.06,0-3.64-1.61-3.64-3.99s1.58-3.94,3.66-3.94Zm.24,1.11c-1.4,0-2.59,1.02-2.59,2.83s1.19,2.87,2.59,2.87,2.61-1.05,2.61-2.86-1.21-2.84-2.61-2.84Z"/><path d="M110.65,76.05c0-.49,.38-.87,.87-.87,.46,0,.84,.38,.84,.87s-.38,.87-.84,.87c-.49,0-.87-.38-.87-.87Zm.21,2.12h1.28v7.68h-1.28v-7.68Z"/><path d="M117.57,78.04c1.91,0,3.15,.98,3.54,2.59h-1.37c-.27-.92-1.04-1.51-2.17-1.51-1.4,0-2.44,.99-2.44,2.87s1.04,2.9,2.44,2.9c1.13,0,1.89-.55,2.17-1.51h1.37c-.39,1.53-1.64,2.59-3.54,2.59-2.18,0-3.74-1.54-3.74-3.98s1.55-3.95,3.74-3.95Z"/><path d="M125.97,78.04c1.43,0,2.41,.73,2.86,1.53v-1.4h1.29v7.68h-1.29v-1.43c-.46,.83-1.46,1.55-2.87,1.55-2.04,0-3.63-1.61-3.63-3.99s1.58-3.94,3.64-3.94Zm.25,1.11c-1.4,0-2.59,1.02-2.59,2.83s1.19,2.87,2.59,2.87,2.61-1.05,2.61-2.86-1.2-2.84-2.61-2.84Z"/><path d="M135.45,78.04c1.21,0,2.31,.62,2.84,1.5v-4.06h1.29v10.37h-1.29v-1.44c-.46,.85-1.46,1.57-2.86,1.57-2.06,0-3.64-1.61-3.64-3.99s1.58-3.94,3.66-3.94Zm.24,1.11c-1.4,0-2.59,1.02-2.59,2.83s1.19,2.87,2.59,2.87,2.61-1.05,2.61-2.86-1.21-2.84-2.61-2.84Z"/><path d="M145.08,85.96c-2.17,0-3.82-1.54-3.82-3.98s1.71-3.95,3.88-3.95,3.88,1.53,3.88,3.95-1.75,3.98-3.94,3.98Zm0-1.12c1.33,0,2.63-.91,2.63-2.86s-1.28-2.84-2.59-2.84-2.56,.91-2.56,2.84,1.19,2.86,2.52,2.86Z"/><path d="M151.97,85.84h-1.28v-7.68h1.28v1.25c.43-.85,1.26-1.39,2.48-1.39v1.32h-.34c-1.22,0-2.14,.55-2.14,2.33v4.17Z"/><path d="M159.23,85.96c-2.19,0-3.79-1.54-3.79-3.98s1.55-3.95,3.79-3.95,3.68,1.57,3.68,3.67c0,.28-.01,.5-.04,.77h-6.13c.1,1.55,1.19,2.41,2.49,2.41,1.15,0,1.88-.59,2.16-1.41h1.37c-.39,1.4-1.62,2.49-3.53,2.49Zm-2.48-4.52h4.85c.01-1.5-1.11-2.33-2.42-2.33-1.25,0-2.28,.83-2.42,2.33Z"/><path d="M167.31,85.96c-1.79,0-3.05-.98-3.14-2.38h1.32c.07,.74,.73,1.3,1.81,1.3,1.01,0,1.57-.5,1.57-1.13,0-1.71-4.54-.71-4.54-3.57,0-1.18,1.11-2.14,2.82-2.14s2.81,.91,2.9,2.41h-1.27c-.06-.77-.64-1.33-1.67-1.33-.94,0-1.5,.45-1.5,1.06,0,1.82,4.46,.83,4.51,3.57,0,1.26-1.11,2.21-2.8,2.21Z"/><path d="M178.82,78.04c1.4,0,2.41,.73,2.84,1.53v-1.4h1.29v11.32h-1.29v-5.06c-.43,.78-1.46,1.54-2.89,1.54-2.03,0-3.61-1.61-3.61-3.99s1.58-3.94,3.66-3.94Zm.24,1.11c-1.4,0-2.59,1.02-2.59,2.83s1.19,2.87,2.59,2.87,2.61-1.05,2.61-2.86-1.21-2.84-2.61-2.84Z"/><path d="M191.91,85.84h-1.28v-1.13c-.49,.8-1.43,1.25-2.45,1.25-1.76,0-3.15-1.09-3.15-3.29v-4.5h1.26v4.33c0,1.55,.86,2.35,2.14,2.35s2.2-.81,2.2-2.47v-4.22h1.28v7.68Z"/><path d="M197.38,85.96c-2.19,0-3.8-1.54-3.8-3.98s1.55-3.95,3.8-3.95,3.68,1.57,3.68,3.67c0,.28-.01,.5-.04,.77h-6.13c.1,1.55,1.19,2.41,2.49,2.41,1.15,0,1.88-.59,2.16-1.41h1.37c-.39,1.4-1.62,2.49-3.53,2.49Zm-2.48-4.52h4.85c.01-1.5-1.11-2.33-2.42-2.33-1.25,0-2.28,.83-2.42,2.33Z"/><path d="M210.63,78.04c2.06,0,3.64,1.54,3.64,3.94s-1.58,3.99-3.64,3.99c-1.4,0-2.4-.76-2.87-1.54v5.06h-1.28v-11.32h1.28v1.42c.46-.81,1.47-1.54,2.87-1.54Zm-.27,1.11c-1.39,0-2.61,1.06-2.61,2.84s1.22,2.86,2.61,2.86,2.61-1.06,2.61-2.87-1.19-2.83-2.61-2.83Z"/><path d="M219.29,85.96c-2.17,0-3.82-1.54-3.82-3.98s1.71-3.95,3.88-3.95,3.88,1.53,3.88,3.95-1.75,3.98-3.94,3.98Zm0-1.12c1.33,0,2.63-.91,2.63-2.86s-1.28-2.84-2.59-2.84-2.56,.91-2.56,2.84,1.19,2.86,2.52,2.86Z"/><path d="M228.09,78.04c1.21,0,2.31,.62,2.84,1.5v-4.06h1.29v10.37h-1.29v-1.44c-.46,.85-1.46,1.57-2.86,1.57-2.06,0-3.64-1.61-3.64-3.99s1.58-3.94,3.66-3.94Zm.24,1.11c-1.4,0-2.59,1.02-2.59,2.83s1.19,2.87,2.59,2.87,2.61-1.05,2.61-2.86-1.21-2.84-2.61-2.84Z"/><path d="M237.69,85.96c-2.19,0-3.79-1.54-3.79-3.98s1.55-3.95,3.79-3.95,3.68,1.57,3.68,3.67c0,.28-.01,.5-.04,.77h-6.13c.1,1.55,1.19,2.41,2.49,2.41,1.15,0,1.88-.59,2.16-1.41h1.37c-.39,1.4-1.62,2.49-3.53,2.49Zm-2.48-4.52h4.85c.01-1.5-1.11-2.33-2.42-2.33-1.25,0-2.28,.83-2.42,2.33Z"/><path d="M254.13,81.5c0-1.57-.84-2.37-2.1-2.37s-2.17,.83-2.17,2.48v4.23h-1.26v-4.34c0-1.57-.84-2.37-2.1-2.37s-2.17,.83-2.17,2.48v4.23h-1.28v-7.68h1.28v1.11c.5-.81,1.41-1.25,2.42-1.25,1.26,0,2.31,.56,2.81,1.71,.45-1.11,1.54-1.71,2.72-1.71,1.75,0,3.11,1.09,3.11,3.29v4.52h-1.26v-4.34Z"/><path d="M28.21,102.64h-1.28v-7.68h1.28v1.25c.43-.85,1.26-1.39,2.48-1.39v1.32h-.34c-1.22,0-2.14,.55-2.14,2.33v4.17Z"/><path d="M35.48,102.76c-2.18,0-3.79-1.54-3.79-3.98s1.55-3.95,3.79-3.95,3.68,1.57,3.68,3.67c0,.28-.01,.5-.04,.77h-6.13c.1,1.55,1.19,2.41,2.49,2.41,1.15,0,1.88-.59,2.16-1.41h1.37c-.39,1.4-1.62,2.49-3.53,2.49Zm-2.48-4.52h4.85c.01-1.5-1.11-2.33-2.42-2.33-1.25,0-2.28,.83-2.42,2.33Z"/><path d="M44.98,94.84c2.06,0,3.64,1.54,3.64,3.94s-1.58,3.99-3.64,3.99c-1.4,0-2.39-.76-2.87-1.54v5.06h-1.27v-11.32h1.27v1.42c.46-.81,1.47-1.54,2.87-1.54Zm-.27,1.11c-1.39,0-2.61,1.06-2.61,2.84s1.22,2.86,2.61,2.86,2.61-1.06,2.61-2.87-1.19-2.83-2.61-2.83Z"/><path d="M51.58,102.64h-1.28v-7.68h1.28v1.25c.43-.85,1.26-1.39,2.48-1.39v1.32h-.34c-1.22,0-2.14,.55-2.14,2.33v4.17Z"/><path d="M58.84,102.76c-2.18,0-3.79-1.54-3.79-3.98s1.55-3.95,3.79-3.95,3.68,1.57,3.68,3.67c0,.28-.01,.5-.04,.77h-6.13c.1,1.55,1.19,2.41,2.49,2.41,1.15,0,1.88-.59,2.16-1.41h1.37c-.39,1.4-1.62,2.49-3.53,2.49Zm-2.48-4.52h4.85c.01-1.5-1.11-2.33-2.42-2.33-1.25,0-2.28,.83-2.42,2.33Z"/><path d="M66.92,102.76c-1.79,0-3.05-.98-3.14-2.38h1.32c.07,.74,.73,1.3,1.81,1.3,1.01,0,1.57-.5,1.57-1.13,0-1.71-4.54-.71-4.54-3.57,0-1.18,1.11-2.14,2.82-2.14s2.81,.91,2.9,2.41h-1.27c-.06-.77-.64-1.33-1.67-1.33-.94,0-1.5,.45-1.5,1.06,0,1.82,4.45,.83,4.51,3.57,0,1.26-1.11,2.21-2.8,2.21Z"/><path d="M74.83,102.76c-2.19,0-3.8-1.54-3.8-3.98s1.55-3.95,3.8-3.95,3.68,1.57,3.68,3.67c0,.28-.01,.5-.04,.77h-6.14c.1,1.55,1.19,2.41,2.49,2.41,1.15,0,1.88-.59,2.16-1.41h1.37c-.39,1.4-1.62,2.49-3.53,2.49Zm-2.48-4.52h4.85c.01-1.5-1.11-2.33-2.42-2.33-1.25,0-2.28,.83-2.42,2.33Z"/><path d="M85.81,98.3c0-1.57-.85-2.37-2.14-2.37s-2.2,.81-2.2,2.47v4.24h-1.28v-7.68h1.28v1.09c.5-.8,1.43-1.23,2.46-1.23,1.78,0,3.14,1.09,3.14,3.29v4.52h-1.26v-4.34Z"/><path d="M89.43,96.01h-.99v-1.05h.99v-1.93h1.27v1.93h2v1.05h-2v4.52c0,.76,.28,1.02,1.07,1.02h.94v1.08h-1.15c-1.36,0-2.13-.56-2.13-2.1v-4.52Z"/><path d="M97.41,94.84c1.43,0,2.41,.73,2.86,1.53v-1.4h1.29v7.68h-1.29v-1.43c-.46,.83-1.46,1.55-2.87,1.55-2.05,0-3.63-1.61-3.63-3.99s1.58-3.94,3.64-3.94Zm.25,1.11c-1.4,0-2.59,1.02-2.59,2.83s1.19,2.87,2.59,2.87,2.61-1.05,2.61-2.86-1.21-2.84-2.61-2.84Z"/><path d="M104.98,102.64h-1.28v-7.68h1.28v1.25c.43-.85,1.26-1.39,2.48-1.39v1.32h-.34c-1.22,0-2.14,.55-2.14,2.33v4.17Z"/><path d="M115.83,94.84c1.43,0,2.41,.73,2.86,1.53v-1.4h1.29v7.68h-1.29v-1.43c-.46,.83-1.46,1.55-2.87,1.55-2.04,0-3.63-1.61-3.63-3.99s1.58-3.94,3.64-3.94Zm.25,1.11c-1.4,0-2.59,1.02-2.59,2.83s1.19,2.87,2.59,2.87,2.61-1.05,2.61-2.86-1.21-2.84-2.61-2.84Z"/><path d="M129.05,94.84c1.4,0,2.41,.73,2.84,1.53v-1.4h1.29v11.32h-1.29v-5.06c-.43,.78-1.46,1.54-2.89,1.54-2.03,0-3.61-1.61-3.61-3.99s1.58-3.94,3.66-3.94Zm.24,1.11c-1.4,0-2.59,1.02-2.59,2.83s1.19,2.87,2.59,2.87,2.61-1.05,2.61-2.86-1.21-2.84-2.61-2.84Z"/><path d="M142.14,102.64h-1.28v-1.13c-.49,.8-1.43,1.25-2.45,1.25-1.76,0-3.15-1.09-3.15-3.29v-4.5h1.26v4.33c0,1.55,.86,2.35,2.14,2.35s2.2-.81,2.2-2.47v-4.22h1.28v7.68Z"/><path d="M147.46,94.84c1.43,0,2.41,.73,2.86,1.53v-1.4h1.29v7.68h-1.29v-1.43c-.46,.83-1.46,1.55-2.87,1.55-2.04,0-3.63-1.61-3.63-3.99s1.58-3.94,3.64-3.94Zm.25,1.11c-1.4,0-2.59,1.02-2.59,2.83s1.19,2.87,2.59,2.87,2.61-1.05,2.61-2.86-1.21-2.84-2.61-2.84Z"/><path d="M153.76,92.27h1.28v10.37h-1.28v-10.37Z"/><path d="M156.99,92.85c0-.49,.38-.87,.87-.87,.46,0,.84,.38,.84,.87s-.38,.87-.84,.87c-.49,0-.87-.38-.87-.87Zm.21,2.12h1.28v7.68h-1.28v-7.68Z"/><path d="M163.83,94.84c1.2,0,2.31,.62,2.84,1.5v-4.06h1.29v10.37h-1.29v-1.44c-.46,.85-1.46,1.57-2.86,1.57-2.06,0-3.64-1.61-3.64-3.99s1.58-3.94,3.66-3.94Zm.24,1.11c-1.4,0-2.59,1.02-2.59,2.83s1.19,2.87,2.59,2.87,2.61-1.05,2.61-2.86-1.2-2.84-2.61-2.84Z"/><path d="M173.27,94.84c1.43,0,2.41,.73,2.86,1.53v-1.4h1.29v7.68h-1.29v-1.43c-.46,.83-1.46,1.55-2.87,1.55-2.04,0-3.63-1.61-3.63-3.99s1.58-3.94,3.64-3.94Zm.25,1.11c-1.4,0-2.59,1.02-2.59,2.83s1.19,2.87,2.59,2.87,2.61-1.05,2.61-2.86-1.21-2.84-2.61-2.84Z"/><path d="M182.75,94.84c1.2,0,2.31,.62,2.84,1.5v-4.06h1.29v10.37h-1.29v-1.44c-.46,.85-1.46,1.57-2.86,1.57-2.06,0-3.64-1.61-3.64-3.99s1.58-3.94,3.66-3.94Zm.24,1.11c-1.4,0-2.59,1.02-2.59,2.83s1.19,2.87,2.59,2.87,2.61-1.05,2.61-2.86-1.2-2.84-2.61-2.84Z"/><path d="M192.36,102.76c-2.19,0-3.8-1.54-3.8-3.98s1.55-3.95,3.8-3.95,3.68,1.57,3.68,3.67c0,.28-.01,.5-.04,.77h-6.13c.1,1.55,1.19,2.41,2.49,2.41,1.15,0,1.88-.59,2.16-1.41h1.37c-.39,1.4-1.62,2.49-3.53,2.49Zm-2.48-4.52h4.85c.01-1.5-1.11-2.33-2.42-2.33-1.25,0-2.28,.83-2.42,2.33Z"/><path d="M204.63,94.84c1.21,0,2.31,.62,2.84,1.5v-4.06h1.29v10.37h-1.29v-1.44c-.46,.85-1.46,1.57-2.86,1.57-2.06,0-3.64-1.61-3.64-3.99s1.58-3.94,3.66-3.94Zm.24,1.11c-1.4,0-2.59,1.02-2.59,2.83s1.19,2.87,2.59,2.87,2.61-1.05,2.61-2.86-1.21-2.84-2.61-2.84Z"/><path d="M214.24,102.76c-2.19,0-3.79-1.54-3.79-3.98s1.55-3.95,3.79-3.95,3.68,1.57,3.68,3.67c0,.28-.01,.5-.04,.77h-6.13c.1,1.55,1.19,2.41,2.49,2.41,1.15,0,1.88-.59,2.16-1.41h1.37c-.39,1.4-1.62,2.49-3.53,2.49Zm-2.48-4.52h4.85c.01-1.5-1.11-2.33-2.42-2.33-1.25,0-2.28,.83-2.42,2.33Z"/><path d="M30.2,111.64c1.91,0,3.15,.98,3.54,2.59h-1.37c-.27-.92-1.04-1.51-2.17-1.51-1.4,0-2.44,.99-2.44,2.87s1.04,2.9,2.44,2.9c1.13,0,1.89-.55,2.17-1.51h1.37c-.39,1.53-1.64,2.59-3.54,2.59-2.19,0-3.74-1.54-3.74-3.98s1.55-3.95,3.74-3.95Z"/><path d="M42.24,119.44h-1.27v-1.13c-.49,.8-1.43,1.25-2.45,1.25-1.77,0-3.15-1.09-3.15-3.29v-4.5h1.26v4.33c0,1.55,.85,2.35,2.14,2.35s2.2-.81,2.2-2.47v-4.22h1.27v7.68Z"/><path d="M44.18,109.65c0-.49,.38-.87,.87-.87,.46,0,.84,.38,.84,.87s-.38,.87-.84,.87c-.49,0-.87-.38-.87-.87Zm.21,2.12h1.27v7.68h-1.27v-7.68Z"/><path d="M51.02,111.64c1.2,0,2.31,.62,2.84,1.5v-4.06h1.29v10.37h-1.29v-1.44c-.46,.85-1.46,1.57-2.86,1.57-2.06,0-3.64-1.61-3.64-3.99s1.58-3.94,3.66-3.94Zm.24,1.11c-1.4,0-2.59,1.02-2.59,2.83s1.19,2.87,2.59,2.87,2.61-1.05,2.61-2.86-1.21-2.84-2.61-2.84Z"/><path d="M60.47,111.64c1.43,0,2.41,.73,2.86,1.53v-1.4h1.29v7.68h-1.29v-1.43c-.46,.83-1.46,1.55-2.87,1.55-2.04,0-3.63-1.61-3.63-3.99s1.58-3.94,3.64-3.94Zm.25,1.11c-1.4,0-2.59,1.02-2.59,2.83s1.19,2.87,2.59,2.87,2.61-1.05,2.61-2.86-1.21-2.84-2.61-2.84Z"/><path d="M69.94,111.64c1.2,0,2.31,.62,2.84,1.5v-4.06h1.29v10.37h-1.29v-1.44c-.46,.85-1.46,1.57-2.86,1.57-2.06,0-3.64-1.61-3.64-3.99s1.58-3.94,3.66-3.94Zm.24,1.11c-1.4,0-2.59,1.02-2.59,2.83s1.19,2.87,2.59,2.87,2.61-1.05,2.61-2.86-1.21-2.84-2.61-2.84Z"/><path d="M79.58,119.56c-2.17,0-3.82-1.54-3.82-3.98s1.71-3.95,3.88-3.95,3.88,1.53,3.88,3.95-1.75,3.98-3.94,3.98Zm0-1.12c1.33,0,2.63-.91,2.63-2.86s-1.28-2.84-2.59-2.84-2.56,.91-2.56,2.84,1.19,2.86,2.52,2.86Z"/><path d="M100.01,115.1c0-1.57-.84-2.37-2.1-2.37s-2.17,.83-2.17,2.48v4.23h-1.26v-4.34c0-1.57-.84-2.37-2.1-2.37s-2.17,.83-2.17,2.48v4.23h-1.27v-7.68h1.27v1.11c.5-.81,1.42-1.25,2.42-1.25,1.26,0,2.31,.56,2.82,1.71,.45-1.11,1.54-1.71,2.72-1.71,1.75,0,3.11,1.09,3.11,3.29v4.52h-1.26v-4.34Z"/><path d="M106.51,111.64c1.43,0,2.41,.73,2.86,1.53v-1.4h1.29v7.68h-1.29v-1.43c-.46,.83-1.46,1.55-2.87,1.55-2.04,0-3.63-1.61-3.63-3.99s1.58-3.94,3.64-3.94Zm.25,1.11c-1.4,0-2.59,1.02-2.59,2.83s1.19,2.87,2.59,2.87,2.61-1.05,2.61-2.86-1.21-2.84-2.61-2.84Z"/><path d="M113.09,112.81h-1v-1.05h1v-1.93h1.27v1.93h2v1.05h-2v4.52c0,.76,.28,1.02,1.06,1.02h.94v1.08h-1.15c-1.36,0-2.13-.56-2.13-2.1v-4.52Z"/><path d="M121.23,119.56c-2.19,0-3.8-1.54-3.8-3.98s1.55-3.95,3.8-3.95,3.68,1.57,3.68,3.67c0,.28-.01,.5-.04,.77h-6.14c.1,1.55,1.19,2.41,2.49,2.41,1.15,0,1.88-.59,2.16-1.41h1.37c-.39,1.4-1.62,2.49-3.53,2.49Zm-2.48-4.52h4.85c.01-1.5-1.11-2.33-2.42-2.33-1.25,0-2.28,.83-2.42,2.33Z"/><path d="M127.86,119.44h-1.28v-7.68h1.28v1.25c.43-.85,1.26-1.39,2.48-1.39v1.32h-.34c-1.22,0-2.14,.55-2.14,2.33v4.17Z"/><path d="M137.43,115.1c0-1.57-.86-2.37-2.14-2.37s-2.2,.81-2.2,2.47v4.24h-1.28v-7.68h1.28v1.09c.5-.8,1.43-1.23,2.46-1.23,1.78,0,3.14,1.09,3.14,3.29v4.52h-1.26v-4.34Z"/><path d="M144.12,119.56c-2.17,0-3.82-1.54-3.82-3.98s1.71-3.95,3.88-3.95,3.88,1.53,3.88,3.95-1.75,3.98-3.94,3.98Zm0-1.12c1.33,0,2.63-.91,2.63-2.86s-1.28-2.84-2.59-2.84-2.56,.91-2.56,2.84,1.19,2.86,2.52,2.86Z"/><path d="M149.46,113.77h5.59v1.08h-5.59v-1.08Z"/><path d="M157.23,109.65c0-.49,.38-.87,.87-.87,.46,0,.84,.38,.84,.87s-.38,.87-.84,.87c-.49,0-.87-.38-.87-.87Zm.21,2.12h1.28v7.68h-1.28v-7.68Z"/><path d="M166.5,115.1c0-1.57-.85-2.37-2.14-2.37s-2.2,.81-2.2,2.47v4.24h-1.28v-7.68h1.28v1.09c.5-.8,1.43-1.23,2.46-1.23,1.78,0,3.14,1.09,3.14,3.29v4.52h-1.26v-4.34Z"/><path d="M170.08,112.81h-.99v-1.05h.99v-.55c0-1.71,.84-2.48,2.8-2.48v1.06c-1.15,0-1.53,.42-1.53,1.41v.55h1.61v1.05h-1.61v6.63h-1.28v-6.63Z"/><path d="M177.62,111.64c1.43,0,2.41,.73,2.86,1.53v-1.4h1.29v7.68h-1.29v-1.43c-.46,.83-1.46,1.55-2.87,1.55-2.04,0-3.63-1.61-3.63-3.99s1.58-3.94,3.64-3.94Zm.25,1.11c-1.4,0-2.59,1.02-2.59,2.83s1.19,2.87,2.59,2.87,2.61-1.05,2.61-2.86-1.21-2.84-2.61-2.84Z"/><path d="M189.53,115.1c0-1.57-.85-2.37-2.14-2.37s-2.2,.81-2.2,2.47v4.24h-1.28v-7.68h1.28v1.09c.5-.8,1.43-1.23,2.46-1.23,1.78,0,3.14,1.09,3.14,3.29v4.52h-1.26v-4.34Z"/><path d="M193.15,112.81h-.99v-1.05h.99v-1.93h1.28v1.93h2v1.05h-2v4.52c0,.76,.28,1.02,1.06,1.02h.94v1.08h-1.15c-1.36,0-2.13-.56-2.13-2.1v-4.52Z"/><path d="M197.76,109.65c0-.49,.38-.87,.87-.87,.46,0,.84,.38,.84,.87s-.38,.87-.84,.87c-.49,0-.87-.38-.87-.87Zm.21,2.12h1.28v7.68h-1.28v-7.68Z"/><path d="M201.41,109.07h1.28v10.37h-1.28v-10.37Z"/><path d="M205.26,119.52c-.49,0-.87-.38-.87-.87s.38-.87,.87-.87c.46,0,.84,.38,.84,.87s-.38,.87-.84,.87Z"/><path d="M30.09,126.48c2.3,0,3.39,1.27,3.39,2.87,0,1.25-.69,2.44-2.32,2.8l2.45,4.09h-1.53l-2.33-3.99h-1.54v3.99h-1.28v-9.76h3.15Zm0,1.05h-1.88v3.7h1.88c1.44,0,2.07-.79,2.07-1.88s-.62-1.82-2.07-1.82Z"/><path d="M38.77,136.36c-2.19,0-3.8-1.54-3.8-3.98s1.55-3.95,3.8-3.95,3.68,1.57,3.68,3.67c0,.28-.01,.5-.04,.77h-6.14c.1,1.55,1.19,2.41,2.49,2.41,1.15,0,1.88-.59,2.16-1.41h1.37c-.39,1.4-1.62,2.49-3.53,2.49Zm-2.48-4.52h4.85c.01-1.5-1.11-2.33-2.42-2.33-1.25,0-2.28,.83-2.42,2.33Z"/><path d="M48.27,128.44c2.06,0,3.64,1.54,3.64,3.94s-1.58,3.99-3.64,3.99c-1.4,0-2.4-.76-2.87-1.54v5.06h-1.28v-11.32h1.28v1.42c.46-.81,1.47-1.54,2.87-1.54Zm-.27,1.11c-1.39,0-2.6,1.07-2.6,2.84s1.22,2.86,2.6,2.86,2.61-1.06,2.61-2.87-1.19-2.83-2.61-2.83Z"/><path d="M54.86,136.24h-1.27v-7.68h1.27v1.25c.43-.85,1.26-1.39,2.48-1.39v1.32h-.34c-1.22,0-2.14,.55-2.14,2.33v4.17Z"/><path d="M62.13,136.36c-2.19,0-3.8-1.54-3.8-3.98s1.55-3.95,3.8-3.95,3.68,1.57,3.68,3.67c0,.28-.01,.5-.04,.77h-6.14c.1,1.55,1.19,2.41,2.49,2.41,1.15,0,1.88-.59,2.16-1.41h1.37c-.39,1.4-1.62,2.49-3.53,2.49Zm-2.48-4.52h4.85c.01-1.5-1.11-2.33-2.42-2.33-1.25,0-2.28,.83-2.42,2.33Z"/><path d="M70.21,136.36c-1.79,0-3.05-.98-3.14-2.38h1.32c.07,.74,.73,1.3,1.81,1.3,1.01,0,1.57-.5,1.57-1.13,0-1.71-4.54-.71-4.54-3.57,0-1.18,1.11-2.14,2.81-2.14s2.82,.91,2.9,2.41h-1.28c-.06-.77-.64-1.33-1.67-1.33-.94,0-1.5,.45-1.5,1.06,0,1.82,4.46,.83,4.51,3.57,0,1.26-1.11,2.21-2.8,2.21Z"/><path d="M78.12,136.36c-2.18,0-3.79-1.54-3.79-3.98s1.55-3.95,3.79-3.95,3.68,1.57,3.68,3.67c0,.28-.01,.5-.04,.77h-6.13c.1,1.55,1.19,2.41,2.49,2.41,1.15,0,1.88-.59,2.16-1.41h1.37c-.39,1.4-1.62,2.49-3.53,2.49Zm-2.48-4.52h4.85c.01-1.5-1.11-2.33-2.42-2.33-1.25,0-2.28,.83-2.42,2.33Z"/><path d="M89.1,131.9c0-1.57-.85-2.37-2.14-2.37s-2.2,.81-2.2,2.47v4.24h-1.27v-7.68h1.27v1.09c.5-.8,1.43-1.23,2.46-1.23,1.78,0,3.14,1.09,3.14,3.29v4.52h-1.26v-4.34Z"/><path d="M92.72,129.61h-1v-1.05h1v-1.93h1.27v1.93h2v1.05h-2v4.52c0,.76,.28,1.02,1.06,1.02h.94v1.08h-1.15c-1.36,0-2.13-.56-2.13-2.1v-4.52Z"/><path d="M100.7,128.44c1.43,0,2.41,.73,2.86,1.53v-1.4h1.29v7.68h-1.29v-1.43c-.46,.83-1.46,1.55-2.87,1.55-2.04,0-3.63-1.61-3.63-3.99s1.58-3.94,3.64-3.94Zm.25,1.11c-1.4,0-2.59,1.02-2.59,2.83s1.19,2.87,2.59,2.87,2.61-1.05,2.61-2.86-1.21-2.84-2.61-2.84Z"/><path d="M118.08,131.9c0-1.57-.84-2.37-2.1-2.37s-2.17,.83-2.17,2.48v4.23h-1.26v-4.34c0-1.57-.84-2.37-2.1-2.37s-2.17,.83-2.17,2.48v4.23h-1.27v-7.68h1.27v1.11c.5-.81,1.42-1.25,2.42-1.25,1.26,0,2.31,.56,2.82,1.71,.45-1.11,1.54-1.71,2.72-1.71,1.75,0,3.11,1.09,3.11,3.29v4.52h-1.26v-4.34Z"/><path d="M128.32,128.44c1.43,0,2.41,.73,2.86,1.53v-1.4h1.29v7.68h-1.29v-1.43c-.46,.83-1.46,1.55-2.87,1.55-2.04,0-3.63-1.61-3.63-3.99s1.58-3.94,3.64-3.94Zm.25,1.11c-1.4,0-2.59,1.02-2.59,2.83s1.19,2.87,2.59,2.87,2.61-1.05,2.61-2.86-1.2-2.84-2.61-2.84Z"/><path d="M141.54,128.44c1.4,0,2.41,.73,2.84,1.53v-1.4h1.29v11.32h-1.29v-5.06c-.43,.78-1.46,1.54-2.89,1.54-2.03,0-3.61-1.61-3.61-3.99s1.58-3.94,3.66-3.94Zm.24,1.11c-1.4,0-2.59,1.02-2.59,2.83s1.19,2.87,2.59,2.87,2.61-1.05,2.61-2.86-1.21-2.84-2.61-2.84Z"/><path d="M154.63,136.24h-1.28v-1.13c-.49,.8-1.43,1.25-2.45,1.25-1.76,0-3.15-1.09-3.15-3.29v-4.5h1.26v4.33c0,1.55,.86,2.35,2.14,2.35s2.2-.81,2.2-2.46v-4.22h1.28v7.68Z"/><path d="M159.95,128.44c1.43,0,2.41,.73,2.86,1.53v-1.4h1.29v7.68h-1.29v-1.43c-.46,.83-1.46,1.55-2.87,1.55-2.04,0-3.63-1.61-3.63-3.99s1.58-3.94,3.64-3.94Zm.25,1.11c-1.4,0-2.59,1.02-2.59,2.83s1.19,2.87,2.59,2.87,2.61-1.05,2.61-2.86-1.21-2.84-2.61-2.84Z"/><path d="M166.25,125.87h1.28v10.37h-1.28v-10.37Z"/><path d="M169.48,126.45c0-.49,.38-.87,.87-.87,.46,0,.84,.38,.84,.87s-.38,.87-.84,.87c-.49,0-.87-.38-.87-.87Zm.21,2.12h1.28v7.68h-1.28v-7.68Z"/><path d="M176.31,128.44c1.2,0,2.31,.62,2.84,1.5v-4.06h1.29v10.37h-1.29v-1.44c-.46,.85-1.46,1.57-2.86,1.57-2.06,0-3.64-1.61-3.64-3.99s1.58-3.94,3.66-3.94Zm.24,1.11c-1.4,0-2.59,1.02-2.59,2.83s1.19,2.87,2.59,2.87,2.61-1.05,2.61-2.86-1.2-2.84-2.61-2.84Z"/><path d="M185.76,128.44c1.43,0,2.41,.73,2.86,1.53v-1.4h1.29v7.68h-1.29v-1.43c-.46,.83-1.46,1.55-2.87,1.55-2.04,0-3.63-1.61-3.63-3.99s1.58-3.94,3.64-3.94Zm.25,1.11c-1.4,0-2.59,1.02-2.59,2.83s1.19,2.87,2.59,2.87,2.61-1.05,2.61-2.86-1.21-2.84-2.61-2.84Z"/><path d="M195.24,128.44c1.2,0,2.31,.62,2.84,1.5v-4.06h1.29v10.37h-1.29v-1.44c-.46,.85-1.46,1.57-2.86,1.57-2.06,0-3.64-1.61-3.64-3.99s1.58-3.94,3.66-3.94Zm.24,1.11c-1.4,0-2.59,1.02-2.59,2.83s1.19,2.87,2.59,2.87,2.61-1.05,2.61-2.86-1.2-2.84-2.61-2.84Z"/><path d="M204.85,136.36c-2.19,0-3.8-1.54-3.8-3.98s1.55-3.95,3.8-3.95,3.68,1.57,3.68,3.67c0,.28-.01,.5-.04,.77h-6.13c.1,1.55,1.19,2.41,2.49,2.41,1.15,0,1.88-.59,2.16-1.41h1.37c-.39,1.4-1.62,2.49-3.53,2.49Zm-2.48-4.52h4.85c.01-1.5-1.11-2.33-2.42-2.33-1.25,0-2.28,.83-2.42,2.33Z"/><path d="M217.12,128.44c1.21,0,2.31,.62,2.84,1.5v-4.06h1.29v10.37h-1.29v-1.44c-.46,.85-1.46,1.57-2.86,1.57-2.06,0-3.64-1.61-3.64-3.99s1.58-3.94,3.66-3.94Zm.24,1.11c-1.4,0-2.59,1.02-2.59,2.83s1.19,2.87,2.59,2.87,2.61-1.05,2.61-2.86-1.21-2.84-2.61-2.84Z"/><path d="M226.57,128.44c1.43,0,2.41,.73,2.86,1.53v-1.4h1.29v7.68h-1.29v-1.43c-.46,.83-1.46,1.55-2.87,1.55-2.04,0-3.63-1.61-3.63-3.99s1.58-3.94,3.64-3.94Zm.25,1.11c-1.4,0-2.59,1.02-2.59,2.83s1.19,2.87,2.59,2.87,2.61-1.05,2.61-2.86-1.2-2.84-2.61-2.84Z"/><path d="M242.38,134.07h-4.26l-.79,2.17h-1.35l3.53-9.71h1.47l3.52,9.71h-1.35l-.78-2.17Zm-2.13-5.97l-1.77,4.93h3.53l-1.76-4.93Z"/><path d="M249.2,132.16h-1.88v4.08h-1.28v-9.76h3.15c2.3,0,3.38,1.26,3.38,2.86,0,1.49-.95,2.83-3.38,2.83Zm0-1.05c1.46,0,2.07-.69,2.07-1.78s-.62-1.81-2.07-1.81h-1.88v3.59h1.88Z"/><path d="M257.25,136.34c-1.96,0-3.35-1.09-3.38-2.7h1.36c.08,.81,.66,1.62,2.02,1.62,1.23,0,1.96-.7,1.96-1.62,0-2.63-5.28-.95-5.28-4.58,0-1.61,1.3-2.7,3.24-2.7s3.08,1.02,3.24,2.51h-1.4c-.08-.66-.7-1.4-1.89-1.42-1.05-.03-1.88,.52-1.88,1.57,0,2.52,5.27,.95,5.27,4.57,0,1.39-1.13,2.76-3.25,2.76Z"/><path d="M262.28,134.47h1.4l-1.57,3.77h-.85l1.02-3.77Z"/><path d="M30.26,153.16c-2.19,0-3.8-1.54-3.8-3.98s1.55-3.95,3.8-3.95,3.68,1.57,3.68,3.67c0,.28-.01,.5-.04,.77h-6.14c.1,1.55,1.19,2.41,2.49,2.41,1.15,0,1.88-.59,2.16-1.42h1.37c-.39,1.4-1.62,2.49-3.53,2.49Zm-2.48-4.52h4.85c.01-1.5-1.11-2.33-2.42-2.33-1.25,0-2.28,.83-2.42,2.33Z"/><path d="M38.33,153.16c-1.79,0-3.05-.98-3.14-2.38h1.32c.07,.74,.73,1.3,1.81,1.3,1.01,0,1.57-.5,1.57-1.13,0-1.71-4.54-.71-4.54-3.57,0-1.18,1.11-2.14,2.81-2.14s2.82,.91,2.9,2.41h-1.28c-.06-.77-.64-1.33-1.67-1.33-.94,0-1.5,.45-1.5,1.06,0,1.82,4.46,.83,4.51,3.57,0,1.26-1.11,2.21-2.8,2.21Z"/><path d="M47.07,145.24c2.06,0,3.64,1.54,3.64,3.94s-1.58,3.99-3.64,3.99c-1.4,0-2.39-.76-2.87-1.54v5.06h-1.27v-11.32h1.27v1.42c.46-.81,1.47-1.54,2.87-1.54Zm-.27,1.11c-1.39,0-2.61,1.06-2.61,2.84s1.22,2.86,2.61,2.86,2.61-1.06,2.61-2.87-1.19-2.83-2.61-2.83Z"/><path d="M55.71,153.16c-2.19,0-3.8-1.54-3.8-3.98s1.55-3.95,3.8-3.95,3.68,1.57,3.68,3.67c0,.28-.01,.5-.04,.77h-6.14c.1,1.55,1.19,2.41,2.49,2.41,1.15,0,1.88-.59,2.16-1.42h1.37c-.39,1.4-1.62,2.49-3.53,2.49Zm-2.48-4.52h4.85c.01-1.5-1.11-2.33-2.42-2.33-1.25,0-2.28,.83-2.42,2.33Z"/><path d="M64.33,145.24c1.91,0,3.15,.98,3.54,2.59h-1.37c-.27-.92-1.04-1.51-2.17-1.51-1.4,0-2.44,1-2.44,2.87s1.04,2.9,2.44,2.9c1.13,0,1.89-.55,2.17-1.51h1.37c-.39,1.53-1.64,2.59-3.54,2.59-2.19,0-3.74-1.54-3.74-3.98s1.55-3.95,3.74-3.95Z"/><path d="M69.35,143.25c0-.49,.38-.87,.87-.87,.46,0,.84,.38,.84,.87s-.38,.87-.84,.87c-.49,0-.87-.38-.87-.87Zm.21,2.12h1.28v7.68h-1.28v-7.68Z"/><path d="M76.17,145.24c1.43,0,2.41,.73,2.86,1.53v-1.4h1.29v7.68h-1.29v-1.43c-.46,.83-1.46,1.55-2.87,1.55-2.04,0-3.63-1.61-3.63-3.99s1.58-3.94,3.64-3.94Zm.25,1.11c-1.4,0-2.59,1.02-2.59,2.83s1.19,2.87,2.59,2.87,2.61-1.05,2.61-2.86-1.21-2.84-2.61-2.84Z"/><path d="M82.47,142.67h1.27v10.37h-1.27v-10.37Z"/><path d="M97,148.7c0-1.57-.84-2.37-2.1-2.37s-2.17,.83-2.17,2.48v4.23h-1.26v-4.34c0-1.57-.84-2.37-2.1-2.37s-2.17,.83-2.17,2.48v4.23h-1.28v-7.68h1.28v1.11c.5-.81,1.41-1.25,2.42-1.25,1.26,0,2.31,.56,2.82,1.71,.45-1.11,1.54-1.71,2.72-1.71,1.75,0,3.11,1.09,3.11,3.29v4.52h-1.26v-4.34Z"/><path d="M103.66,153.16c-2.19,0-3.8-1.54-3.8-3.98s1.55-3.95,3.8-3.95,3.68,1.57,3.68,3.67c0,.28-.01,.5-.04,.77h-6.14c.1,1.55,1.19,2.41,2.49,2.41,1.15,0,1.88-.59,2.16-1.42h1.37c-.39,1.4-1.62,2.49-3.53,2.49Zm-2.48-4.52h4.85c.01-1.5-1.11-2.33-2.42-2.33-1.25,0-2.28,.83-2.42,2.33Z"/><path d="M114.63,148.7c0-1.57-.85-2.37-2.14-2.37s-2.2,.81-2.2,2.46v4.24h-1.28v-7.68h1.28v1.09c.5-.8,1.43-1.23,2.46-1.23,1.78,0,3.14,1.09,3.14,3.29v4.52h-1.26v-4.34Z"/><path d="M118.26,146.41h-.99v-1.05h.99v-1.93h1.27v1.93h2v1.05h-2v4.52c0,.76,.28,1.02,1.07,1.02h.94v1.08h-1.15c-1.36,0-2.13-.56-2.13-2.1v-4.52Z"/><path d="M126.39,153.16c-2.18,0-3.79-1.54-3.79-3.98s1.55-3.95,3.79-3.95,3.69,1.57,3.69,3.67c0,.28-.01,.5-.04,.77h-6.13c.1,1.55,1.19,2.41,2.49,2.41,1.15,0,1.88-.59,2.16-1.42h1.37c-.39,1.4-1.62,2.49-3.53,2.49Zm-2.48-4.52h4.85c.01-1.5-1.11-2.33-2.42-2.33-1.25,0-2.28,.83-2.42,2.33Z"/><path d="M138.81,153.16c-2.19,0-3.8-1.54-3.8-3.98s1.55-3.95,3.8-3.95,3.68,1.57,3.68,3.67c0,.28-.01,.5-.04,.77h-6.13c.1,1.55,1.19,2.41,2.49,2.41,1.15,0,1.88-.59,2.16-1.42h1.37c-.39,1.4-1.62,2.49-3.53,2.49Zm-2.48-4.52h4.85c.01-1.5-1.11-2.33-2.42-2.33-1.25,0-2.28,.83-2.42,2.33Z"/><path d="M155.25,148.7c0-1.57-.84-2.37-2.1-2.37s-2.17,.83-2.17,2.48v4.23h-1.26v-4.34c0-1.57-.84-2.37-2.1-2.37s-2.17,.83-2.17,2.48v4.23h-1.28v-7.68h1.28v1.11c.5-.81,1.41-1.25,2.42-1.25,1.26,0,2.31,.56,2.82,1.71,.45-1.11,1.54-1.71,2.72-1.71,1.75,0,3.11,1.09,3.11,3.29v4.52h-1.26v-4.34Z"/><path d="M163.6,153.04h-1.28v-7.68h1.28v1.25c.43-.85,1.26-1.39,2.48-1.39v1.32h-.34c-1.22,0-2.14,.55-2.14,2.33v4.17Z"/><path d="M170.87,153.16c-2.19,0-3.79-1.54-3.79-3.98s1.55-3.95,3.79-3.95,3.68,1.57,3.68,3.67c0,.28-.01,.5-.04,.77h-6.13c.1,1.55,1.19,2.41,2.49,2.41,1.15,0,1.88-.59,2.16-1.42h1.37c-.39,1.4-1.62,2.49-3.53,2.49Zm-2.48-4.52h4.85c.01-1.5-1.11-2.33-2.42-2.33-1.25,0-2.28,.83-2.42,2.33Z"/><path d="M176.23,142.67h1.28v10.37h-1.28v-10.37Z"/><path d="M182.84,145.24c1.43,0,2.41,.73,2.86,1.53v-1.4h1.29v7.68h-1.29v-1.43c-.46,.83-1.46,1.55-2.87,1.55-2.04,0-3.63-1.61-3.63-3.99s1.58-3.94,3.64-3.94Zm.25,1.11c-1.4,0-2.59,1.02-2.59,2.83s1.19,2.87,2.59,2.87,2.61-1.05,2.61-2.86-1.2-2.84-2.61-2.84Z"/><path d="M192.4,145.24c1.9,0,3.15,.98,3.54,2.59h-1.37c-.27-.92-1.04-1.51-2.17-1.51-1.4,0-2.44,1-2.44,2.87s1.04,2.9,2.44,2.9c1.13,0,1.89-.55,2.17-1.51h1.37c-.37,1.41-1.47,2.44-3.15,2.58v.7c1.08-.01,1.81,.46,1.81,1.39s-.71,1.44-1.71,1.44h-1.61v-.83h1.36c.6,0,.9-.17,.9-.62s-.29-.6-.9-.6h-.7v-1.5c-1.93-.2-3.28-1.7-3.28-3.95,0-2.41,1.55-3.95,3.74-3.95Z"/><path d="M200.8,145.24c1.43,0,2.41,.73,2.86,1.53v-1.4h1.29v7.68h-1.29v-1.43c-.46,.83-1.46,1.55-2.87,1.55-2.04,0-3.63-1.61-3.63-3.99s1.58-3.94,3.64-3.94Zm.25,1.11c-1.4,0-2.59,1.02-2.59,2.83s1.19,2.87,2.59,2.87,2.61-1.05,2.61-2.86-1.21-2.84-2.61-2.84Zm-.41-3.28c.74,0,1.02,.64,1.6,.64,.31,0,.56-.2,.62-.6h.73c-.11,.95-.67,1.46-1.4,1.46s-1.04-.64-1.6-.64c-.31,0-.54,.2-.6,.62h-.74c.14-.97,.67-1.47,1.4-1.47Z"/><path d="M210.45,153.16c-2.17,0-3.82-1.54-3.82-3.98s1.71-3.95,3.88-3.95,3.88,1.53,3.88,3.95-1.75,3.98-3.94,3.98Zm0-1.12c1.33,0,2.63-.91,2.63-2.86s-1.28-2.84-2.59-2.84-2.56,.91-2.56,2.84,1.19,2.86,2.52,2.86Z"/><path d="M222.96,145.24c1.43,0,2.41,.73,2.86,1.53v-1.4h1.29v7.68h-1.29v-1.43c-.46,.83-1.46,1.55-2.87,1.55-2.04,0-3.63-1.61-3.63-3.99s1.58-3.94,3.64-3.94Zm.25,1.11c-1.4,0-2.59,1.02-2.59,2.83s1.19,2.87,2.59,2.87,2.61-1.05,2.61-2.86-1.21-2.84-2.61-2.84Z"/><path d="M232.61,153.16c-2.17,0-3.82-1.54-3.82-3.98s1.71-3.95,3.88-3.95,3.88,1.53,3.88,3.95-1.75,3.98-3.94,3.98Zm0-1.12c1.33,0,2.63-.91,2.63-2.86s-1.28-2.84-2.59-2.84-2.56,.91-2.56,2.84,1.19,2.86,2.52,2.86Z"/><path d="M30.1,162.04c1.43,0,2.41,.73,2.86,1.53v-1.4h1.29v7.68h-1.29v-1.43c-.46,.83-1.46,1.55-2.87,1.55-2.05,0-3.63-1.61-3.63-3.99s1.58-3.94,3.64-3.94Zm.25,1.11c-1.4,0-2.59,1.02-2.59,2.83s1.19,2.87,2.59,2.87,2.61-1.05,2.61-2.86-1.21-2.84-2.61-2.84Z"/><path d="M36.68,163.21h-.99v-1.05h.99v-1.93h1.27v1.93h2v1.05h-2v4.52c0,.76,.28,1.02,1.07,1.02h.94v1.08h-1.15c-1.36,0-2.13-.56-2.13-2.1v-4.52Z"/><path d="M44.81,169.96c-2.18,0-3.8-1.54-3.8-3.98s1.55-3.95,3.8-3.95,3.68,1.57,3.68,3.67c0,.28-.01,.5-.04,.77h-6.13c.1,1.55,1.19,2.41,2.49,2.41,1.15,0,1.88-.59,2.16-1.42h1.37c-.39,1.4-1.62,2.49-3.53,2.49Zm-2.48-4.52h4.85c.01-1.5-1.11-2.33-2.42-2.33-1.25,0-2.28,.83-2.42,2.33Z"/><path d="M55.79,165.5c0-1.57-.85-2.37-2.14-2.37s-2.2,.81-2.2,2.46v4.24h-1.28v-7.68h1.28v1.09c.5-.8,1.43-1.23,2.46-1.23,1.78,0,3.14,1.09,3.14,3.29v4.52h-1.26v-4.34Z"/><path d="M62.31,162.04c1.2,0,2.31,.62,2.84,1.5v-4.06h1.29v10.37h-1.29v-1.44c-.46,.85-1.46,1.57-2.86,1.57-2.06,0-3.64-1.61-3.64-3.99s1.58-3.94,3.66-3.94Zm.24,1.11c-1.4,0-2.59,1.02-2.59,2.83s1.19,2.87,2.59,2.87,2.61-1.05,2.61-2.86-1.21-2.84-2.61-2.84Z"/><path d="M68.39,160.05c0-.49,.38-.87,.87-.87,.46,0,.84,.38,.84,.87s-.38,.87-.84,.87c-.49,0-.87-.38-.87-.87Zm.21,2.12h1.28v7.68h-1.28v-7.68Z"/><path d="M83.12,165.5c0-1.57-.84-2.37-2.1-2.37s-2.17,.83-2.17,2.48v4.23h-1.26v-4.34c0-1.57-.84-2.37-2.1-2.37s-2.17,.83-2.17,2.48v4.23h-1.28v-7.68h1.28v1.11c.5-.81,1.41-1.25,2.42-1.25,1.26,0,2.31,.56,2.82,1.71,.45-1.11,1.54-1.71,2.72-1.71,1.75,0,3.11,1.09,3.11,3.29v4.52h-1.26v-4.34Z"/><path d="M89.78,169.96c-2.19,0-3.8-1.54-3.8-3.98s1.55-3.95,3.8-3.95,3.68,1.57,3.68,3.67c0,.28-.01,.5-.04,.77h-6.14c.1,1.55,1.19,2.41,2.49,2.41,1.15,0,1.88-.59,2.16-1.42h1.37c-.39,1.4-1.62,2.49-3.53,2.49Zm-2.48-4.52h4.85c.01-1.5-1.11-2.33-2.42-2.33-1.25,0-2.28,.83-2.42,2.33Z"/><path d="M100.76,165.5c0-1.57-.85-2.37-2.14-2.37s-2.2,.81-2.2,2.46v4.24h-1.27v-7.68h1.27v1.09c.5-.8,1.43-1.23,2.46-1.23,1.78,0,3.14,1.09,3.14,3.29v4.52h-1.26v-4.34Z"/><path d="M104.38,163.21h-1v-1.05h1v-1.93h1.27v1.93h2v1.05h-2v4.52c0,.76,.28,1.02,1.06,1.02h.94v1.08h-1.15c-1.36,0-2.13-.56-2.13-2.1v-4.52Z"/><path d="M112.55,169.96c-2.17,0-3.82-1.54-3.82-3.98s1.71-3.95,3.88-3.95,3.88,1.53,3.88,3.95-1.75,3.98-3.94,3.98Zm0-1.12c1.33,0,2.63-.91,2.63-2.86s-1.28-2.84-2.59-2.84-2.56,.91-2.56,2.84,1.19,2.86,2.52,2.86Z"/><path d="M125.06,162.04c1.43,0,2.41,.73,2.86,1.53v-1.4h1.29v7.68h-1.29v-1.43c-.46,.83-1.46,1.55-2.87,1.55-2.04,0-3.63-1.61-3.63-3.99s1.58-3.94,3.64-3.94Zm.25,1.11c-1.4,0-2.59,1.02-2.59,2.83s1.19,2.87,2.59,2.87,2.61-1.05,2.61-2.86-1.2-2.84-2.61-2.84Zm-1.37-4.26l2.98,1.75v.95l-2.98-1.6v-1.11Z"/><path d="M138.27,162.04c1.4,0,2.41,.7,2.86,1.53v-1.4h1.29v7.84c0,2.12-1.42,3.61-3.67,3.61-2.02,0-3.46-1.02-3.71-2.66h1.26c.28,.92,1.19,1.55,2.45,1.55,1.36,0,2.38-.87,2.38-2.51v-1.61c-.46,.83-1.46,1.57-2.86,1.57-2.06,0-3.64-1.61-3.64-3.99s1.58-3.94,3.64-3.94Zm.25,1.11c-1.4,0-2.59,1.02-2.59,2.83s1.19,2.87,2.59,2.87,2.61-1.05,2.61-2.86-1.21-2.84-2.61-2.84Z"/><path d="M147.88,169.96c-2.19,0-3.79-1.54-3.79-3.98s1.55-3.95,3.79-3.95,3.68,1.57,3.68,3.67c0,.28-.01,.5-.04,.77h-6.13c.1,1.55,1.19,2.41,2.49,2.41,1.15,0,1.88-.59,2.16-1.42h1.37c-.39,1.4-1.62,2.49-3.53,2.49Zm-2.48-4.52h4.85c.01-1.5-1.11-2.33-2.42-2.33-1.25,0-2.28,.83-2.42,2.33Z"/><path d="M155.96,169.96c-1.79,0-3.05-.98-3.14-2.38h1.32c.07,.74,.73,1.3,1.81,1.3,1.01,0,1.57-.5,1.57-1.13,0-1.71-4.54-.71-4.54-3.57,0-1.18,1.11-2.14,2.82-2.14s2.81,.91,2.9,2.41h-1.27c-.06-.77-.64-1.33-1.67-1.33-.94,0-1.5,.45-1.5,1.06,0,1.82,4.46,.83,4.51,3.57,0,1.26-1.11,2.21-2.8,2.21Z"/><path d="M160.83,163.21h-.99v-1.05h.99v-1.93h1.28v1.93h2v1.05h-2v4.52c0,.76,.28,1.02,1.06,1.02h.94v1.08h-1.15c-1.36,0-2.13-.56-2.13-2.1v-4.52Z"/><path d="M168.81,162.04c1.43,0,2.41,.73,2.86,1.53v-1.4h1.29v7.68h-1.29v-1.43c-.46,.83-1.46,1.55-2.87,1.55-2.04,0-3.63-1.61-3.63-3.99s1.58-3.94,3.64-3.94Zm.25,1.11c-1.4,0-2.59,1.02-2.59,2.83s1.19,2.87,2.59,2.87,2.61-1.05,2.61-2.86-1.21-2.84-2.61-2.84Z"/><path d="M180.73,165.5c0-1.57-.85-2.37-2.14-2.37s-2.2,.81-2.2,2.46v4.24h-1.28v-7.68h1.28v1.09c.5-.8,1.43-1.23,2.46-1.23,1.78,0,3.14,1.09,3.14,3.29v4.52h-1.26v-4.34Z"/><path d="M184.35,163.21h-.99v-1.05h.99v-1.93h1.28v1.93h2v1.05h-2v4.52c0,.76,.28,1.02,1.06,1.02h.94v1.08h-1.15c-1.36,0-2.13-.56-2.13-2.1v-4.52Z"/><path d="M192.49,169.96c-2.19,0-3.8-1.54-3.8-3.98s1.55-3.95,3.8-3.95,3.68,1.57,3.68,3.67c0,.28-.01,.5-.04,.77h-6.13c.1,1.55,1.19,2.41,2.49,2.41,1.15,0,1.88-.59,2.16-1.42h1.37c-.39,1.4-1.62,2.49-3.53,2.49Zm-2.48-4.52h4.85c.01-1.5-1.11-2.33-2.42-2.33-1.25,0-2.28,.83-2.42,2.33Z"/><path d="M198.25,169.92c-.49,0-.87-.38-.87-.87s.38-.87,.87-.87c.46,0,.84,.38,.84,.87s-.38,.87-.84,.87Z"/></g><rect class="cls-3" y="0" width="298" height="64.86"/><g><path class="cls-1" d="M37.75,16.87c2.09-1.64,4.27-3.39,4.27-4.99,0-.59-.27-.95-.8-.95s-.87,.43-.84,1.34h-2.66c.08-2.61,1.78-3.66,3.67-3.66,2.44,0,3.4,1.39,3.4,3.07,0,2.13-1.77,3.88-3.4,5.01h3.5v2.23h-7.14v-2.06Z"/><path class="cls-1" d="M47.37,19.18c-.98,0-1.61-.62-1.61-1.42s.63-1.43,1.61-1.43,1.6,.63,1.6,1.43-.63,1.42-1.6,1.42Z"/><path class="cls-1" d="M57.03,15.73h-1.36v3.33h-2.75V9.19h4.1c2.45,0,3.7,1.39,3.7,3.29,0,1.72-1.19,3.25-3.7,3.25Zm-.27-2.19c.83,0,1.16-.42,1.16-1.06s-.34-1.08-1.16-1.08h-1.09v2.14h1.09Z"/><path class="cls-1" d="M65.48,19.16c-2.34,0-4.1-1.53-4.1-4.03s1.78-4.02,4.12-4.02,4.12,1.53,4.12,4.02-1.79,4.03-4.13,4.03Zm0-2.38c.7,0,1.34-.52,1.34-1.65s-.63-1.64-1.33-1.64-1.32,.52-1.32,1.64,.59,1.65,1.3,1.65Z"/><path class="cls-1" d="M73.64,11.11c1.04,0,1.85,.46,2.28,1.18v-3.59h2.76v10.37h-2.76v-1.09c-.41,.7-1.19,1.19-2.3,1.19-1.86,0-3.35-1.53-3.35-4.03s1.48-4.02,3.36-4.02Zm.87,2.4c-.78,0-1.43,.56-1.43,1.62s.64,1.64,1.43,1.64,1.43-.57,1.43-1.64-.66-1.62-1.43-1.62Z"/><path class="cls-1" d="M83.8,19.16c-2.33,0-3.99-1.53-3.99-4.03s1.64-4.02,3.99-4.02,3.96,1.5,3.96,3.94c0,.21-.01,.43-.04,.64h-5.2c.06,.91,.55,1.27,1.16,1.27,.53,0,.83-.29,.98-.62h2.93c-.36,1.61-1.83,2.82-3.8,2.82Zm-1.26-4.8h2.42c0-.7-.55-1.08-1.18-1.08s-1.12,.36-1.25,1.08Z"/><path class="cls-1" d="M99.58,14.85c0-.85-.52-1.33-1.3-1.33s-1.3,.48-1.3,1.33v4.22h-2.75v-4.22c0-.85-.5-1.33-1.29-1.33s-1.32,.48-1.32,1.33v4.22h-2.75v-7.86h2.75v1.04c.45-.63,1.22-1.11,2.28-1.11,1.18,0,2.1,.53,2.62,1.44,.53-.8,1.46-1.44,2.62-1.44,1.99,0,3.18,1.29,3.18,3.35v4.58h-2.75v-4.22Z"/><path class="cls-1" d="M107.47,19.16c-2.34,0-4.1-1.53-4.1-4.03s1.78-4.02,4.12-4.02,4.12,1.53,4.12,4.02-1.79,4.03-4.13,4.03Zm0-2.38c.7,0,1.34-.52,1.34-1.65s-.63-1.64-1.33-1.64-1.32,.52-1.32,1.64,.59,1.65,1.3,1.65Z"/><path class="cls-1" d="M116.06,19.16c-2.18,0-3.64-1.18-3.75-2.75h2.66c.07,.52,.5,.8,1.08,.8,.46,0,.73-.22,.73-.5,0-1.15-4.17-.21-4.17-3.1,0-1.37,1.13-2.51,3.26-2.51s3.26,1.19,3.45,2.75h-2.48c-.08-.49-.43-.78-1.02-.78-.45,0-.69,.18-.69,.48,0,1.12,4.19,.22,4.2,3.21,0,1.37-1.23,2.41-3.26,2.41Z"/><path class="cls-1" d="M126.26,11.11c1.04,0,1.85,.46,2.28,1.18v-3.59h2.76v10.37h-2.76v-1.09c-.41,.7-1.19,1.19-2.3,1.19-1.86,0-3.35-1.53-3.35-4.03s1.48-4.02,3.36-4.02Zm.87,2.4c-.78,0-1.43,.56-1.43,1.62s.64,1.64,1.43,1.64,1.43-.57,1.43-1.64-.66-1.62-1.43-1.62Z"/><path class="cls-1" d="M132.64,9.08c0-.8,.63-1.43,1.61-1.43s1.6,.63,1.6,1.43-.63,1.4-1.6,1.4-1.61-.62-1.61-1.4Zm.22,2.13h2.75v7.86h-2.75v-7.86Z"/><path class="cls-1" d="M143.02,13.38l-3.24,3.4h3.35v2.28h-6.37v-2.17l3.12-3.4h-3.1v-2.28h6.23v2.17Z"/><path class="cls-1" d="M147.82,19.16c-2.33,0-3.99-1.53-3.99-4.03s1.64-4.02,3.99-4.02,3.96,1.5,3.96,3.94c0,.21-.01,.43-.04,.64h-5.2c.06,.91,.55,1.27,1.16,1.27,.53,0,.83-.29,.98-.62h2.93c-.36,1.61-1.83,2.82-3.8,2.82Zm-1.26-4.8h2.42c0-.7-.55-1.08-1.18-1.08s-1.12,.36-1.25,1.08Z"/><path class="cls-1" d="M155.64,19.07h-2.75v-7.86h2.75v1.39c.59-.85,1.49-1.46,2.54-1.46v2.93h-.77c-1.13,0-1.77,.36-1.77,1.57v3.43Z"/><path class="cls-1" d="M164.91,11.14c.92,0,1.62,.29,2.13,.87v-.8h2.75v11.61h-2.75v-4.68c-.53,.63-1.22,1.02-2.14,1.02-1.89,0-3.52-1.61-3.52-3.99s1.62-4.03,3.53-4.03Zm.7,2.38c-.64,0-1.43,.49-1.43,1.65s.78,1.6,1.43,1.6,1.43-.48,1.43-1.64-.8-1.61-1.43-1.61Z"/><path class="cls-1" d="M179.39,19.07h-2.76v-1.12c-.45,.67-1.27,1.19-2.38,1.19-1.82,0-2.96-1.29-2.96-3.36v-4.57h2.73v4.22c0,.91,.52,1.44,1.3,1.44s1.3-.53,1.3-1.44v-4.22h2.76v7.86Z"/><path class="cls-1" d="M184.5,19.16c-2.33,0-3.99-1.53-3.99-4.03s1.64-4.02,3.99-4.02,3.96,1.5,3.96,3.94c0,.21-.01,.43-.04,.64h-5.2c.06,.91,.55,1.27,1.16,1.27,.53,0,.83-.29,.98-.62h2.93c-.36,1.61-1.83,2.82-3.8,2.82Zm-1.26-4.8h2.42c0-.7-.55-1.08-1.18-1.08s-1.12,.36-1.25,1.08Z"/><path class="cls-1" d="M195.6,19.16c-2.18,0-3.64-1.18-3.75-2.75h2.66c.07,.52,.5,.8,1.08,.8,.46,0,.73-.22,.73-.5,0-1.15-4.17-.21-4.17-3.1,0-1.37,1.13-2.51,3.26-2.51s3.26,1.19,3.45,2.75h-2.48c-.08-.49-.43-.78-1.02-.78-.45,0-.69,.18-.69,.48,0,1.12,4.19,.22,4.2,3.21,0,1.37-1.23,2.41-3.26,2.41Z"/><path class="cls-1" d="M203.1,11.11c1.12,0,1.91,.49,2.31,1.19v-1.09h2.75v7.86h-2.75v-1.09c-.41,.7-1.21,1.19-2.31,1.19-1.86,0-3.35-1.53-3.35-4.03s1.48-4.02,3.35-4.02Zm.2-2.77c.87,0,1.36,.64,1.92,.64,.34,0,.55-.21,.62-.64h1.39c-.28,1.64-1.04,2.27-2.1,2.27-.87,0-1.36-.63-1.92-.63-.34,0-.55,.2-.63,.64h-1.37c.28-1.64,1.04-2.28,2.1-2.28Zm.69,5.17c-.78,0-1.43,.56-1.43,1.62s.64,1.64,1.43,1.64,1.43-.57,1.43-1.64-.66-1.62-1.43-1.62Z"/><path class="cls-1" d="M213.38,19.16c-2.34,0-4.1-1.53-4.1-4.03s1.78-4.02,4.12-4.02,4.12,1.53,4.12,4.02-1.79,4.03-4.13,4.03Zm0-2.38c.7,0,1.34-.52,1.34-1.65s-.63-1.64-1.33-1.64-1.32,.52-1.32,1.64,.59,1.65,1.3,1.65Z"/><path class="cls-1" d="M37.85,25.88c0-.8,.63-1.43,1.61-1.43s1.6,.63,1.6,1.43-.63,1.4-1.6,1.4-1.61-.62-1.61-1.4Zm.22,2.13h2.75v7.86h-2.75v-7.86Z"/><path class="cls-1" d="M47.73,31.65c0-.91-.5-1.44-1.29-1.44s-1.32,.53-1.32,1.44v4.22h-2.75v-7.86h2.75v1.12c.46-.67,1.29-1.19,2.4-1.19,1.82,0,2.96,1.29,2.96,3.35v4.58h-2.75v-4.22Z"/><path class="cls-1" d="M54.9,27.91c1.04,0,1.85,.46,2.28,1.18v-3.59h2.76v10.37h-2.76v-1.09c-.41,.7-1.19,1.19-2.3,1.19-1.86,0-3.35-1.53-3.35-4.03s1.48-4.02,3.36-4.02Zm.87,2.4c-.78,0-1.43,.56-1.43,1.62s.64,1.64,1.43,1.64,1.43-.57,1.43-1.64-.66-1.62-1.43-1.62Z"/><path class="cls-1" d="M61.28,25.88c0-.8,.63-1.43,1.61-1.43s1.6,.63,1.6,1.43-.63,1.4-1.6,1.4-1.61-.62-1.61-1.4Zm.22,2.13h2.75v7.86h-2.75v-7.86Z"/><path class="cls-1" d="M69.35,27.91c1.99,0,3.45,1.13,3.84,3.11h-2.91c-.15-.48-.46-.77-.98-.77-.67,0-1.12,.56-1.12,1.68s.45,1.69,1.12,1.69c.52,0,.83-.28,.98-.77h2.91c-.39,1.95-1.85,3.11-3.84,3.11-2.34,0-3.98-1.53-3.98-4.03s1.64-4.02,3.98-4.02Z"/><path class="cls-1" d="M77.22,27.91c1.12,0,1.9,.49,2.31,1.19v-1.09h2.75v7.86h-2.75v-1.09c-.41,.7-1.2,1.19-2.31,1.19-1.86,0-3.35-1.53-3.35-4.03s1.48-4.02,3.35-4.02Zm.88,2.4c-.78,0-1.43,.56-1.43,1.62s.64,1.64,1.43,1.64,1.43-.57,1.43-1.64-.66-1.62-1.43-1.62Z"/><path class="cls-1" d="M86.75,27.91c1.04,0,1.85,.46,2.28,1.18v-3.59h2.76v10.37h-2.76v-1.09c-.41,.7-1.19,1.19-2.3,1.19-1.86,0-3.35-1.53-3.35-4.03s1.48-4.02,3.36-4.02Zm.87,2.4c-.78,0-1.43,.56-1.43,1.62s.64,1.64,1.43,1.64,1.43-.57,1.43-1.64-.66-1.62-1.43-1.62Z"/><path class="cls-1" d="M97.01,35.96c-2.34,0-4.1-1.53-4.1-4.03s1.78-4.02,4.12-4.02,4.12,1.53,4.12,4.02-1.79,4.03-4.13,4.03Zm0-2.38c.7,0,1.34-.52,1.34-1.65s-.63-1.64-1.33-1.64-1.32,.52-1.32,1.64,.59,1.65,1.3,1.65Z"/><path class="cls-1" d="M105.01,35.87h-2.75v-7.86h2.75v1.39c.59-.85,1.49-1.46,2.54-1.46v2.93h-.77c-1.13,0-1.77,.36-1.77,1.57v3.43Z"/><path class="cls-1" d="M112.06,35.96c-2.33,0-3.99-1.53-3.99-4.03s1.64-4.02,3.99-4.02,3.96,1.5,3.96,3.94c0,.21-.01,.43-.04,.64h-5.2c.06,.91,.55,1.27,1.16,1.27,.53,0,.83-.29,.98-.62h2.93c-.36,1.61-1.83,2.82-3.8,2.82Zm-1.26-4.8h2.42c0-.7-.55-1.08-1.18-1.08s-1.12,.36-1.25,1.08Z"/><path class="cls-1" d="M120.49,35.96c-2.18,0-3.64-1.18-3.75-2.75h2.66c.07,.52,.5,.8,1.08,.8,.46,0,.73-.22,.73-.5,0-1.15-4.17-.21-4.17-3.1,0-1.37,1.13-2.51,3.26-2.51s3.26,1.19,3.45,2.75h-2.48c-.08-.49-.43-.78-1.02-.78-.45,0-.69,.18-.69,.48,0,1.12,4.19,.22,4.2,3.21,0,1.37-1.23,2.41-3.26,2.41Z"/><path class="cls-1" d="M130.51,35.87h-2.75v-7.86h2.75v1.39c.59-.85,1.49-1.46,2.54-1.46v2.93h-.77c-1.13,0-1.77,.36-1.77,1.57v3.43Z"/><path class="cls-1" d="M137.57,35.96c-2.33,0-3.99-1.53-3.99-4.03s1.64-4.02,3.99-4.02,3.96,1.5,3.96,3.94c0,.21-.01,.43-.04,.64h-5.2c.06,.91,.55,1.27,1.16,1.27,.53,0,.83-.29,.98-.62h2.93c-.36,1.61-1.83,2.82-3.8,2.82Zm-1.26-4.8h2.42c0-.7-.55-1.08-1.18-1.08s-1.12,.36-1.25,1.08Z"/><path class="cls-1" d="M142.9,30.29h-.85v-2.28h.85v-.07c0-2.17,1.42-3.29,3.96-3.11v2.34c-.83-.08-1.16,.14-1.2,.84h1.23v2.28h-1.23v5.58h-2.76v-5.58Z"/><path class="cls-1" d="M151.42,35.96c-2.33,0-3.99-1.53-3.99-4.03s1.64-4.02,3.99-4.02,3.96,1.5,3.96,3.94c0,.21-.01,.43-.04,.64h-5.2c.06,.91,.55,1.27,1.16,1.27,.53,0,.83-.29,.98-.62h2.93c-.36,1.61-1.83,2.82-3.8,2.82Zm-1.26-4.8h2.42c0-.7-.55-1.08-1.18-1.08s-1.12,.36-1.25,1.08Z"/><path class="cls-1" d="M159.24,35.87h-2.75v-7.86h2.75v1.39c.59-.85,1.49-1.46,2.54-1.46v2.93h-.77c-1.13,0-1.77,.36-1.77,1.57v3.43Z"/><path class="cls-1" d="M166.3,35.96c-2.33,0-3.99-1.53-3.99-4.03s1.64-4.02,3.99-4.02,3.96,1.5,3.96,3.94c0,.21-.01,.43-.04,.64h-5.2c.06,.91,.55,1.27,1.16,1.27,.53,0,.83-.29,.98-.62h2.93c-.36,1.61-1.83,2.82-3.8,2.82Zm-1.26-4.8h2.42c0-.7-.55-1.08-1.18-1.08s-1.12,.36-1.25,1.08Z"/><path class="cls-1" d="M176.73,31.65c0-.91-.5-1.44-1.29-1.44s-1.32,.53-1.32,1.44v4.22h-2.75v-7.86h2.75v1.12c.46-.67,1.29-1.19,2.4-1.19,1.82,0,2.96,1.29,2.96,3.35v4.58h-2.75v-4.22Z"/><path class="cls-1" d="M181.42,30.29h-.97v-2.28h.97v-1.9h2.76v1.9h1.43v2.28h-1.43v2.63c0,.42,.18,.6,.64,.6h.8v2.34h-1.19c-1.74,0-3.01-.73-3.01-2.98v-2.59Z"/><path class="cls-1" d="M190.42,35.96c-2.33,0-3.99-1.53-3.99-4.03s1.64-4.02,3.99-4.02,3.96,1.5,3.96,3.94c0,.21-.01,.43-.04,.64h-5.2c.06,.91,.55,1.27,1.16,1.27,.53,0,.83-.29,.98-.62h2.93c-.36,1.61-1.83,2.82-3.8,2.82Zm-1.26-4.8h2.42c0-.7-.55-1.08-1.18-1.08s-1.12,.36-1.25,1.08Z"/><path class="cls-1" d="M198.85,35.96c-2.18,0-3.64-1.18-3.75-2.75h2.66c.07,.52,.5,.8,1.08,.8,.46,0,.73-.22,.73-.5,0-1.15-4.17-.21-4.17-3.1,0-1.37,1.13-2.51,3.26-2.51s3.26,1.19,3.45,2.75h-2.48c-.08-.49-.43-.78-1.02-.78-.45,0-.69,.18-.69,.48,0,1.12,4.19,.22,4.2,3.21,0,1.37-1.23,2.41-3.26,2.41Z"/><path class="cls-1" d="M209.02,27.91c1.12,0,1.91,.49,2.31,1.19v-1.09h2.75v7.86h-2.75v-1.09c-.41,.7-1.21,1.19-2.31,1.19-1.86,0-3.35-1.53-3.35-4.03s1.48-4.02,3.35-4.02Zm.88,2.4c-.78,0-1.43,.56-1.43,1.62s.64,1.64,1.43,1.64,1.43-.57,1.43-1.64-.66-1.62-1.43-1.62Z"/><path class="cls-1" d="M226.36,35.87h-2.76v-1.12c-.45,.67-1.27,1.19-2.38,1.19-1.82,0-2.96-1.29-2.96-3.36v-4.57h2.73v4.22c0,.91,.52,1.44,1.3,1.44s1.3-.53,1.3-1.44v-4.22h2.76v7.86Z"/><path class="cls-1" d="M238.63,31.65c0-.85-.52-1.33-1.3-1.33s-1.3,.48-1.3,1.33v4.22h-2.75v-4.22c0-.85-.5-1.33-1.29-1.33s-1.32,.48-1.32,1.33v4.22h-2.75v-7.86h2.75v1.04c.45-.63,1.22-1.11,2.28-1.11,1.18,0,2.1,.53,2.62,1.44,.53-.8,1.46-1.44,2.62-1.44,1.99,0,3.18,1.29,3.18,3.35v4.58h-2.75v-4.22Z"/><path class="cls-1" d="M245.76,27.91c1.12,0,1.91,.49,2.31,1.19v-1.09h2.75v7.86h-2.75v-1.09c-.41,.7-1.2,1.19-2.31,1.19-1.86,0-3.35-1.53-3.35-4.03s1.49-4.02,3.35-4.02Zm.88,2.4c-.78,0-1.43,.56-1.43,1.62s.64,1.64,1.43,1.64,1.43-.57,1.43-1.64-.66-1.62-1.43-1.62Z"/><path class="cls-1" d="M48.77,48.45c0-.85-.52-1.33-1.3-1.33s-1.3,.48-1.3,1.33v4.22h-2.75v-4.22c0-.85-.5-1.33-1.29-1.33s-1.32,.48-1.32,1.33v4.22h-2.75v-7.86h2.75v1.04c.45-.63,1.22-1.11,2.28-1.11,1.18,0,2.1,.53,2.62,1.44,.53-.8,1.46-1.44,2.62-1.44,1.99,0,3.18,1.29,3.18,3.35v4.58h-2.75v-4.22Z"/><path class="cls-1" d="M56.55,52.76c-2.33,0-3.99-1.53-3.99-4.03s1.64-4.02,3.99-4.02,3.96,1.5,3.96,3.94c0,.21-.01,.43-.04,.64h-5.2c.06,.91,.55,1.27,1.16,1.27,.53,0,.83-.29,.98-.62h2.93c-.36,1.61-1.83,2.82-3.8,2.82Zm-1.26-4.8h2.42c0-.7-.55-1.08-1.18-1.08s-1.12,.36-1.25,1.08Z"/><path class="cls-1" d="M64.98,52.76c-2.18,0-3.64-1.18-3.75-2.75h2.66c.07,.52,.5,.8,1.08,.8,.46,0,.73-.22,.73-.5,0-1.15-4.17-.21-4.17-3.1,0-1.37,1.13-2.51,3.26-2.51s3.26,1.19,3.45,2.75h-2.48c-.08-.49-.43-.78-1.02-.78-.45,0-.69,.18-.69,.48,0,1.12,4.19,.22,4.2,3.21,0,1.37-1.23,2.41-3.26,2.41Z"/><path class="cls-1" d="M80.29,48.45c0-.85-.52-1.33-1.3-1.33s-1.3,.48-1.3,1.33v4.22h-2.75v-4.22c0-.85-.5-1.33-1.29-1.33s-1.32,.48-1.32,1.33v4.22h-2.75v-7.86h2.75v1.04c.45-.63,1.22-1.11,2.28-1.11,1.18,0,2.1,.53,2.62,1.44,.53-.8,1.46-1.44,2.62-1.44,1.99,0,3.18,1.29,3.18,3.35v4.58h-2.75v-4.22Z"/><path class="cls-1" d="M87.42,44.71c1.12,0,1.9,.49,2.31,1.19v-1.09h2.75v7.86h-2.75v-1.09c-.41,.7-1.2,1.19-2.31,1.19-1.86,0-3.35-1.53-3.35-4.03s1.48-4.02,3.35-4.02Zm.88,2.4c-.78,0-1.43,.56-1.43,1.62s.64,1.64,1.43,1.64,1.43-.57,1.43-1.64-.66-1.62-1.43-1.62Z"/><path class="cls-1" d="M96.49,42.68c0-.8,.63-1.43,1.61-1.43s1.6,.63,1.6,1.43-.63,1.4-1.6,1.4-1.61-.62-1.61-1.4Zm.22,2.13h2.75v7.86h-2.75v-7.86Z"/><path class="cls-1" d="M106.38,48.45c0-.91-.5-1.44-1.29-1.44s-1.32,.53-1.32,1.44v4.22h-2.75v-7.86h2.75v1.12c.46-.67,1.29-1.19,2.4-1.19,1.82,0,2.96,1.29,2.96,3.35v4.58h-2.75v-4.22Z"/><path class="cls-1" d="M111.07,47.09h-.97v-2.28h.97v-1.9h2.76v1.9h1.43v2.28h-1.43v2.63c0,.42,.18,.6,.64,.6h.8v2.34h-1.19c-1.74,0-3.01-.73-3.01-2.98v-2.59Z"/><path class="cls-1" d="M120.07,52.76c-2.33,0-3.99-1.53-3.99-4.03s1.64-4.02,3.99-4.02,3.96,1.5,3.96,3.94c0,.21-.01,.43-.04,.64h-5.2c.06,.91,.55,1.27,1.16,1.27,.53,0,.83-.29,.98-.62h2.93c-.36,1.61-1.83,2.82-3.8,2.82Zm-1.26-4.8h2.42c0-.7-.55-1.08-1.18-1.08s-1.12,.36-1.25,1.08Z"/><path class="cls-1" d="M127.9,52.67h-2.75v-7.86h2.75v1.39c.59-.85,1.48-1.46,2.54-1.46v2.93h-.77c-1.13,0-1.76,.36-1.76,1.57v3.43Z"/><path class="cls-1" d="M133.68,44.81l1.5,5.27,1.47-5.27h2.93l-2.7,7.86h-3.42l-2.7-7.86h2.93Z"/><path class="cls-1" d="M144.04,52.76c-2.33,0-3.99-1.53-3.99-4.03s1.64-4.02,3.99-4.02,3.96,1.5,3.96,3.94c0,.21-.01,.43-.04,.64h-5.2c.06,.91,.55,1.27,1.16,1.27,.53,0,.83-.29,.98-.62h2.93c-.36,1.61-1.83,2.82-3.8,2.82Zm-1.26-4.8h2.42c0-.7-.55-1.08-1.18-1.08s-1.12,.36-1.25,1.08Z"/><path class="cls-1" d="M154.47,48.45c0-.91-.5-1.44-1.29-1.44s-1.32,.53-1.32,1.44v4.22h-2.75v-7.86h2.75v1.12c.46-.67,1.29-1.19,2.4-1.19,1.82,0,2.96,1.29,2.96,3.35v4.58h-2.75v-4.22Z"/><path class="cls-1" d="M162.25,44.71c1.99,0,3.45,1.13,3.84,3.11h-2.91c-.15-.48-.46-.77-.98-.77-.67,0-1.12,.56-1.12,1.68s.45,1.69,1.12,1.69c.52,0,.83-.28,.98-.77h2.91c-.34,1.67-1.46,2.76-3.03,3.04v.49c.76,0,1.82,.41,1.82,1.65s-1.08,1.67-2.03,1.67h-2.28v-1.44h1.96c.29,0,.46-.1,.46-.29,0-.21-.17-.29-.46-.29h-1.09v-1.78c-1.89-.31-3.17-1.76-3.17-3.96,0-2.49,1.64-4.02,3.98-4.02Z"/><path class="cls-1" d="M170.12,44.71c1.12,0,1.91,.49,2.31,1.19v-1.09h2.75v7.86h-2.75v-1.09c-.41,.7-1.21,1.19-2.31,1.19-1.86,0-3.35-1.53-3.35-4.03s1.48-4.02,3.35-4.02Zm.2-2.77c.87,0,1.36,.64,1.92,.64,.34,0,.55-.21,.62-.64h1.39c-.28,1.64-1.04,2.27-2.1,2.27-.87,0-1.36-.63-1.92-.63-.34,0-.55,.2-.63,.64h-1.37c.28-1.64,1.04-2.28,2.1-2.28Zm.69,5.17c-.78,0-1.43,.56-1.43,1.62s.64,1.64,1.43,1.64,1.43-.57,1.43-1.64-.66-1.62-1.43-1.62Z"/><path class="cls-1" d="M180.4,52.76c-2.34,0-4.1-1.53-4.1-4.03s1.78-4.02,4.12-4.02,4.12,1.53,4.12,4.02-1.79,4.03-4.13,4.03Zm0-2.38c.7,0,1.34-.52,1.34-1.65s-.63-1.64-1.33-1.64-1.32,.52-1.32,1.64,.59,1.65,1.3,1.65Z"/><path class="cls-1" d="M188.64,42.06c1.96,0,3.38,1.02,3.38,3.03,0,1.74-1.27,2.76-3.08,2.79l-.07,1.02h-2.42l-.08-2.79h1.01c1.19,0,1.99-.22,1.96-1.04-.01-.49-.31-.77-.76-.77-.55,0-.8,.36-.8,.85h-2.59c-.06-1.68,1.09-3.1,3.46-3.1Zm-.97,10.72c-.98,0-1.61-.62-1.61-1.41s.63-1.43,1.61-1.43,1.6,.63,1.6,1.43-.63,1.41-1.6,1.41Z"/></g><rect class="cls-2" y="0" width="298" height="242"/></svg>