<?xml version="1.0" encoding="UTF-8"?><svg id="Camada_1" xmlns="http://www.w3.org/2000/svg" viewBox="0 0 298 242"><defs><style>.cls-1{fill:#54bfcd;}.cls-2{fill:#fff;}.cls-3{fill:none;stroke:#54bfcd;stroke-miterlimit:10;}</style></defs><g><g><path d="M31.35,85.94c-2.75,0-4.9-2.06-4.9-4.99s2.16-4.99,4.9-4.99,4.9,2.06,4.9,4.99-2.14,4.99-4.9,4.99Zm0-1.11c2.06,0,3.6-1.5,3.6-3.88s-1.54-3.88-3.6-3.88-3.6,1.49-3.6,3.88,1.54,3.88,3.6,3.88Z"/><path d="M40.65,85.96c-1.79,0-3.05-.98-3.14-2.38h1.32c.07,.74,.73,1.3,1.81,1.3,1.01,0,1.57-.5,1.57-1.13,0-1.71-4.54-.71-4.54-3.57,0-1.18,1.11-2.14,2.82-2.14s2.82,.91,2.9,2.41h-1.27c-.06-.77-.64-1.33-1.67-1.33-.94,0-1.5,.45-1.5,1.06,0,1.82,4.45,.83,4.51,3.57,0,1.26-1.11,2.21-2.8,2.21Z"/><path d="M52.15,78.03c1.2,0,2.31,.62,2.84,1.5v-4.06h1.29v10.37h-1.29v-1.44c-.46,.85-1.46,1.57-2.86,1.57-2.06,0-3.64-1.61-3.64-3.99s1.58-3.94,3.66-3.94Zm.24,1.11c-1.4,0-2.59,1.02-2.59,2.83s1.19,2.87,2.59,2.87,2.61-1.05,2.61-2.86-1.21-2.84-2.61-2.84Z"/><path d="M61.79,85.96c-2.17,0-3.82-1.54-3.82-3.98s1.71-3.95,3.88-3.95,3.88,1.53,3.88,3.95-1.75,3.98-3.94,3.98Zm0-1.12c1.33,0,2.63-.91,2.63-2.86s-1.27-2.84-2.59-2.84-2.56,.91-2.56,2.84,1.19,2.86,2.52,2.86Z"/><path d="M67.19,76.05c0-.49,.38-.87,.87-.87,.46,0,.84,.38,.84,.87s-.38,.87-.84,.87c-.49,0-.87-.38-.87-.87Zm.21,2.12h1.27v7.68h-1.27v-7.68Z"/><path d="M73.56,85.96c-1.79,0-3.05-.98-3.14-2.38h1.32c.07,.74,.73,1.3,1.81,1.3,1.01,0,1.57-.5,1.57-1.13,0-1.71-4.54-.71-4.54-3.57,0-1.18,1.11-2.14,2.82-2.14s2.82,.91,2.9,2.41h-1.27c-.06-.77-.64-1.33-1.67-1.33-.94,0-1.5,.45-1.5,1.06,0,1.82,4.46,.83,4.51,3.57,0,1.26-1.11,2.21-2.8,2.21Z"/><path d="M81.68,76.05c0-.49,.38-.87,.87-.87,.46,0,.84,.38,.84,.87s-.38,.87-.84,.87c-.49,0-.87-.38-.87-.87Zm.21,2.12h1.27v7.68h-1.27v-7.68Z"/><path d="M90.95,81.49c0-1.57-.85-2.37-2.14-2.37s-2.2,.81-2.2,2.46v4.24h-1.28v-7.68h1.28v1.09c.5-.8,1.43-1.23,2.46-1.23,1.78,0,3.14,1.09,3.14,3.29v4.52h-1.26v-4.34Z"/><path d="M97.47,78.03c1.2,0,2.31,.62,2.84,1.5v-4.06h1.29v10.37h-1.29v-1.44c-.46,.85-1.46,1.57-2.86,1.57-2.06,0-3.64-1.61-3.64-3.99s1.58-3.94,3.66-3.94Zm.24,1.11c-1.4,0-2.59,1.02-2.59,2.83s1.19,2.87,2.59,2.87,2.61-1.05,2.61-2.86-1.21-2.84-2.61-2.84Z"/><path d="M103.55,76.05c0-.49,.38-.87,.87-.87,.46,0,.84,.38,.84,.87s-.38,.87-.84,.87c-.49,0-.87-.38-.87-.87Zm.21,2.12h1.28v7.68h-1.28v-7.68Z"/><path d="M110.46,78.03c1.91,0,3.15,.98,3.54,2.59h-1.37c-.27-.92-1.04-1.51-2.17-1.51-1.4,0-2.44,1-2.44,2.87s1.04,2.9,2.44,2.9c1.13,0,1.89-.55,2.17-1.51h1.37c-.39,1.53-1.64,2.59-3.54,2.59-2.18,0-3.74-1.54-3.74-3.98s1.55-3.95,3.74-3.95Z"/><path d="M118.86,78.03c1.43,0,2.41,.73,2.86,1.53v-1.4h1.29v7.68h-1.29v-1.43c-.46,.83-1.46,1.55-2.87,1.55-2.04,0-3.63-1.61-3.63-3.99s1.58-3.94,3.64-3.94Zm.25,1.11c-1.4,0-2.59,1.02-2.59,2.83s1.19,2.87,2.59,2.87,2.61-1.05,2.61-2.86-1.21-2.84-2.61-2.84Z"/><path d="M128.34,78.03c1.21,0,2.31,.62,2.84,1.5v-4.06h1.29v10.37h-1.29v-1.44c-.46,.85-1.46,1.57-2.86,1.57-2.06,0-3.64-1.61-3.64-3.99s1.58-3.94,3.66-3.94Zm.24,1.11c-1.4,0-2.59,1.02-2.59,2.83s1.19,2.87,2.59,2.87,2.61-1.05,2.61-2.86-1.2-2.84-2.61-2.84Z"/><path d="M137.97,85.96c-2.17,0-3.82-1.54-3.82-3.98s1.71-3.95,3.88-3.95,3.88,1.53,3.88,3.95-1.75,3.98-3.94,3.98Zm0-1.12c1.33,0,2.63-.91,2.63-2.86s-1.27-2.84-2.59-2.84-2.56,.91-2.56,2.84,1.19,2.86,2.52,2.86Z"/><path d="M144.86,85.84h-1.28v-7.68h1.28v1.25c.43-.85,1.26-1.39,2.48-1.39v1.32h-.34c-1.22,0-2.14,.55-2.14,2.33v4.17Z"/><path d="M152.13,85.96c-2.19,0-3.8-1.54-3.8-3.98s1.55-3.95,3.8-3.95,3.68,1.57,3.68,3.67c0,.28-.01,.5-.04,.77h-6.13c.1,1.55,1.19,2.41,2.49,2.41,1.15,0,1.88-.59,2.16-1.42h1.37c-.39,1.4-1.62,2.49-3.53,2.49Zm-2.48-4.52h4.85c.01-1.5-1.11-2.33-2.42-2.33-1.25,0-2.28,.83-2.42,2.33Z"/><path d="M160.2,85.96c-1.79,0-3.05-.98-3.14-2.38h1.32c.07,.74,.73,1.3,1.81,1.3,1.01,0,1.57-.5,1.57-1.13,0-1.71-4.54-.71-4.54-3.57,0-1.18,1.11-2.14,2.82-2.14s2.82,.91,2.9,2.41h-1.27c-.06-.77-.64-1.33-1.67-1.33-.94,0-1.5,.45-1.5,1.06,0,1.82,4.46,.83,4.51,3.57,0,1.26-1.11,2.21-2.8,2.21Z"/><path d="M172.68,78.03c2.06,0,3.64,1.54,3.64,3.94s-1.58,3.99-3.64,3.99c-1.4,0-2.4-.76-2.87-1.54v5.06h-1.28v-11.32h1.28v1.42c.46-.81,1.47-1.54,2.87-1.54Zm-.27,1.11c-1.39,0-2.61,1.06-2.61,2.84s1.22,2.86,2.61,2.86,2.61-1.06,2.61-2.87-1.19-2.83-2.61-2.83Z"/><path d="M181.35,85.96c-2.17,0-3.82-1.54-3.82-3.98s1.71-3.95,3.88-3.95,3.88,1.53,3.88,3.95-1.75,3.98-3.94,3.98Zm0-1.12c1.33,0,2.63-.91,2.63-2.86s-1.27-2.84-2.59-2.84-2.56,.91-2.56,2.84,1.19,2.86,2.52,2.86Z"/><path d="M190.14,78.03c1.21,0,2.31,.62,2.84,1.5v-4.06h1.29v10.37h-1.29v-1.44c-.46,.85-1.46,1.57-2.86,1.57-2.06,0-3.64-1.61-3.64-3.99s1.58-3.94,3.66-3.94Zm.24,1.11c-1.4,0-2.59,1.02-2.59,2.83s1.19,2.87,2.59,2.87,2.61-1.05,2.61-2.86-1.2-2.84-2.61-2.84Z"/><path d="M199.74,85.96c-2.19,0-3.8-1.54-3.8-3.98s1.55-3.95,3.8-3.95,3.68,1.57,3.68,3.67c0,.28-.01,.5-.04,.77h-6.13c.1,1.55,1.19,2.41,2.49,2.41,1.15,0,1.88-.59,2.16-1.42h1.37c-.39,1.4-1.62,2.49-3.53,2.49Zm-2.48-4.52h4.85c.01-1.5-1.11-2.33-2.42-2.33-1.25,0-2.28,.83-2.42,2.33Z"/><path d="M216.18,81.49c0-1.57-.84-2.37-2.1-2.37s-2.17,.83-2.17,2.48v4.23h-1.26v-4.34c0-1.57-.84-2.37-2.1-2.37s-2.17,.83-2.17,2.48v4.23h-1.28v-7.68h1.28v1.11c.5-.81,1.41-1.25,2.42-1.25,1.26,0,2.31,.56,2.82,1.71,.45-1.11,1.54-1.71,2.72-1.71,1.75,0,3.11,1.09,3.11,3.29v4.52h-1.26v-4.34Z"/><path d="M28.2,102.64h-1.28v-7.68h1.28v1.25c.43-.85,1.26-1.39,2.48-1.39v1.32h-.34c-1.22,0-2.14,.55-2.14,2.33v4.17Z"/><path d="M35.47,102.76c-2.18,0-3.8-1.54-3.8-3.98s1.55-3.95,3.8-3.95,3.68,1.57,3.68,3.67c0,.28-.01,.5-.04,.77h-6.13c.1,1.55,1.19,2.41,2.49,2.41,1.15,0,1.88-.59,2.16-1.42h1.37c-.39,1.4-1.62,2.49-3.53,2.49Zm-2.48-4.52h4.85c.01-1.5-1.11-2.33-2.42-2.33-1.25,0-2.28,.83-2.42,2.33Z"/><path d="M44.97,94.83c2.06,0,3.64,1.54,3.64,3.94s-1.58,3.99-3.64,3.99c-1.4,0-2.4-.76-2.87-1.54v5.06h-1.27v-11.32h1.27v1.42c.46-.81,1.47-1.54,2.87-1.54Zm-.27,1.11c-1.39,0-2.6,1.06-2.6,2.84s1.22,2.86,2.6,2.86,2.61-1.06,2.61-2.87-1.19-2.83-2.61-2.83Z"/><path d="M51.57,102.64h-1.28v-7.68h1.28v1.25c.43-.85,1.26-1.39,2.48-1.39v1.32h-.34c-1.22,0-2.14,.55-2.14,2.33v4.17Z"/><path d="M58.83,102.76c-2.18,0-3.8-1.54-3.8-3.98s1.55-3.95,3.8-3.95,3.68,1.57,3.68,3.67c0,.28-.01,.5-.04,.77h-6.13c.1,1.55,1.19,2.41,2.49,2.41,1.15,0,1.88-.59,2.16-1.42h1.37c-.39,1.4-1.62,2.49-3.53,2.49Zm-2.48-4.52h4.85c.01-1.5-1.11-2.33-2.42-2.33-1.25,0-2.28,.83-2.42,2.33Z"/><path d="M66.91,102.76c-1.79,0-3.05-.98-3.14-2.38h1.32c.07,.74,.73,1.3,1.81,1.3,1.01,0,1.57-.5,1.57-1.13,0-1.71-4.54-.71-4.54-3.57,0-1.18,1.11-2.14,2.82-2.14s2.82,.91,2.9,2.41h-1.27c-.06-.77-.64-1.33-1.67-1.33-.94,0-1.5,.45-1.5,1.06,0,1.82,4.46,.83,4.51,3.57,0,1.26-1.11,2.21-2.8,2.21Z"/><path d="M74.82,102.76c-2.19,0-3.8-1.54-3.8-3.98s1.55-3.95,3.8-3.95,3.68,1.57,3.68,3.67c0,.28-.01,.5-.04,.77h-6.14c.1,1.55,1.19,2.41,2.49,2.41,1.15,0,1.88-.59,2.16-1.42h1.37c-.39,1.4-1.62,2.49-3.53,2.49Zm-2.48-4.52h4.85c.01-1.5-1.11-2.33-2.42-2.33-1.25,0-2.28,.83-2.42,2.33Z"/><path d="M85.8,98.29c0-1.57-.85-2.37-2.14-2.37s-2.2,.81-2.2,2.46v4.24h-1.28v-7.68h1.28v1.09c.5-.8,1.43-1.23,2.46-1.23,1.78,0,3.14,1.09,3.14,3.29v4.52h-1.26v-4.34Z"/><path d="M89.42,96.01h-.99v-1.05h.99v-1.93h1.28v1.93h2v1.05h-2v4.52c0,.76,.28,1.02,1.06,1.02h.94v1.08h-1.15c-1.36,0-2.13-.56-2.13-2.1v-4.52Z"/><path d="M97.4,94.83c1.43,0,2.41,.73,2.86,1.53v-1.4h1.29v7.68h-1.29v-1.43c-.46,.83-1.46,1.55-2.87,1.55-2.05,0-3.63-1.61-3.63-3.99s1.58-3.94,3.64-3.94Zm.25,1.11c-1.4,0-2.59,1.02-2.59,2.83s1.19,2.87,2.59,2.87,2.61-1.05,2.61-2.86-1.21-2.84-2.61-2.84Z"/><path d="M104.97,102.64h-1.27v-7.68h1.27v1.25c.43-.85,1.26-1.39,2.48-1.39v1.32h-.34c-1.22,0-2.14,.55-2.14,2.33v4.17Z"/><path d="M115.82,94.83c1.43,0,2.41,.73,2.86,1.53v-1.4h1.29v7.68h-1.29v-1.43c-.46,.83-1.46,1.55-2.87,1.55-2.05,0-3.63-1.61-3.63-3.99s1.58-3.94,3.64-3.94Zm.25,1.11c-1.4,0-2.59,1.02-2.59,2.83s1.19,2.87,2.59,2.87,2.61-1.05,2.61-2.86-1.21-2.84-2.61-2.84Z"/><path d="M136.94,98.29c0-1.57-.84-2.37-2.1-2.37s-2.17,.83-2.17,2.48v4.23h-1.26v-4.34c0-1.57-.84-2.37-2.1-2.37s-2.17,.83-2.17,2.48v4.23h-1.28v-7.68h1.28v1.11c.5-.81,1.41-1.25,2.42-1.25,1.26,0,2.31,.56,2.82,1.71,.45-1.11,1.54-1.71,2.72-1.71,1.75,0,3.11,1.09,3.11,3.29v4.52h-1.26v-4.34Z"/><path d="M143.6,102.76c-2.19,0-3.8-1.54-3.8-3.98s1.55-3.95,3.8-3.95,3.68,1.57,3.68,3.67c0,.28-.01,.5-.04,.77h-6.13c.1,1.55,1.19,2.41,2.49,2.41,1.15,0,1.88-.59,2.16-1.42h1.37c-.39,1.4-1.62,2.49-3.53,2.49Zm-2.48-4.52h4.85c.01-1.5-1.11-2.33-2.42-2.33-1.25,0-2.28,.83-2.42,2.33Z"/><path d="M151.68,102.76c-1.79,0-3.05-.98-3.14-2.38h1.32c.07,.74,.73,1.3,1.81,1.3,1.01,0,1.57-.5,1.57-1.13,0-1.71-4.54-.71-4.54-3.57,0-1.18,1.11-2.14,2.82-2.14s2.82,.91,2.9,2.41h-1.27c-.06-.77-.64-1.33-1.67-1.33-.94,0-1.5,.45-1.5,1.06,0,1.82,4.46,.83,4.51,3.57,0,1.26-1.11,2.21-2.8,2.21Z"/><path d="M167.35,98.29c0-1.57-.84-2.37-2.1-2.37s-2.17,.83-2.17,2.48v4.23h-1.26v-4.34c0-1.57-.84-2.37-2.1-2.37s-2.17,.83-2.17,2.48v4.23h-1.28v-7.68h1.28v1.11c.5-.81,1.41-1.25,2.42-1.25,1.26,0,2.31,.56,2.82,1.71,.45-1.11,1.54-1.71,2.72-1.71,1.75,0,3.11,1.09,3.11,3.29v4.52h-1.26v-4.34Z"/><path d="M173.85,94.83c1.43,0,2.41,.73,2.86,1.53v-1.4h1.29v7.68h-1.29v-1.43c-.46,.83-1.46,1.55-2.87,1.55-2.04,0-3.63-1.61-3.63-3.99s1.58-3.94,3.64-3.94Zm.25,1.11c-1.4,0-2.59,1.02-2.59,2.83s1.19,2.87,2.59,2.87,2.61-1.05,2.61-2.86-1.2-2.84-2.61-2.84Z"/><path d="M183.68,92.85c0-.49,.38-.87,.87-.87,.46,0,.84,.38,.84,.87s-.38,.87-.84,.87c-.49,0-.87-.38-.87-.87Zm.21,2.12h1.28v7.68h-1.28v-7.68Z"/><path d="M192.95,98.29c0-1.57-.85-2.37-2.14-2.37s-2.2,.81-2.2,2.46v4.24h-1.28v-7.68h1.28v1.09c.5-.8,1.43-1.23,2.46-1.23,1.78,0,3.14,1.09,3.14,3.29v4.52h-1.26v-4.34Z"/><path d="M196.57,96.01h-.99v-1.05h.99v-1.93h1.28v1.93h2v1.05h-2v4.52c0,.76,.28,1.02,1.06,1.02h.94v1.08h-1.15c-1.36,0-2.13-.56-2.13-2.1v-4.52Z"/><path d="M204.71,102.76c-2.19,0-3.8-1.54-3.8-3.98s1.55-3.95,3.8-3.95,3.68,1.57,3.68,3.67c0,.28-.01,.5-.04,.77h-6.13c.1,1.55,1.19,2.41,2.49,2.41,1.15,0,1.88-.59,2.16-1.42h1.37c-.39,1.4-1.62,2.49-3.53,2.49Zm-2.48-4.52h4.85c.01-1.5-1.11-2.33-2.42-2.33-1.25,0-2.28,.83-2.42,2.33Z"/><path d="M211.34,102.64h-1.28v-7.68h1.28v1.25c.43-.85,1.26-1.39,2.48-1.39v1.32h-.34c-1.22,0-2.14,.55-2.14,2.33v4.17Z"/><path d="M215.75,94.96l2.4,6.5,2.38-6.5h1.36l-3.01,7.68h-1.48l-3.01-7.68h1.37Z"/><path d="M226.46,102.76c-2.19,0-3.8-1.54-3.8-3.98s1.55-3.95,3.8-3.95,3.68,1.57,3.68,3.67c0,.28-.01,.5-.04,.77h-6.13c.1,1.55,1.19,2.41,2.49,2.41,1.15,0,1.88-.59,2.16-1.42h1.37c-.39,1.4-1.62,2.49-3.53,2.49Zm-2.48-4.52h4.85c.01-1.5-1.11-2.33-2.42-2.33-1.25,0-2.28,.83-2.42,2.33Z"/><path d="M237.44,98.29c0-1.57-.85-2.37-2.14-2.37s-2.2,.81-2.2,2.46v4.24h-1.28v-7.68h1.28v1.09c.5-.8,1.43-1.23,2.46-1.23,1.78,0,3.14,1.09,3.14,3.29v4.52h-1.26v-4.34Z"/><path d="M244.05,94.83c1.9,0,3.15,.98,3.54,2.59h-1.37c-.27-.92-1.04-1.51-2.17-1.51-1.4,0-2.44,1-2.44,2.87s1.04,2.9,2.44,2.9c1.13,0,1.89-.55,2.17-1.51h1.37c-.36,1.41-1.47,2.44-3.15,2.58v.7c1.08-.01,1.81,.46,1.81,1.39s-.71,1.44-1.71,1.44h-1.61v-.83h1.36c.6,0,.9-.17,.9-.62s-.29-.6-.9-.6h-.7v-1.5c-1.93-.2-3.28-1.7-3.28-3.95,0-2.41,1.55-3.95,3.74-3.95Z"/><path d="M252.45,94.83c1.43,0,2.41,.73,2.86,1.53v-1.4h1.29v7.68h-1.29v-1.43c-.46,.83-1.46,1.55-2.87,1.55-2.04,0-3.63-1.61-3.63-3.99s1.58-3.94,3.64-3.94Zm.25,1.11c-1.4,0-2.59,1.02-2.59,2.83s1.19,2.87,2.59,2.87,2.61-1.05,2.61-2.86-1.2-2.84-2.61-2.84Zm-.41-3.28c.74,0,1.02,.64,1.6,.64,.31,0,.56-.2,.62-.6h.73c-.11,.95-.67,1.46-1.4,1.46s-1.04-.64-1.6-.64c-.31,0-.55,.2-.6,.62h-.74c.14-.97,.67-1.47,1.4-1.47Z"/><path d="M262.09,102.76c-2.17,0-3.82-1.54-3.82-3.98s1.71-3.95,3.88-3.95,3.88,1.53,3.88,3.95-1.75,3.98-3.94,3.98Zm0-1.12c1.33,0,2.63-.91,2.63-2.86s-1.27-2.84-2.59-2.84-2.56,.91-2.56,2.84,1.19,2.86,2.52,2.86Z"/><path d="M267.97,100.87h1.4l-1.57,3.77h-.85l1.02-3.77Zm.48-4.16c-.49,0-.87-.38-.87-.87s.38-.87,.87-.87c.46,0,.84,.38,.84,.87s-.38,.87-.84,.87Z"/><path d="M32.54,115.09c0-1.57-.85-2.37-2.14-2.37s-2.2,.81-2.2,2.47v4.24h-1.28v-7.68h1.28v1.09c.5-.8,1.43-1.23,2.46-1.23,1.78,0,3.14,1.09,3.14,3.29v4.52h-1.26v-4.34Z"/><path d="M39.23,119.56c-2.17,0-3.82-1.54-3.82-3.98s1.71-3.95,3.88-3.95,3.88,1.53,3.88,3.95-1.75,3.98-3.94,3.98Zm0-1.12c1.33,0,2.63-.91,2.63-2.86s-1.27-2.84-2.59-2.84-2.56,.91-2.56,2.84,1.19,2.86,2.52,2.86Z"/><path d="M51.9,119.56c-2.19,0-3.8-1.54-3.8-3.98s1.55-3.95,3.8-3.95,3.68,1.57,3.68,3.67c0,.28-.01,.5-.04,.77h-6.14c.1,1.55,1.19,2.41,2.49,2.41,1.15,0,1.88-.59,2.16-1.41h1.37c-.39,1.4-1.62,2.49-3.53,2.49Zm-2.48-4.52h4.85c.01-1.5-1.11-2.33-2.42-2.33-1.25,0-2.28,.83-2.42,2.33Z"/><path d="M62.88,115.09c0-1.57-.85-2.37-2.14-2.37s-2.2,.81-2.2,2.47v4.24h-1.28v-7.68h1.28v1.09c.5-.8,1.43-1.23,2.46-1.23,1.78,0,3.14,1.09,3.14,3.29v4.52h-1.26v-4.34Z"/><path d="M66.5,112.81h-.99v-1.05h.99v-1.93h1.28v1.93h2v1.05h-2v4.52c0,.76,.28,1.02,1.06,1.02h.94v1.08h-1.15c-1.36,0-2.13-.56-2.13-2.1v-4.52Z"/><path d="M74.49,111.63c1.43,0,2.41,.73,2.86,1.53v-1.4h1.29v7.68h-1.29v-1.43c-.46,.83-1.46,1.55-2.87,1.55-2.05,0-3.63-1.61-3.63-3.99s1.58-3.94,3.64-3.94Zm.25,1.11c-1.4,0-2.59,1.02-2.59,2.83s1.19,2.87,2.59,2.87,2.61-1.05,2.61-2.86-1.21-2.84-2.61-2.84Z"/><path d="M86.4,115.09c0-1.57-.85-2.37-2.14-2.37s-2.2,.81-2.2,2.47v4.24h-1.27v-7.68h1.27v1.09c.5-.8,1.43-1.23,2.47-1.23,1.78,0,3.14,1.09,3.14,3.29v4.52h-1.26v-4.34Z"/><path d="M90.02,112.81h-1v-1.05h1v-1.93h1.27v1.93h2v1.05h-2v4.52c0,.76,.28,1.02,1.06,1.02h.94v1.08h-1.15c-1.36,0-2.13-.56-2.13-2.1v-4.52Z"/><path d="M98.19,119.56c-2.17,0-3.82-1.54-3.82-3.98s1.71-3.95,3.88-3.95,3.88,1.53,3.88,3.95-1.75,3.98-3.94,3.98Zm0-1.12c1.33,0,2.63-.91,2.63-2.86s-1.27-2.84-2.59-2.84-2.56,.91-2.56,2.84,1.19,2.86,2.52,2.86Z"/><path d="M103.72,117.67h1.4l-1.57,3.77h-.86l1.02-3.77Z"/><path d="M113.66,119.56c-2.17,0-3.82-1.54-3.82-3.98s1.71-3.95,3.88-3.95,3.88,1.53,3.88,3.95-1.75,3.98-3.94,3.98Zm0-1.12c1.33,0,2.63-.91,2.63-2.86s-1.27-2.84-2.59-2.84-2.56,.91-2.56,2.84,1.19,2.86,2.52,2.86Z"/><path d="M127.15,111.63c2.06,0,3.64,1.54,3.64,3.94s-1.58,3.99-3.64,3.99c-1.4,0-2.4-.76-2.87-1.54v5.06h-1.27v-11.32h1.27v1.42c.46-.81,1.47-1.54,2.87-1.54Zm-.27,1.11c-1.39,0-2.61,1.07-2.61,2.84s1.22,2.86,2.61,2.86,2.61-1.06,2.61-2.87-1.19-2.83-2.61-2.83Z"/><path d="M133.75,119.44h-1.28v-7.68h1.28v1.25c.43-.85,1.26-1.39,2.48-1.39v1.32h-.34c-1.22,0-2.14,.55-2.14,2.33v4.17Z"/><path d="M137.48,109.65c0-.49,.38-.87,.87-.87,.46,0,.84,.38,.84,.87s-.38,.87-.84,.87c-.49,0-.87-.38-.87-.87Zm.21,2.12h1.28v7.68h-1.28v-7.68Z"/><path d="M152.22,115.09c0-1.57-.84-2.37-2.1-2.37s-2.17,.83-2.17,2.48v4.23h-1.26v-4.34c0-1.57-.84-2.37-2.1-2.37s-2.17,.83-2.17,2.48v4.23h-1.28v-7.68h1.28v1.11c.5-.81,1.41-1.25,2.42-1.25,1.26,0,2.31,.56,2.82,1.71,.45-1.11,1.54-1.71,2.72-1.71,1.75,0,3.11,1.09,3.11,3.29v4.52h-1.26v-4.34Z"/><path d="M158.88,119.56c-2.19,0-3.8-1.54-3.8-3.98s1.55-3.95,3.8-3.95,3.68,1.57,3.68,3.67c0,.28-.01,.5-.04,.77h-6.13c.1,1.55,1.19,2.41,2.49,2.41,1.15,0,1.88-.59,2.16-1.41h1.37c-.39,1.4-1.62,2.49-3.53,2.49Zm-2.48-4.52h4.85c.01-1.5-1.11-2.33-2.42-2.33-1.25,0-2.28,.83-2.42,2.33Z"/><path d="M164.03,109.65c0-.49,.38-.87,.87-.87,.46,0,.84,.38,.84,.87s-.38,.87-.84,.87c-.49,0-.87-.38-.87-.87Zm.21,2.12h1.28v7.68h-1.28v-7.68Z"/><path d="M168.95,119.44h-1.28v-7.68h1.28v1.25c.43-.85,1.26-1.39,2.48-1.39v1.32h-.34c-1.22,0-2.14,.55-2.14,2.33v4.17Z"/><path d="M176.25,119.56c-2.17,0-3.82-1.54-3.82-3.98s1.71-3.95,3.88-3.95,3.88,1.53,3.88,3.95-1.75,3.98-3.94,3.98Zm0-1.12c1.33,0,2.63-.91,2.63-2.86s-1.27-2.84-2.59-2.84-2.56,.91-2.56,2.84,1.19,2.86,2.52,2.86Z"/><path d="M188.92,119.56c-2.19,0-3.8-1.54-3.8-3.98s1.55-3.95,3.8-3.95,3.68,1.57,3.68,3.67c0,.28-.01,.5-.04,.77h-6.13c.1,1.55,1.19,2.41,2.49,2.41,1.15,0,1.88-.59,2.16-1.41h1.37c-.39,1.4-1.62,2.49-3.53,2.49Zm-2.48-4.52h4.85c.01-1.5-1.11-2.33-2.42-2.33-1.25,0-2.28,.83-2.42,2.33Zm3.8-6.56v1.11l-2.98,1.6v-.95l2.98-1.75Z"/><path d="M204.83,119.44h-1.28v-1.13c-.49,.8-1.43,1.25-2.45,1.25-1.76,0-3.15-1.09-3.15-3.29v-4.5h1.26v4.33c0,1.55,.85,2.35,2.14,2.35s2.2-.81,2.2-2.46v-4.22h1.28v7.68Z"/><path d="M218.06,115.09c0-1.57-.84-2.37-2.1-2.37s-2.17,.83-2.17,2.48v4.23h-1.26v-4.34c0-1.57-.84-2.37-2.1-2.37s-2.17,.83-2.17,2.48v4.23h-1.28v-7.68h1.28v1.11c.5-.81,1.41-1.25,2.42-1.25,1.26,0,2.31,.56,2.82,1.71,.45-1.11,1.54-1.71,2.72-1.71,1.75,0,3.11,1.09,3.11,3.29v4.52h-1.26v-4.34Z"/><path d="M26.72,126.45c0-.49,.38-.87,.87-.87,.46,0,.84,.38,.84,.87s-.38,.87-.84,.87c-.49,0-.87-.38-.87-.87Zm.21,2.12h1.28v7.68h-1.28v-7.68Z"/><path d="M35.99,131.89c0-1.57-.85-2.37-2.14-2.37s-2.2,.81-2.2,2.47v4.24h-1.27v-7.68h1.27v1.09c.5-.8,1.43-1.23,2.47-1.23,1.78,0,3.14,1.09,3.14,3.29v4.52h-1.26v-4.34Z"/><path d="M42.51,128.43c1.21,0,2.31,.62,2.84,1.5v-4.06h1.29v10.37h-1.29v-1.44c-.46,.85-1.46,1.57-2.86,1.57-2.06,0-3.64-1.61-3.64-3.99s1.58-3.94,3.66-3.94Zm.24,1.11c-1.4,0-2.59,1.02-2.59,2.83s1.19,2.87,2.59,2.87,2.61-1.05,2.61-2.86-1.21-2.84-2.61-2.84Z"/><path d="M48.58,126.45c0-.49,.38-.87,.87-.87,.46,0,.84,.38,.84,.87s-.38,.87-.84,.87c-.49,0-.87-.38-.87-.87Zm.21,2.12h1.27v7.68h-1.27v-7.68Z"/><path d="M55.5,128.43c1.9,0,3.15,.98,3.54,2.59h-1.37c-.27-.92-1.04-1.51-2.17-1.51-1.4,0-2.44,.99-2.44,2.87s1.04,2.9,2.44,2.9c1.13,0,1.89-.55,2.17-1.51h1.37c-.39,1.53-1.64,2.59-3.54,2.59-2.19,0-3.74-1.54-3.74-3.98s1.55-3.95,3.74-3.95Z"/><path d="M63.9,128.43c1.43,0,2.41,.73,2.86,1.53v-1.4h1.29v7.68h-1.29v-1.43c-.46,.83-1.46,1.55-2.87,1.55-2.05,0-3.63-1.61-3.63-3.99s1.58-3.94,3.64-3.94Zm.25,1.11c-1.4,0-2.59,1.02-2.59,2.83s1.19,2.87,2.59,2.87,2.61-1.05,2.61-2.86-1.21-2.84-2.61-2.84Z"/><path d="M73.38,128.43c1.21,0,2.31,.62,2.84,1.5v-4.06h1.29v10.37h-1.29v-1.44c-.46,.85-1.46,1.57-2.86,1.57-2.06,0-3.64-1.61-3.64-3.99s1.58-3.94,3.66-3.94Zm.24,1.11c-1.4,0-2.59,1.02-2.59,2.83s1.19,2.87,2.59,2.87,2.61-1.05,2.61-2.86-1.21-2.84-2.61-2.84Z"/><path d="M83.01,136.36c-2.17,0-3.82-1.54-3.82-3.98s1.71-3.95,3.88-3.95,3.88,1.53,3.88,3.95-1.75,3.98-3.94,3.98Zm0-1.12c1.33,0,2.63-.91,2.63-2.86s-1.27-2.84-2.59-2.84-2.56,.91-2.56,2.84,1.19,2.86,2.52,2.86Z"/><path d="M89.9,136.24h-1.28v-7.68h1.28v1.25c.43-.85,1.26-1.39,2.48-1.39v1.32h-.34c-1.22,0-2.14,.55-2.14,2.33v4.17Z"/><path d="M100.76,128.43c1.2,0,2.31,.62,2.84,1.5v-4.06h1.29v10.37h-1.29v-1.44c-.46,.85-1.46,1.57-2.86,1.57-2.06,0-3.64-1.61-3.64-3.99s1.58-3.94,3.66-3.94Zm.24,1.11c-1.4,0-2.59,1.02-2.59,2.83s1.19,2.87,2.59,2.87,2.61-1.05,2.61-2.86-1.21-2.84-2.61-2.84Z"/><path d="M110.37,136.36c-2.19,0-3.8-1.54-3.8-3.98s1.55-3.95,3.8-3.95,3.68,1.57,3.68,3.67c0,.28-.01,.5-.04,.77h-6.14c.1,1.55,1.19,2.41,2.49,2.41,1.15,0,1.88-.59,2.16-1.41h1.37c-.39,1.4-1.62,2.49-3.53,2.49Zm-2.48-4.52h4.85c.01-1.5-1.11-2.33-2.42-2.33-1.25,0-2.28,.83-2.42,2.33Z"/><path d="M122.78,136.36c-2.19,0-3.8-1.54-3.8-3.98s1.55-3.95,3.8-3.95,3.68,1.57,3.68,3.67c0,.28-.01,.5-.04,.77h-6.14c.1,1.55,1.19,2.41,2.49,2.41,1.15,0,1.88-.59,2.16-1.41h1.37c-.39,1.4-1.62,2.49-3.53,2.49Zm-2.48-4.52h4.85c.01-1.5-1.11-2.33-2.42-2.33-1.25,0-2.28,.83-2.42,2.33Z"/><path d="M128.38,129.61h-.99v-1.05h.99v-.55c0-1.71,.84-2.48,2.8-2.48v1.06c-1.15,0-1.53,.42-1.53,1.42v.55h1.61v1.05h-1.61v6.63h-1.28v-6.63Z"/><path d="M136.07,136.36c-2.19,0-3.8-1.54-3.8-3.98s1.55-3.95,3.8-3.95,3.68,1.57,3.68,3.67c0,.28-.01,.5-.04,.77h-6.13c.1,1.55,1.19,2.41,2.49,2.41,1.15,0,1.88-.59,2.16-1.41h1.37c-.39,1.4-1.62,2.49-3.53,2.49Zm-2.48-4.52h4.85c.01-1.5-1.11-2.33-2.42-2.33-1.25,0-2.28,.83-2.42,2.33Z"/><path d="M141.22,126.45c0-.49,.38-.87,.87-.87,.46,0,.84,.38,.84,.87s-.38,.87-.84,.87c-.49,0-.87-.38-.87-.87Zm.21,2.12h1.28v7.68h-1.28v-7.68Z"/><path d="M145.15,129.61h-.99v-1.05h.99v-1.93h1.28v1.93h2v1.05h-2v4.52c0,.76,.28,1.02,1.06,1.02h.94v1.08h-1.15c-1.36,0-2.13-.56-2.13-2.1v-4.52Z"/><path d="M153.32,136.36c-2.17,0-3.82-1.54-3.82-3.98s1.71-3.95,3.88-3.95,3.88,1.53,3.88,3.95-1.75,3.98-3.94,3.98Zm0-1.12c1.33,0,2.63-.91,2.63-2.86s-1.27-2.84-2.59-2.84-2.56,.91-2.56,2.84,1.19,2.86,2.52,2.86Z"/><path d="M165.94,138.84c-1.78-1.75-2.84-4.58-2.84-7.73s1.06-6.12,3.05-7.96h1.33v.13c-2.16,2.03-3.15,4.97-3.15,7.83s1,5.6,2.94,7.61v.13h-1.33Z"/><path d="M172.37,136.36c-2.17,0-3.82-1.54-3.82-3.98s1.71-3.95,3.88-3.95,3.88,1.53,3.88,3.95-1.75,3.98-3.94,3.98Zm0-1.12c1.33,0,2.63-.91,2.63-2.86s-1.27-2.84-2.59-2.84-2.56,.91-2.56,2.84,1.19,2.86,2.52,2.86Z"/><path d="M184.79,136.24h-1.28v-1.13c-.49,.8-1.43,1.25-2.45,1.25-1.76,0-3.15-1.09-3.15-3.29v-4.5h1.26v4.33c0,1.55,.85,2.35,2.14,2.35s2.2-.81,2.2-2.46v-4.22h1.28v7.68Z"/><path d="M193.86,128.43c1.2,0,2.31,.62,2.84,1.5v-4.06h1.29v10.37h-1.29v-1.44c-.46,.85-1.46,1.57-2.86,1.57-2.06,0-3.64-1.61-3.64-3.99s1.58-3.94,3.66-3.94Zm.24,1.11c-1.4,0-2.59,1.02-2.59,2.83s1.19,2.87,2.59,2.87,2.61-1.05,2.61-2.86-1.2-2.84-2.61-2.84Z"/><path d="M203.46,136.36c-2.19,0-3.8-1.54-3.8-3.98s1.55-3.95,3.8-3.95,3.68,1.57,3.68,3.67c0,.28-.01,.5-.04,.77h-6.13c.1,1.55,1.19,2.41,2.49,2.41,1.15,0,1.88-.59,2.16-1.41h1.37c-.39,1.4-1.62,2.49-3.53,2.49Zm-2.48-4.52h4.85c.01-1.5-1.11-2.33-2.42-2.33-1.25,0-2.28,.83-2.42,2.33Z"/><path d="M26.72,143.25c0-.49,.38-.87,.87-.87,.46,0,.84,.38,.84,.87s-.38,.87-.84,.87c-.49,0-.87-.38-.87-.87Zm.21,2.12h1.28v7.68h-1.28v-7.68Z"/><path d="M41.45,148.7c0-1.57-.84-2.37-2.1-2.37s-2.17,.83-2.17,2.48v4.23h-1.26v-4.34c0-1.57-.84-2.37-2.1-2.37s-2.17,.83-2.17,2.48v4.23h-1.27v-7.68h1.27v1.11c.5-.81,1.42-1.25,2.42-1.25,1.26,0,2.31,.56,2.82,1.71,.45-1.11,1.54-1.71,2.72-1.71,1.75,0,3.11,1.09,3.11,3.29v4.52h-1.26v-4.34Z"/><path d="M48.93,145.24c2.06,0,3.64,1.54,3.64,3.94s-1.58,3.99-3.64,3.99c-1.4,0-2.39-.76-2.87-1.54v5.06h-1.27v-11.32h1.27v1.42c.46-.81,1.47-1.54,2.87-1.54Zm-.27,1.11c-1.39,0-2.61,1.06-2.61,2.84s1.22,2.86,2.61,2.86,2.61-1.06,2.61-2.87-1.19-2.83-2.61-2.83Z"/><path d="M57.42,145.24c1.43,0,2.41,.73,2.86,1.53v-1.4h1.29v7.68h-1.29v-1.43c-.46,.83-1.46,1.55-2.87,1.55-2.05,0-3.63-1.61-3.63-3.99s1.58-3.94,3.64-3.94Zm.25,1.11c-1.4,0-2.59,1.02-2.59,2.83s1.19,2.87,2.59,2.87,2.61-1.05,2.61-2.86-1.21-2.84-2.61-2.84Z"/><path d="M66.98,145.24c1.91,0,3.15,.98,3.54,2.59h-1.37c-.27-.92-1.04-1.51-2.17-1.51-1.4,0-2.44,1-2.44,2.87s1.04,2.9,2.44,2.9c1.13,0,1.89-.55,2.17-1.51h1.37c-.39,1.53-1.64,2.59-3.54,2.59-2.18,0-3.74-1.54-3.74-3.98s1.55-3.95,3.74-3.95Z"/><path d="M72.5,146.41h-.99v-1.05h.99v-1.93h1.27v1.93h2v1.05h-2v4.52c0,.76,.28,1.02,1.06,1.02h.94v1.08h-1.15c-1.36,0-2.13-.56-2.13-2.1v-4.52Z"/><path d="M80.66,153.16c-2.17,0-3.82-1.54-3.82-3.98s1.71-3.95,3.88-3.95,3.88,1.53,3.88,3.95-1.75,3.98-3.94,3.98Zm0-1.12c1.33,0,2.63-.91,2.63-2.86s-1.27-2.84-2.59-2.84-2.56,.91-2.56,2.84,1.19,2.86,2.52,2.86Z"/><path d="M85.86,155.64v-.13c1.95-2,2.94-4.76,2.94-7.61s-.99-5.8-3.15-7.83v-.13h1.33c1.99,1.83,3.05,4.79,3.05,7.96s-1.06,5.98-2.84,7.73h-1.33Z"/><path d="M92.54,151.27h1.4l-1.57,3.77h-.85l1.02-3.77Z"/><path d="M102.46,153.16c-2.18,0-3.79-1.54-3.79-3.98s1.55-3.95,3.79-3.95,3.68,1.57,3.68,3.67c0,.28-.01,.5-.04,.77h-6.14c.1,1.55,1.19,2.41,2.49,2.41,1.15,0,1.88-.59,2.16-1.42h1.37c-.39,1.4-1.62,2.49-3.53,2.49Zm-2.48-4.52h4.85c.01-1.5-1.11-2.33-2.42-2.33-1.25,0-2.28,.83-2.42,2.33Z"/><path d="M114.9,153.16c-2.17,0-3.82-1.54-3.82-3.98s1.71-3.95,3.88-3.95,3.88,1.53,3.88,3.95-1.75,3.98-3.94,3.98Zm0-1.12c1.33,0,2.63-.91,2.63-2.86s-1.28-2.84-2.59-2.84-2.56,.91-2.56,2.84,1.19,2.86,2.52,2.86Z"/><path d="M126.97,153.16c-1.79,0-3.05-.98-3.14-2.38h1.32c.07,.74,.73,1.3,1.81,1.3,1.01,0,1.57-.5,1.57-1.13,0-1.71-4.54-.71-4.54-3.57,0-1.18,1.11-2.14,2.82-2.14s2.82,.91,2.9,2.41h-1.27c-.06-.77-.64-1.33-1.67-1.33-.94,0-1.5,.45-1.5,1.06,0,1.82,4.46,.83,4.51,3.57,0,1.26-1.11,2.21-2.8,2.21Z"/><path d="M134.88,153.16c-2.19,0-3.8-1.54-3.8-3.98s1.55-3.95,3.8-3.95,3.68,1.57,3.68,3.67c0,.28-.01,.5-.04,.77h-6.13c.1,1.55,1.19,2.41,2.49,2.41,1.15,0,1.88-.59,2.16-1.42h1.37c-.39,1.4-1.62,2.49-3.53,2.49Zm-2.48-4.52h4.85c.01-1.5-1.11-2.33-2.42-2.33-1.25,0-2.28,.83-2.42,2.33Z"/><path d="M143.41,145.24c1.4,0,2.41,.7,2.86,1.53v-1.4h1.29v7.84c0,2.12-1.42,3.61-3.67,3.61-2.02,0-3.46-1.02-3.71-2.66h1.26c.28,.92,1.19,1.55,2.45,1.55,1.36,0,2.38-.87,2.38-2.51v-1.61c-.46,.83-1.46,1.57-2.86,1.57-2.06,0-3.64-1.61-3.64-3.99s1.58-3.94,3.64-3.94Zm.25,1.11c-1.4,0-2.59,1.02-2.59,2.83s1.19,2.87,2.59,2.87,2.61-1.05,2.61-2.86-1.2-2.84-2.61-2.84Z"/><path d="M156.51,153.04h-1.28v-1.13c-.49,.8-1.43,1.25-2.45,1.25-1.76,0-3.15-1.09-3.15-3.29v-4.5h1.26v4.33c0,1.55,.85,2.35,2.14,2.35s2.2-.81,2.2-2.47v-4.22h1.28v7.68Z"/><path d="M164.28,148.7c0-1.57-.85-2.37-2.14-2.37s-2.2,.81-2.2,2.46v4.24h-1.28v-7.68h1.28v1.09c.5-.8,1.43-1.23,2.46-1.23,1.78,0,3.14,1.09,3.14,3.29v4.52h-1.26v-4.34Z"/><path d="M170.8,145.24c1.2,0,2.31,.62,2.84,1.5v-4.06h1.29v10.37h-1.29v-1.44c-.46,.85-1.46,1.57-2.86,1.57-2.06,0-3.64-1.61-3.64-3.99s1.58-3.94,3.66-3.94Zm.24,1.11c-1.4,0-2.59,1.02-2.59,2.83s1.19,2.87,2.59,2.87,2.61-1.05,2.61-2.86-1.2-2.84-2.61-2.84Z"/><path d="M180.44,153.16c-2.17,0-3.82-1.54-3.82-3.98s1.71-3.95,3.88-3.95,3.88,1.53,3.88,3.95-1.75,3.98-3.94,3.98Zm0-1.12c1.33,0,2.63-.91,2.63-2.86s-1.27-2.84-2.59-2.84-2.56,.91-2.56,2.84,1.19,2.86,2.52,2.86Z"/><path d="M185.96,151.27h1.4l-1.57,3.77h-.85l1.02-3.77Z"/><path d="M199.37,153.04h-1.28v-1.13c-.49,.8-1.43,1.25-2.45,1.25-1.76,0-3.15-1.09-3.15-3.29v-4.5h1.26v4.33c0,1.55,.85,2.35,2.14,2.35s2.2-.81,2.2-2.47v-4.22h1.28v7.68Z"/><path d="M212.6,148.7c0-1.57-.84-2.37-2.1-2.37s-2.17,.83-2.17,2.48v4.23h-1.26v-4.34c0-1.57-.84-2.37-2.1-2.37s-2.17,.83-2.17,2.48v4.23h-1.28v-7.68h1.28v1.11c.5-.81,1.41-1.25,2.42-1.25,1.26,0,2.31,.56,2.82,1.71,.45-1.11,1.54-1.71,2.72-1.71,1.75,0,3.11,1.09,3.11,3.29v4.52h-1.26v-4.34Z"/><path d="M26.72,160.05c0-.49,.38-.87,.87-.87,.46,0,.84,.38,.84,.87s-.38,.87-.84,.87c-.49,0-.87-.38-.87-.87Zm.21,2.12h1.28v7.68h-1.28v-7.68Z"/><path d="M35.99,165.49c0-1.57-.85-2.37-2.14-2.37s-2.2,.81-2.2,2.46v4.24h-1.27v-7.68h1.27v1.09c.5-.8,1.43-1.23,2.47-1.23,1.78,0,3.14,1.09,3.14,3.29v4.52h-1.26v-4.34Z"/><path d="M42.51,162.03c1.21,0,2.31,.62,2.84,1.5v-4.06h1.29v10.37h-1.29v-1.44c-.46,.85-1.46,1.57-2.86,1.57-2.06,0-3.64-1.61-3.64-3.99s1.58-3.94,3.66-3.94Zm.24,1.11c-1.4,0-2.59,1.02-2.59,2.83s1.19,2.87,2.59,2.87,2.61-1.05,2.61-2.86-1.21-2.84-2.61-2.84Z"/><path d="M48.58,160.05c0-.49,.38-.87,.87-.87,.46,0,.84,.38,.84,.87s-.38,.87-.84,.87c-.49,0-.87-.38-.87-.87Zm.21,2.12h1.27v7.68h-1.27v-7.68Z"/><path d="M55.5,162.03c1.9,0,3.15,.98,3.54,2.59h-1.37c-.27-.92-1.04-1.51-2.17-1.51-1.4,0-2.44,1-2.44,2.87s1.04,2.9,2.44,2.9c1.13,0,1.89-.55,2.17-1.51h1.37c-.39,1.53-1.64,2.59-3.54,2.59-2.19,0-3.74-1.54-3.74-3.98s1.55-3.95,3.74-3.95Z"/><path d="M63.9,162.03c1.43,0,2.41,.73,2.86,1.53v-1.4h1.29v7.68h-1.29v-1.43c-.46,.83-1.46,1.55-2.87,1.55-2.05,0-3.63-1.61-3.63-3.99s1.58-3.94,3.64-3.94Zm.25,1.11c-1.4,0-2.59,1.02-2.59,2.83s1.19,2.87,2.59,2.87,2.61-1.05,2.61-2.86-1.21-2.84-2.61-2.84Z"/><path d="M73.38,162.03c1.21,0,2.31,.62,2.84,1.5v-4.06h1.29v10.37h-1.29v-1.44c-.46,.85-1.46,1.57-2.86,1.57-2.06,0-3.64-1.61-3.64-3.99s1.58-3.94,3.66-3.94Zm.24,1.11c-1.4,0-2.59,1.02-2.59,2.83s1.19,2.87,2.59,2.87,2.61-1.05,2.61-2.86-1.21-2.84-2.61-2.84Z"/><path d="M83.01,169.96c-2.17,0-3.82-1.54-3.82-3.98s1.71-3.95,3.88-3.95,3.88,1.53,3.88,3.95-1.75,3.98-3.94,3.98Zm0-1.12c1.33,0,2.63-.91,2.63-2.86s-1.27-2.84-2.59-2.84-2.56,.91-2.56,2.84,1.19,2.86,2.52,2.86Z"/><path d="M89.9,169.84h-1.28v-7.68h1.28v1.25c.43-.85,1.26-1.39,2.48-1.39v1.32h-.34c-1.22,0-2.14,.55-2.14,2.33v4.17Z"/><path d="M100.76,162.03c1.2,0,2.31,.62,2.84,1.5v-4.06h1.29v10.37h-1.29v-1.44c-.46,.85-1.46,1.57-2.86,1.57-2.06,0-3.64-1.61-3.64-3.99s1.58-3.94,3.66-3.94Zm.24,1.11c-1.4,0-2.59,1.02-2.59,2.83s1.19,2.87,2.59,2.87,2.61-1.05,2.61-2.86-1.21-2.84-2.61-2.84Z"/><path d="M110.37,169.96c-2.19,0-3.8-1.54-3.8-3.98s1.55-3.95,3.8-3.95,3.68,1.57,3.68,3.67c0,.28-.01,.5-.04,.77h-6.14c.1,1.55,1.19,2.41,2.49,2.41,1.15,0,1.88-.59,2.16-1.42h1.37c-.39,1.4-1.62,2.49-3.53,2.49Zm-2.48-4.52h4.85c.01-1.5-1.11-2.33-2.42-2.33-1.25,0-2.28,.83-2.42,2.33Z"/><path d="M123.61,162.03c2.06,0,3.64,1.54,3.64,3.94s-1.58,3.99-3.64,3.99c-1.4,0-2.4-.76-2.87-1.54v5.06h-1.27v-11.32h1.27v1.42c.46-.81,1.47-1.54,2.87-1.54Zm-.27,1.11c-1.39,0-2.61,1.06-2.61,2.84s1.22,2.86,2.61,2.86,2.61-1.06,2.61-2.87-1.19-2.83-2.61-2.83Z"/><path d="M130.2,169.84h-1.28v-7.68h1.28v1.25c.43-.85,1.26-1.39,2.48-1.39v1.32h-.34c-1.22,0-2.14,.55-2.14,2.33v4.17Z"/><path d="M137.5,169.96c-2.17,0-3.82-1.54-3.82-3.98s1.71-3.95,3.88-3.95,3.88,1.53,3.88,3.95-1.75,3.98-3.94,3.98Zm0-1.12c1.33,0,2.63-.91,2.63-2.86s-1.27-2.84-2.59-2.84-2.56,.91-2.56,2.84,1.19,2.86,2.52,2.86Z"/><path d="M146.37,162.03c1.9,0,3.15,.98,3.54,2.59h-1.37c-.27-.92-1.04-1.51-2.17-1.51-1.4,0-2.44,1-2.44,2.87s1.04,2.9,2.44,2.9c1.13,0,1.89-.55,2.17-1.51h1.37c-.39,1.53-1.64,2.59-3.54,2.59-2.19,0-3.74-1.54-3.74-3.98s1.55-3.95,3.74-3.95Z"/><path d="M154.93,169.96c-2.19,0-3.8-1.54-3.8-3.98s1.55-3.95,3.8-3.95,3.68,1.57,3.68,3.67c0,.28-.01,.5-.04,.77h-6.13c.1,1.55,1.19,2.41,2.49,2.41,1.15,0,1.88-.59,2.16-1.42h1.37c-.39,1.4-1.62,2.49-3.53,2.49Zm-2.48-4.52h4.85c.01-1.5-1.11-2.33-2.42-2.33-1.25,0-2.28,.83-2.42,2.33Z"/><path d="M163.01,169.96c-1.79,0-3.05-.98-3.14-2.38h1.32c.07,.74,.73,1.3,1.81,1.3,1.01,0,1.57-.5,1.57-1.13,0-1.71-4.54-.71-4.54-3.57,0-1.18,1.11-2.14,2.82-2.14s2.82,.91,2.9,2.41h-1.27c-.06-.77-.64-1.33-1.67-1.33-.94,0-1.5,.45-1.5,1.06,0,1.82,4.46,.83,4.51,3.57,0,1.26-1.11,2.21-2.8,2.21Z"/><path d="M170.31,169.96c-1.79,0-3.05-.98-3.14-2.38h1.32c.07,.74,.73,1.3,1.81,1.3,1.01,0,1.57-.5,1.57-1.13,0-1.71-4.54-.71-4.54-3.57,0-1.18,1.11-2.14,2.82-2.14s2.82,.91,2.9,2.41h-1.27c-.06-.77-.64-1.33-1.67-1.33-.94,0-1.5,.45-1.5,1.06,0,1.82,4.46,.83,4.51,3.57,0,1.26-1.11,2.21-2.8,2.21Z"/><path d="M178.25,169.96c-2.17,0-3.82-1.54-3.82-3.98s1.71-3.95,3.88-3.95,3.88,1.53,3.88,3.95-1.75,3.98-3.94,3.98Zm0-1.12c1.33,0,2.63-.91,2.63-2.86s-1.27-2.84-2.59-2.84-2.56,.91-2.56,2.84,1.19,2.86,2.52,2.86Z"/><path d="M184.27,169.92c-.49,0-.87-.38-.87-.87s.38-.87,.87-.87c.46,0,.84,.38,.84,.87s-.38,.87-.84,.87Z"/></g><g><rect class="cls-1" x="-.13" y=".14" width="298" height="47"/><g><path class="cls-2" d="M41.31,16.32c2.21,0,3.39,1.25,3.39,2.82,0,1.4-.87,2.07-1.51,2.28v.06c.98,.36,1.7,1.09,1.7,2.41,0,1.76-1.26,2.98-3.42,2.98s-3.77-1.01-3.82-3.45h2.68c-.03,.73,.31,1.18,1.04,1.18,.55,0,.87-.38,.87-.92,0-.7-.42-1.04-1.46-1.04h-.49v-2.23h.48c.53,.01,1.28-.07,1.28-.94,0-.59-.32-.87-.79-.87-.6,0-.78,.52-.81,.99h-2.67c.07-2.11,1.37-3.28,3.56-3.28Z"/><path class="cls-2" d="M47.73,26.89c-.98,0-1.61-.62-1.61-1.42s.63-1.43,1.61-1.43,1.6,.63,1.6,1.43-.63,1.42-1.6,1.42Z"/><path class="cls-2" d="M61.25,25.77l2.09,2.66h-3.28l-1.09-1.64c-.31,.06-.62,.08-.94,.08-2.8,0-5.07-2.1-5.07-5.07s2.27-5.06,5.07-5.06,5.06,2.09,5.06,5.06c0,1.67-.71,3.07-1.83,3.96Zm-3.22-1.44c1.42,0,2.27-.99,2.27-2.52s-.85-2.54-2.27-2.54-2.27,.98-2.27,2.54,.84,2.52,2.27,2.52Z"/><path class="cls-2" d="M72.36,26.78h-2.76v-1.12c-.45,.67-1.27,1.19-2.38,1.19-1.82,0-2.96-1.29-2.96-3.36v-4.57h2.73v4.22c0,.91,.52,1.44,1.3,1.44s1.3-.53,1.3-1.44v-4.22h2.76v7.86Z"/><path class="cls-2" d="M76.83,18.83c1.12,0,1.91,.49,2.31,1.19v-1.09h2.75v7.86h-2.75v-1.09c-.41,.7-1.21,1.19-2.31,1.19-1.86,0-3.35-1.53-3.35-4.03s1.48-4.02,3.35-4.02Zm.88,2.4c-.78,0-1.43,.56-1.43,1.62s.64,1.64,1.43,1.64,1.43-.57,1.43-1.64-.66-1.62-1.43-1.62Z"/><path class="cls-2" d="M83.45,16.42h2.75v10.37h-2.75v-10.37Z"/><path class="cls-2" d="M93.33,18.83c1.12,0,1.91,.49,2.31,1.19v-1.09h2.75v7.86h-2.75v-1.09c-.41,.7-1.21,1.19-2.31,1.19-1.86,0-3.35-1.53-3.35-4.03s1.48-4.02,3.35-4.02Zm.88,2.4c-.78,0-1.43,.56-1.43,1.62s.64,1.64,1.43,1.64,1.43-.57,1.43-1.64-.66-1.62-1.43-1.62Z"/><path class="cls-2" d="M105.54,18.83c1.04,0,1.85,.46,2.28,1.18v-3.59h2.76v10.37h-2.76v-1.09c-.41,.7-1.19,1.19-2.3,1.19-1.86,0-3.35-1.53-3.35-4.03s1.48-4.02,3.36-4.02Zm.87,2.4c-.78,0-1.43,.56-1.43,1.62s.64,1.64,1.43,1.64,1.43-.57,1.43-1.64-.66-1.62-1.43-1.62Z"/><path class="cls-2" d="M111.92,16.79c0-.8,.63-1.43,1.61-1.43s1.6,.63,1.6,1.43-.63,1.4-1.6,1.4-1.61-.62-1.61-1.4Zm.22,2.13h2.75v7.86h-2.75v-7.86Z"/><path class="cls-2" d="M116.71,21.21h-.85v-2.28h.85v-.07c0-2.17,1.41-3.29,3.96-3.11v2.34c-.83-.08-1.16,.14-1.21,.84h1.23v2.28h-1.23v5.58h-2.76v-5.58Z"/><path class="cls-2" d="M125.22,26.88c-2.33,0-3.99-1.53-3.99-4.03s1.64-4.02,3.99-4.02,3.96,1.5,3.96,3.94c0,.21-.01,.43-.04,.64h-5.2c.06,.91,.55,1.27,1.16,1.27,.53,0,.83-.29,.98-.62h2.93c-.36,1.61-1.83,2.82-3.8,2.82Zm-1.26-4.8h2.42c0-.7-.55-1.08-1.18-1.08s-1.12,.36-1.25,1.08Z"/><path class="cls-2" d="M133.05,26.78h-2.75v-7.86h2.75v1.39c.59-.85,1.48-1.46,2.54-1.46v2.93h-.77c-1.13,0-1.76,.36-1.76,1.57v3.43Z"/><path class="cls-2" d="M140.11,26.88c-2.33,0-3.99-1.53-3.99-4.03s1.64-4.02,3.99-4.02,3.96,1.5,3.96,3.94c0,.21-.01,.43-.04,.64h-5.2c.06,.91,.55,1.27,1.16,1.27,.53,0,.83-.29,.98-.62h2.93c-.36,1.61-1.83,2.82-3.8,2.82Zm-1.26-4.8h2.42c0-.7-.55-1.08-1.18-1.08s-1.12,.36-1.25,1.08Z"/><path class="cls-2" d="M150.54,22.57c0-.91-.5-1.44-1.29-1.44s-1.32,.53-1.32,1.44v4.22h-2.75v-7.86h2.75v1.12c.46-.67,1.29-1.19,2.4-1.19,1.82,0,2.96,1.29,2.96,3.35v4.58h-2.75v-4.22Z"/><path class="cls-2" d="M158.32,18.83c1.99,0,3.45,1.13,3.84,3.11h-2.91c-.15-.48-.46-.77-.98-.77-.67,0-1.12,.56-1.12,1.68s.45,1.69,1.12,1.69c.52,0,.83-.28,.98-.77h2.91c-.34,1.67-1.46,2.76-3.03,3.04v.49c.76,0,1.82,.41,1.82,1.65s-1.08,1.67-2.03,1.67h-2.28v-1.44h1.96c.29,0,.46-.1,.46-.29,0-.21-.17-.29-.46-.29h-1.09v-1.78c-1.89-.31-3.17-1.76-3.17-3.96,0-2.49,1.64-4.02,3.98-4.02Z"/><path class="cls-2" d="M166.19,18.83c1.12,0,1.91,.49,2.31,1.19v-1.09h2.75v7.86h-2.75v-1.09c-.41,.7-1.21,1.19-2.31,1.19-1.86,0-3.35-1.53-3.35-4.03s1.48-4.02,3.35-4.02Zm.88,2.4c-.78,0-1.43,.56-1.43,1.62s.64,1.64,1.43,1.64,1.43-.57,1.43-1.64-.66-1.62-1.43-1.62Z"/><path class="cls-2" d="M179.03,26.88c-2.33,0-3.99-1.53-3.99-4.03s1.64-4.02,3.99-4.02,3.96,1.5,3.96,3.94c0,.21-.01,.43-.04,.64h-5.2c.06,.91,.55,1.27,1.16,1.27,.53,0,.83-.29,.98-.62h2.93c-.36,1.61-1.83,2.82-3.8,2.82Zm-1.26-4.8h2.42c0-.7-.55-1.08-1.18-1.08s-1.12,.36-1.25,1.08Z"/><path class="cls-2" d="M189.46,22.57c0-.91-.5-1.44-1.29-1.44s-1.32,.53-1.32,1.44v4.22h-2.75v-7.86h2.75v1.12c.46-.67,1.29-1.19,2.4-1.19,1.82,0,2.96,1.29,2.96,3.35v4.58h-2.75v-4.22Z"/><path class="cls-2" d="M194.14,21.21h-.97v-2.28h.97v-1.9h2.76v1.9h1.43v2.28h-1.43v2.63c0,.42,.18,.6,.64,.6h.8v2.34h-1.19c-1.74,0-3.01-.73-3.01-2.98v-2.59Z"/><path class="cls-2" d="M202.35,26.78h-2.75v-7.86h2.75v1.39c.59-.85,1.48-1.46,2.54-1.46v2.93h-.77c-1.13,0-1.76,.36-1.76,1.57v3.43Z"/><path class="cls-2" d="M209.41,26.88c-2.33,0-3.99-1.53-3.99-4.03s1.64-4.02,3.99-4.02,3.96,1.5,3.96,3.94c0,.21-.01,.43-.04,.64h-5.2c.06,.91,.55,1.27,1.16,1.27,.53,0,.83-.29,.98-.62h2.93c-.36,1.61-1.83,2.82-3.8,2.82Zm-1.26-4.8h2.42c0-.7-.55-1.08-1.18-1.08s-1.12,.36-1.25,1.08Z"/><path class="cls-2" d="M220.7,26.88c-2.33,0-3.99-1.53-3.99-4.03s1.64-4.02,3.99-4.02,3.96,1.5,3.96,3.94c0,.21-.01,.43-.04,.64h-5.2c.06,.91,.55,1.27,1.16,1.27,.53,0,.83-.29,.98-.62h2.93c-.36,1.61-1.83,2.82-3.8,2.82Zm-1.26-4.8h2.42c0-.7-.55-1.08-1.18-1.08s-1.12,.36-1.25,1.08Z"/><path class="cls-2" d="M225.78,16.42h2.75v10.37h-2.75v-10.37Z"/><path class="cls-2" d="M233.64,26.88c-2.33,0-3.99-1.53-3.99-4.03s1.64-4.02,3.99-4.02,3.96,1.5,3.96,3.94c0,.21-.01,.43-.04,.64h-5.2c.06,.91,.55,1.27,1.16,1.27,.53,0,.83-.29,.98-.62h2.93c-.36,1.61-1.83,2.82-3.8,2.82Zm-1.26-4.8h2.42c0-.7-.55-1.08-1.18-1.08s-1.12,.36-1.25,1.08Z"/><path class="cls-2" d="M242.07,26.88c-2.18,0-3.64-1.18-3.75-2.75h2.66c.07,.52,.5,.8,1.08,.8,.46,0,.73-.22,.73-.5,0-1.15-4.17-.21-4.17-3.1,0-1.37,1.13-2.51,3.26-2.51s3.26,1.19,3.45,2.75h-2.48c-.08-.49-.43-.78-1.02-.78-.45,0-.69,.18-.69,.48,0,1.12,4.19,.22,4.2,3.21,0,1.37-1.23,2.41-3.26,2.41Z"/><path class="cls-2" d="M249.67,16.18c1.96,0,3.38,1.02,3.38,3.03,0,1.74-1.28,2.76-3.08,2.79l-.07,1.02h-2.42l-.08-2.79h1.01c1.19,0,1.99-.22,1.96-1.04-.01-.49-.31-.77-.76-.77-.55,0-.8,.36-.8,.85h-2.59c-.06-1.68,1.09-3.1,3.46-3.1Zm-.97,10.72c-.98,0-1.61-.62-1.61-1.42s.63-1.43,1.61-1.43,1.6,.63,1.6,1.43-.63,1.42-1.6,1.42Z"/></g></g></g><rect class="cls-3" x=".13" width="298" height="242"/></svg>